<svg width="246" height="164" viewBox="0 0 246 164" fill="none" xmlns="http://www.w3.org/2000/svg">
<g clip-path="url(#clip0)">
<rect x="227.762" y="105.018" width="27.1661" height="18.2805" rx="9.14024" transform="rotate(-103.652 227.762 105.018)" fill="#F9B86D"/>
<rect x="230.083" y="96.3522" width="38.6563" height="18.2805" rx="9.14024" transform="rotate(-130.555 230.083 96.3522)" fill="#F9B86D"/>
<rect x="39" y="27.0001" width="189" height="112" rx="40" fill="#865633"/>
<rect x="9" y="55.0001" width="122" height="93" rx="46.5" fill="#C0692A"/>
<path d="M32.6105 31.6008C32.6117 31.074 33.3216 30.907 33.5575 31.378L50.6233 65.4393C50.7679 65.728 50.6051 66.076 50.2908 66.15L33.1363 70.186C32.822 70.2599 32.5211 70.021 32.5218 69.6981L32.6105 31.6008Z" fill="#F9B86D"/>
<path d="M101.314 31.4528C101.553 30.9837 102.262 31.1562 102.259 31.6829L102.053 69.7798C102.051 70.1027 101.748 70.3393 101.434 70.2629L84.3117 66.0942C83.998 66.0178 83.8379 65.6685 83.9847 65.381L101.314 31.4528Z" fill="#F9B86D"/>
<circle cx="45" cy="94" r="6.5" fill="black"/>
<circle cx="45" cy="94" r="6.5" fill="#D8C5C5"/>
<circle cx="45" cy="94" r="6.5" stroke="black"/>
<circle cx="92" cy="94" r="6.5" fill="black"/>
<circle cx="92" cy="94" r="6.5" fill="#D8C5C5"/>
<circle cx="92" cy="94" r="6.5" stroke="black"/>
<rect x="63" y="99" width="12" height="9" rx="4.5" fill="#443030"/>
<line x1="69" y1="108" x2="69" y2="111" stroke="black" stroke-width="4"/>
<rect x="124.739" y="129.713" width="99.4903" height="17.2725" rx="8.63625" transform="rotate(-4.62207 124.739 129.713)" fill="#F9B86D"/>
<rect x="206.072" y="134.325" width="57.157" height="16.4654" rx="8.23271" transform="rotate(-63.4112 206.072 134.325)" fill="#F9B86D"/>
<line x1="114" y1="27.0001" x2="114" y2="55.0001" stroke="#A78D7E" stroke-width="6"/>
<line x1="142" y1="27.0001" x2="142" y2="55.0001" stroke="#A78D7E" stroke-width="6"/>
<line x1="170" y1="27.0001" x2="170" y2="55.0001" stroke="#A78D7E" stroke-width="6"/>
<ellipse cx="45" cy="94" rx="3" ry="5" fill="#312828"/>
<ellipse cx="45" cy="94" rx="3" ry="5" fill="#312828"/>
<ellipse cx="92" cy="94" rx="3" ry="5" fill="#312828"/>
<ellipse cx="92" cy="94" rx="3" ry="5" fill="#312828"/>
<path d="M85.5 125.5C85.5 134.309 77.917 141.5 68.5 141.5C59.083 141.5 51.5 134.309 51.5 125.5C51.5 116.691 59.083 109.5 68.5 109.5C77.917 109.5 85.5 116.691 85.5 125.5Z" fill="#750303" stroke="#231010"/>
<path d="M61.8651 117.249L57.2214 113.98L60.8757 111.657L61.8651 117.249Z" fill="#C4C4C4"/>
<path d="M65.3495 135.696L65.9677 141.341L61.8087 140.136L65.3495 135.696Z" fill="#C4C4C4"/>
<path d="M71.4032 135.689L74.9314 140.139L70.7691 141.332L71.4032 135.689Z" fill="#C4C4C4"/>
<path d="M75.0758 117.205L76.2039 111.64L79.7993 114.053L75.0758 117.205Z" fill="#C4C4C4"/>
</g>
<defs>
<clipPath id="clip0">
<rect width="246" height="164" fill="white"/>
</clipPath>
</defs>
</svg>
