<svg width="195" height="146" viewBox="0 0 195 146" fill="none" xmlns="http://www.w3.org/2000/svg">
<path d="M166.684 138.579L187.713 103.743C190.063 99.8506 188.812 94.7902 184.92 92.4404C181.027 90.0906 175.967 91.3413 173.617 95.2338L152.588 130.07C150.238 133.963 151.488 139.023 155.381 141.373C159.274 143.723 164.334 142.472 166.684 138.579Z" fill="#F9B86D"/>
<path d="M27.9926 46.8678L47.2517 14.964C49.4037 11.3992 47.9927 6.6044 44.1001 4.25462C40.2076 1.90484 35.3075 2.88985 33.1556 6.45471L13.8964 38.3585C11.7445 41.9234 13.1555 46.7181 17.048 49.0679C20.9406 51.4177 25.8406 50.4327 27.9926 46.8678Z" fill="#F9B86D"/>
<path d="M138.751 27H37.2487C16.6768 27 0 42.67 0 62V90C0 109.33 16.6768 125 37.2487 125H138.751C159.323 125 176 109.33 176 90V62C176 42.67 159.323 27 138.751 27Z" fill="#C99B7A"/>
<path d="M94.7488 131.827L135.284 135.386C139.814 135.783 143.808 132.434 144.206 127.905C144.603 123.375 141.254 119.381 136.725 118.983L96.1889 115.424C91.6595 115.027 87.6654 118.376 87.2677 122.905C86.87 127.435 90.2194 131.429 94.7488 131.827Z" fill="#F9B86D"/>
<path d="M171.986 73.5014L174.083 82.1359C175.274 87.0413 180.217 90.0521 185.122 88.8606L185.122 88.8606C190.028 87.6692 193.038 82.7267 191.847 77.8213L189.75 69.1867C188.558 64.2813 183.616 61.2706 178.71 62.462L178.71 62.462C173.805 63.6535 170.794 68.596 171.986 73.5014Z" fill="#F9B86D"/>
<path d="M159.371 59.9263L172.618 75.4075C175.901 79.2428 181.67 79.6914 185.506 76.4093L185.506 76.4093C189.341 73.1272 189.79 67.3573 186.508 63.5219L173.26 48.0407C169.978 44.2053 164.208 43.7568 160.372 47.0389C156.537 50.321 156.088 56.0909 159.371 59.9263Z" fill="#F9B86D"/>
<path d="M145.978 34.9999H116.978C91.297 34.9999 70.4783 55.8186 70.4783 81.4999C70.4783 107.181 91.297 128 116.978 128H131.478H145.978C171.66 128 192.478 107.181 192.478 81.4999C192.478 55.8186 171.66 34.9999 145.978 34.9999Z" fill="#D89464"/>
<path d="M95.0887 19.4996C95.0899 18.9728 95.7998 18.8058 96.0357 19.2768L113.101 53.3381C113.246 53.6268 113.083 53.9748 112.769 54.0488L95.6145 58.0848C95.3002 58.1587 94.9993 57.9198 95 57.5969L95.0887 19.4996Z" fill="#BE9464"/>
<path d="M174.384 19.2734C174.623 18.8043 175.332 18.9767 175.329 19.5034L175.123 57.6003C175.121 57.9232 174.818 58.1599 174.504 58.0835L157.382 53.9147C157.068 53.8383 156.908 53.489 157.055 53.2015L174.384 19.2734Z" fill="#BC9160"/>
<path d="M107.5 81C111.09 81 114 78.0899 114 74.5C114 70.9101 111.09 68 107.5 68C103.91 68 101 70.9101 101 74.5C101 78.0899 103.91 81 107.5 81Z" fill="#D8C5C5"/>
<path d="M107.5 81C111.09 81 114 78.0899 114 74.5C114 70.9101 111.09 68 107.5 68C103.91 68 101 70.9101 101 74.5C101 78.0899 103.91 81 107.5 81Z" stroke="black"/>
<path d="M154.5 81C158.09 81 161 78.0899 161 74.5C161 70.9101 158.09 68 154.5 68C150.91 68 148 70.9101 148 74.5C148 78.0899 150.91 81 154.5 81Z" fill="#D8C5C5"/>
<path d="M154.5 81C158.09 81 161 78.0899 161 74.5C161 70.9101 158.09 68 154.5 68C150.91 68 148 70.9101 148 74.5C148 78.0899 150.91 81 154.5 81Z" stroke="black"/>
<path d="M132.5 85H129.5C127.015 85 125 87.0147 125 89.5C125 91.9853 127.015 94 129.5 94H132.5C134.985 94 137 91.9853 137 89.5C137 87.0147 134.985 85 132.5 85Z" fill="#443030"/>
<path d="M131 94V97" stroke="black" stroke-width="4"/>
<path d="M128 97V100" stroke="black" stroke-width="4"/>
<path d="M134 97V100" stroke="black" stroke-width="4"/>
<path d="M107.5 79.5C109.157 79.5 110.5 77.2614 110.5 74.5C110.5 71.7386 109.157 69.5 107.5 69.5C105.843 69.5 104.5 71.7386 104.5 74.5C104.5 77.2614 105.843 79.5 107.5 79.5Z" fill="#312828"/>
<path d="M154.5 79.5C156.157 79.5 157.5 77.2614 157.5 74.5C157.5 71.7386 156.157 69.5 154.5 69.5C152.843 69.5 151.5 71.7386 151.5 74.5C151.5 77.2614 152.843 79.5 154.5 79.5Z" fill="#312828"/>
</svg>
