<svg width="246" height="164" viewBox="0 0 246 164" fill="none" xmlns="http://www.w3.org/2000/svg">
<path d="M104.088 136.483L95.8376 111.655L82.7751 102L75.2126 107.517V125.448V136.483L79.3376 146.138L95.8376 155.793L109.588 162L119.213 158.552L117.15 146.138L104.088 136.483Z" fill="#F1F1F1" stroke="black"/>
<path d="M119.213 150.588C119.213 145.729 134.265 136.012 136.318 136.012L159.581 108.247L210.213 102V112.412L203.371 129.071C199.721 131.384 192.013 136.567 190.371 138.788C188.318 141.565 176.686 145.035 174.634 146.424C172.581 147.812 167.107 150.588 165.739 150.588C164.371 150.588 141.107 161 138.371 161H124.002C121.949 161 119.213 155.447 119.213 150.588Z" fill="#EDEAEA" stroke="black"/>
<path d="M82.0402 3.13956L98.0183 31.1957L102.484 31.1913L112.047 24.1637L115.867 15.8658L112.026 3.10961L127.351 15.8543L138.831 11.3769L138.838 18.3949L149.684 18.384L142.678 31.1511L149.696 31.1441L154.155 24.1216L157.975 15.8238L166.256 3.05543L176.466 4.95924C179.449 10.4856 185.671 22.0485 186.694 24.0891C187.716 26.1297 191.807 33.8667 193.725 37.4801L201.394 50.2325L211.615 63.6204L221.837 77.0082L211.63 78.2944L219.924 78.2861L211.637 85.3124L219.928 82.1141L216.109 91.05L207.192 106.371L178.501 125.54C169.572 128.951 151.332 135.775 149.801 135.776L112.159 135.814L82.1651 128.188L45.7773 106.532L43.8652 108.448L43.8569 100.154L34.2894 102.716L36.83 91.2291L31.088 91.2348L36.8211 82.2971L34.2652 78.4716L43.8289 72.082L52.1095 58.6757C54.6556 52.7185 59.7471 40.166 59.7445 37.614C59.742 35.062 63.5587 23.7868 65.4674 18.4682L82.0402 3.13956Z" fill="#F1F1F1" stroke="black"/>
<path d="M76.9978 65.0308L83.3663 53.5404L94.2124 53.5295L98.6835 58.6291L98.6924 67.5611L89.1281 73.3127L76.9978 65.0308Z" fill="#FFF4F4" stroke="black"/>
<path d="M151.006 64.9571L157.375 53.4666L168.221 53.4558L172.692 58.5554L172.701 67.4874L163.136 73.239L151.006 64.9571Z" fill="#FFF4F4" stroke="black"/>
<path d="M83.375 61.8346L88.4707 53.5354L94.2229 63.7377L89.1285 73.3129L83.375 61.8346Z" fill="#C24A4A" stroke="black"/>
<path d="M157.383 61.7606L162.479 53.4615L168.231 63.6637L163.137 73.2389L157.383 61.7606Z" fill="#C24A4A" stroke="black"/>
<path d="M114.656 80.9432L119.116 75.1967L119.115 73.9207L133.151 73.9067L138.258 77.0916L138.262 80.9196L131.887 85.392L123.593 85.4003L114.656 80.9432Z" fill="#433434" stroke="black"/>
<path d="M128.71 98.7933C131.262 98.2804 143.804 93.4615 149.757 91.1162M149.757 91.1162L149.752 86.6502M149.757 91.1162L159.965 91.106" stroke="black"/>
<path d="M149.899 91.0693L151.123 100.085L145.933 92.6123L149.899 91.0693Z" fill="white" stroke="black"/>
<path d="M134.594 97.4644L135.818 106.48L130.627 99.0075L134.594 97.4644Z" fill="white" stroke="black"/>
<path d="M68.4373 39C67.4364 32.473 69.9338 25.9214 72.8867 20.1523C74.6449 16.7173 75.9801 17.7697 78.2975 20.6758C81.3983 24.5644 85.494 27.9649 88.2126 32.0561" stroke="black" stroke-linecap="round" stroke-linejoin="round"/>
<path d="M162.213 30.8843C162.213 27.2253 166.339 4.79379 172.338 14.3507C175.953 20.1096 178.213 26.2088 178.213 33" stroke="black" stroke-linecap="round" stroke-linejoin="round"/>
<path d="M118.213 152C114.576 152 110.251 151.62 108.213 147" stroke="black" stroke-linecap="round" stroke-linejoin="round"/>
<path d="M113.213 160C111.754 158.814 110.594 157.196 109.342 155.79C108.849 155.238 108.516 154.644 108.213 154" stroke="black" stroke-linecap="round" stroke-linejoin="round"/>
<path d="M119.213 152.088C120.784 153.721 123.351 152.862 124.986 151.831C125.831 151.298 127.955 150.56 128.213 149" stroke="black" stroke-linecap="round" stroke-linejoin="round"/>
<path d="M121.213 159C123.257 159 124.881 158.311 126.768 157.409C127.484 157.067 128.185 156.455 128.73 155.795C128.949 155.53 128.978 155.142 129.213 155" stroke="black" stroke-linecap="round" stroke-linejoin="round"/>
</svg>
