<svg width="246" height="164" viewBox="0 0 246 164" fill="none" xmlns="http://www.w3.org/2000/svg">
<g clip-path="url(#clip0)">
<path d="M234.5 102.5L224 117.5L208.5 86.5V79.5L203 75L198.5 73.5C194.833 72.8333 187.2 71.4 186 71C184.5 70.5 172.5 68 170.5 67.5C168.9 67.1 164.5 64.6667 162.5 63.5L150 54L144.5 48C143.167 46.8333 140.5 44.3 140.5 43.5V40.5L137 34V28.5V22L140.5 12.5L144.5 5.5L153.5 4L162.5 5.5L168 12.5L166 22L162.5 32L174 48L201.5 50.5H212.5L234.5 65.5L239.5 82.5L234.5 102.5Z" fill="#524B4B" stroke="black"/>
<path d="M146.775 52L111.458 59.5L38 143.5L48.3595 154L193.392 150H207.519L220.704 143.5L224 130.5V117.5L214.111 99.5V87L207.519 74L193.392 85L188.684 74L167.494 62.5L188.684 68.5L177.382 52H146.775Z" fill="#A49797" stroke="black"/>
<path d="M190.642 28.2235L179.87 48.5281L165.891 61.7715L201.055 92.9082L202.962 84.1821L204.371 77.7323L197.816 58.8094C200.255 55.4997 204.653 48.537 202.736 47.1641C200.819 45.7912 200.769 38.6515 200.983 35.2533L210.023 26.4958L207.93 12.5229L184.05 11.2802L180.549 20.0555L190.642 28.2235Z" fill="#A09A9A" stroke="black"/>
<path d="M65 160.5L48.5 154.5L42 145V142.5L50.5 139.5L61 142.5L75.5 149.5H90.5L95 154.5V158.5L81 160.5H65Z" fill="#9C9797" stroke="black"/>
<path d="M142.5 72L120.5 78L111.5 62.5L117 59.5L147.5 52.5L159 48.5L167.5 52.5L157 65.5L142.5 72Z" fill="#9C9797" stroke="black"/>
<path d="M11.5 65L24 52H40V30.5L51.5 13H77.5L87.5 30.5V52H107L121.5 65L126.5 73H22.5H8.5L11.5 65Z" fill="#F1D795"/>
<path d="M40 52H24L11.5 65L8.5 73H22.5H126.5L121.5 65L107 52H87.5M40 52V30.5L51.5 13H77.5L87.5 30.5V52M40 52H87.5" stroke="black"/>
<path d="M8 88L17.5 74L86 66L119.5 74L122.5 88C129.333 93 143.8 103.9 147 107.5C150.2 111.1 125.333 109 112.5 107.5L119.5 119.5C123 124.833 130.1 136.7 130.5 141.5C130.9 146.3 110.667 139.5 100.5 135.5L96.5 149L77 146L72 158.5L42 146C40.5 148.667 37.1 154.4 35.5 156C33.9 157.6 29.1667 150 27 146L8 149V146L23 129H8L17.5 113.5H12L17.5 100L8 103L17.5 86L8 88Z" fill="#B3ADAD" stroke="black"/>
<path d="M41.5 119.5L39 113L27.5 116.5L25 119.5L28.5 121.5L26.5 124.5L31 126.5V129.5H35.5L40.5 124.5L41.5 119.5Z" fill="#611B1B" stroke="black"/>
<path d="M87.8088 151.403C89.0073 151.403 90.2058 151.403 91.4042 151.403" stroke="black" stroke-linecap="round" stroke-linejoin="round"/>
<path d="M90.1716 154.691C90.6117 154.532 90.9277 154.302 91.3244 154.074C91.6003 153.916 91.9406 153.878 92.2033 153.72C92.4816 153.553 92.7146 153.355 93.0479 153.355" stroke="black" stroke-linecap="round" stroke-linejoin="round"/>
<path d="M91.7124 157.053C92.218 156.957 92.5745 156.824 93.0421 156.648C93.19 156.593 93.5349 156.602 93.6414 156.517C93.8246 156.37 94.3401 156.232 94.5887 156.232" stroke="black" stroke-linecap="round" stroke-linejoin="round"/>
<path d="M161.339 53.0411C162.161 53.2175 162.999 53.6338 163.699 54.091C164.006 54.2917 164.523 54.6563 164.892 54.6563" stroke="black" stroke-linecap="round" stroke-linejoin="round"/>
<path d="M159.643 56.7559C160.45 56.7559 161.258 56.7559 162.065 56.7559C162.491 56.7559 162.953 56.702 163.357 56.8367" stroke="black" stroke-linecap="round" stroke-linejoin="round"/>
<path d="M156.978 60.2285C157.838 59.8759 158.705 59.6383 159.593 59.3806C159.857 59.304 160.109 59.185 160.387 59.1787C160.551 59.175 160.736 59.208 160.89 59.1383C161.048 59.0665 161.248 59.0979 161.419 59.0979C161.617 59.0979 161.764 58.9364 161.985 58.9364" stroke="black" stroke-linecap="round" stroke-linejoin="round"/>
<path d="M212.956 133.365L196.542 125.174L194.825 126.419L161.312 130.181L164.912 152.022L173.128 151.309L202.931 158.094L213.021 155.148L237.605 143.885L244.867 123.778L232.976 115.803L225.653 126.785L212.956 133.365Z" fill="#A09A9A" stroke="black"/>
<path d="M181.235 20.5342C180.354 20.3623 179.242 20.0502 178.352 20.0254C177.927 20.0136 176.683 20.0788 176.486 19.6863" stroke="black" stroke-linecap="round" stroke-linejoin="round"/>
<path d="M181.404 18.16C180.149 17.9592 178.623 17.8718 177.504 17.3121" stroke="black" stroke-linecap="round" stroke-linejoin="round"/>
<path d="M244.286 123.679C244.678 122.894 245.031 122.153 245.108 121.269C245.148 120.807 245.45 120.459 245.45 120.022" stroke="black" stroke-linecap="round" stroke-linejoin="round"/>
<path d="M242.458 121.85C242.458 120.853 242.458 119.856 242.458 118.858" stroke="black" stroke-linecap="round" stroke-linejoin="round"/>
<path d="M238.967 120.022C238.967 118.581 238.967 117.141 238.967 115.7" stroke="black" stroke-linecap="round" stroke-linejoin="round"/>
<path d="M156.5 16.5L140 15L138 18.5L157.5 24L156.5 16.5Z" fill="#C5C4C4"/>
<path d="M152 28L137 30V32L154.5 34L152 28Z" fill="#C5C4C4"/>
<path d="M152 36.5L141 43.5L142.5 45.5L157 42L152 36.5Z" fill="#C5C4C4"/>
<path d="M156.5 16.5L140 15L138 18.5L157.5 24L156.5 16.5Z" stroke="#373333"/>
<path d="M152 28L137 30V32L154.5 34L152 28Z" stroke="#373333"/>
<path d="M152 36.5L141 43.5L142.5 45.5L157 42L152 36.5Z" stroke="#373333"/>
<circle cx="44" cy="93" r="5.5" fill="#F8EEEE"/>
<circle cx="44" cy="93" r="5.5" fill="#F8EEEE"/>
<circle cx="44" cy="93" r="5.5" fill="#F8EEEE"/>
<circle cx="44" cy="93" r="5.5" stroke="black"/>
<circle cx="89" cy="93" r="5.5" fill="#F8EEEE"/>
<circle cx="89" cy="93" r="5.5" fill="#F8EEEE"/>
<circle cx="89" cy="93" r="5.5" fill="#F8EEEE"/>
<circle cx="89" cy="93" r="5.5" stroke="black"/>
<rect x="60.5" y="98.5" width="14" height="7" rx="3.5" fill="#414552" stroke="black"/>
<ellipse cx="89" cy="93" rx="3" ry="5" fill="#253E21"/>
<ellipse cx="89" cy="93" rx="3" ry="5" fill="#253E21"/>
<ellipse cx="44" cy="93" rx="3" ry="5" fill="#253E21"/>
<ellipse cx="44" cy="93" rx="3" ry="5" fill="#253E21"/>
<path d="M43.5 87H45H49H38" stroke="black"/>
<path d="M88.5 87H90H94H83" stroke="black"/>
<path d="M67.7647 105V109M67.7647 109L63 113M67.7647 109L72 112.333" stroke="black"/>
<path d="M39 113L97.5 107" stroke="black"/>
<path d="M32 109L39 112.5L33 125V122L31 123L29 122L31 119H29V116.5L27.5 117L24.5 116.5L26 113.5H23.5V110L32 109Z" fill="#782B2B" stroke="black"/>
<path d="M71.5 118.5L75.5 110L78 118.5L75 121L71.5 118.5Z" fill="#13210C" stroke="black"/>
<path d="M84.6936 110.884L75.5347 108.795L83.3031 104.535L86.387 106.931L84.6936 110.884Z" fill="#13210C" stroke="black"/>
<path d="M64.8074 108.59L66.8342 109.896L65.4358 110.918L64.8074 108.59Z" fill="#C4C4C4"/>
<path d="M71.2749 108.463L71.0013 110.858L69.4659 110.057L71.2749 108.463Z" fill="#C4C4C4"/>
<path d="M136.406 86.6628C135.949 86.5422 135.549 86.3447 135.067 86.3353C134.547 86.3252 134.055 86.5838 133.63 86.8612C132.8 87.4018 132.122 88.2502 132.221 89.2929C132.254 89.6412 132.491 90.0294 132.701 90.3008C132.95 90.6214 133.206 90.9344 133.576 91.1191C134.529 91.5963 135.679 91.6333 136.721 91.536C137.189 91.4923 137.629 91.3015 138.081 91.1822C138.61 91.0425 139.134 90.9209 139.685 90.9625C140.058 90.9906 140.427 91.0588 140.8 91.092C140.965 91.1067 141.121 91.1754 141.286 91.1793C141.327 91.1803 141.551 91.2709 141.578 91.25C141.636 91.2059 141.399 90.2454 141.378 90.1395C141.25 89.5054 141.084 88.8934 141.016 88.2475C140.965 87.7603 140.817 87.286 140.773 86.7966C140.724 86.2603 140.721 85.7261 140.738 85.1881C140.759 84.539 140.679 83.9205 140.484 83.2968C140.338 82.8266 140.14 82.4518 139.785 82.1195C139.488 81.8414 139.084 81.8989 138.706 81.9658C137.715 82.1409 136.832 82.6937 136.101 83.3646C135.693 83.7396 135.323 84.3083 135.342 84.8888C135.356 85.3238 135.598 85.6173 135.771 85.9932C135.85 86.1667 135.953 86.2894 136.093 86.4205C136.296 86.61 136.499 86.7995 136.701 86.9891" stroke="#0D142D" stroke-linecap="round" stroke-linejoin="round"/>
<path d="M138.553 93.4146C138.887 93.4443 139.166 93.7252 139.462 93.8661C139.887 94.0683 140.313 94.2688 140.738 94.4715C140.886 94.5423 141.149 94.6924 141.321 94.6924C141.518 94.6924 141.59 94.4275 141.712 94.3019C141.828 94.1821 141.93 94.0609 142.012 93.9135C142.051 93.8418 142.044 93.734 142.138 93.734" stroke="black" stroke-linecap="round" stroke-linejoin="round"/>
<path d="M142.741 91.9237C143.006 92.0827 143.265 92.2533 143.534 92.4049C143.646 92.4678 143.753 92.5671 143.877 92.5981" stroke="black" stroke-linecap="round" stroke-linejoin="round"/>
<path d="M142.99 90.4684C142.99 89.9649 142.99 89.4614 142.99 88.9579C142.99 88.7319 143.238 88.9958 143.319 89.0545C143.662 89.3056 144.01 89.5535 144.366 89.7861C144.537 89.8982 144.698 90.082 144.887 90.1628C145.045 90.2306 145.19 89.4972 145.218 89.376C145.298 89.0236 145.298 88.6495 145.368 88.3032" stroke="black" stroke-linecap="round" stroke-linejoin="round"/>
<path d="M144.942 86.1734C145.038 86.3097 145.133 86.49 144.934 86.5599C144.678 86.6497 144.467 86.6933 144.196 86.6625C143.836 86.6215 143.345 86.4035 143.167 86.067C143.031 85.8097 142.712 85.1017 143.017 84.8522C143.227 84.6802 143.665 84.9374 143.861 84.9942C144.119 85.0687 144.355 85.2319 144.622 85.2782C144.931 85.3315 145.285 85.2703 145.36 84.9311C145.412 84.6986 145.403 84.4583 145.403 84.2212" stroke="black" stroke-linecap="round" stroke-linejoin="round"/>
<path d="M140.392 77.6885C139.83 79.0342 139.649 80.4023 139.301 81.7928" stroke="black" stroke-linecap="round" stroke-linejoin="round"/>
<path d="M139.561 76.2338C139.815 76.4451 139.995 76.7142 140.182 76.9842C140.255 77.0909 140.346 77.342 140.49 77.3652C140.943 77.4379 141.489 77.2502 141.936 77.1978C142.234 77.163 142.553 77.1588 142.834 77.065" stroke="black" stroke-linecap="round" stroke-linejoin="round"/>
<path d="M136.236 91.9758C136.226 92.6737 136.106 93.3814 136.08 94.0655C136.076 94.1832 136.135 94.3609 135.976 94.3657C135.74 94.3729 135.483 94.2698 135.26 94.1983C135.016 94.1197 135.48 94.1991 135.549 94.2214C135.681 94.2638 135.785 94.3138 135.924 94.3138C136.288 94.3138 136.568 94.002 136.911 94.002" stroke="black" stroke-linecap="round" stroke-linejoin="round"/>
<path d="M135.114 94.2296C135.362 94.6373 135.568 95.063 135.74 95.5044C135.777 95.5999 135.865 95.6728 135.898 95.7707C135.931 95.8683 135.963 95.8231 136.021 95.7497C136.223 95.4905 136.448 95.2128 136.582 94.9106C136.688 94.6721 136.77 94.4308 136.886 94.2006" stroke="black" stroke-linecap="round" stroke-linejoin="round"/>
</g>
<defs>
<clipPath id="clip0">
<rect width="246" height="164" fill="white"/>
</clipPath>
</defs>
</svg>
