<svg width="246" height="164" viewBox="0 0 246 164" fill="none" xmlns="http://www.w3.org/2000/svg">
<path d="M194 142L198 136L228.5 103.5L231.5 110L228.5 117L220.5 131L210.5 145L208 147.5L206 152L204.5 147.5L201.5 152L201 147.5L197.5 150.5V145L195 147.5L194 142Z" fill="#515151" stroke="black"/>
<path d="M132 128L137 124.5L186.5 134L187.5 143L181 140L184.5 144.5L177 143L179 147.5L171.5 144.5L161.5 143L148.5 141.5H139.5L133.5 139L130 133L132 128Z" fill="#6A6A6A" stroke="black"/>
<path d="M68 37.5L56.5 44.5L45 61.5L47 66.5L43 70.5V81H47L43 88V100L47 97L45 102L47 114.5L52 110L50 118.5L58 127L68 129.5L92.5 133.5L94 129.5L114 133.5L118.5 129.5L130.5 133.5L205 44.5L203 42.5L186.5 35.5L177 37.5L161 35.5L151 37.5L137 35.5L127 37.5L114 35.5L102 37.5L87 35.5L68 37.5Z" fill="#C4C4C4" stroke="black"/>
<path d="M202.371 68.9264L215.618 84.4076C218.901 88.243 224.67 88.6915 228.506 85.4094L228.506 85.4094C232.341 82.1273 232.79 76.3574 229.508 72.522L216.26 57.0408C212.978 53.2054 207.208 52.7569 203.372 56.039C199.537 59.3211 199.088 65.091 202.371 68.9264Z" fill="#F9B86D"/>
<path d="M120.5 66L135 52L147 46L150.5 44L206 46L216 55L222.5 60H218.5L229 67L233 80H231L235 92.5L233 102L227.5 98.5L231 109L224.5 112V120.5L216 123L211.5 131H203L199 135.5L188.5 133L183 135.5L175 133L165.5 135.5L159.5 133L150.5 135.5L144.5 131H137.5V120.5L127.5 124.5V112L120.5 115.5V98.5L114.5 102V92.5L122.5 80H114.5L120.5 66Z" fill="#C4C4C4" stroke="black"/>
<path d="M145.293 26.5611C145.478 26.0677 146.202 26.1587 146.259 26.6824L150.38 64.5562C150.415 64.8772 150.141 65.1466 149.82 65.1064L132.335 62.9091C132.015 62.8688 131.816 62.54 131.929 62.2376L145.293 26.5611Z" fill="#595148"/>
<path d="M206.399 26.5842C206.461 26.0613 207.185 25.9771 207.365 26.4722L220.39 62.274C220.5 62.5775 220.298 62.9045 219.977 62.9418L202.472 64.9728C202.152 65.01 201.88 64.7379 201.918 64.4174L206.399 26.5842Z" fill="#5E574F"/>
<path d="M150.5 90C154.09 90 157 87.0899 157 83.5C157 79.9101 154.09 77 150.5 77C146.91 77 144 79.9101 144 83.5C144 87.0899 146.91 90 150.5 90Z" fill="white"/>
<path d="M150.5 90C154.09 90 157 87.0899 157 83.5C157 79.9101 154.09 77 150.5 77C146.91 77 144 79.9101 144 83.5C144 87.0899 146.91 90 150.5 90Z" stroke="black"/>
<path d="M197.5 90C201.09 90 204 87.0899 204 83.5C204 79.9101 201.09 77 197.5 77C193.91 77 191 79.9101 191 83.5C191 87.0899 193.91 90 197.5 90Z" fill="white"/>
<path d="M197.5 90C201.09 90 204 87.0899 204 83.5C204 79.9101 201.09 77 197.5 77C193.91 77 191 79.9101 191 83.5C191 87.0899 193.91 90 197.5 90Z" stroke="black"/>
<path d="M175.5 94H172.5C170.015 94 168 96.0147 168 98.5C168 100.985 170.015 103 172.5 103H175.5C177.985 103 180 100.985 180 98.5C180 96.0147 177.985 94 175.5 94Z" fill="#1E1B1B"/>
<path d="M174 103V107" stroke="black" stroke-width="4"/>
<path d="M159 110.012L174.27 107" stroke="black" stroke-width="4"/>
<path d="M174 107L188.88 111.563" stroke="black" stroke-width="4"/>
<path d="M150.5 88.5C152.157 88.5 153.5 86.2614 153.5 83.5C153.5 80.7386 152.157 78.5 150.5 78.5C148.843 78.5 147.5 80.7386 147.5 83.5C147.5 86.2614 148.843 88.5 150.5 88.5Z" fill="#312828"/>
<path d="M197.5 88.5C199.157 88.5 200.5 86.2614 200.5 83.5C200.5 80.7386 199.157 78.5 197.5 78.5C195.843 78.5 194.5 80.7386 194.5 83.5C194.5 86.2614 195.843 88.5 197.5 88.5Z" fill="#312828"/>
<path d="M33 21.5L37.5 13.5L42 12L52 14.5L50.5 21.5L54.5 23.5V28L60.5 31.5L56.5 35.5L60.5 40V46L47 56L46 47.5L42 43.5L40 35.5L37.5 33V25L33 21.5Z" fill="#C4C4C4" stroke="black"/>
<path d="M148 36.5C146.8 33.3 146.167 27.5 146 25L142 34.5L138 40.5L139 42.5L132.5 49.5H136.5L132.5 56.5H134.5L132.5 61.5L150 64V59.5V56.5V53C149.333 51.5 148 48.4 148 48V42.5C148.5 41.8333 149.2 39.7 148 36.5Z" fill="#888686" stroke="black"/>
<path d="M213.647 35.1266L206.765 25L204.118 31.0759L202 39.6835L204.118 42.7215L202 53.3544H204.118L202 56.8987L203.059 65L220 61.962V56.8987V53.3544L216.294 49.3038L217.882 46.2658L213.647 42.7215L216.294 39.6835L210.471 35.1266H213.647Z" fill="#848484" stroke="black"/>
</svg>
