<svg width="246" height="164" viewBox="0 0 246 164" fill="none" xmlns="http://www.w3.org/2000/svg">
<path d="M149.5 111L126 129L101 119L113 102L133.5 94.5C134.5 94.1667 136.8 93.3 138 92.5C139.5 91.5 142.5 86.5 142.5 84.5C142.5 82.5 139 78 138 77.5C137 77 132.5 72.5 131.5 71C130.7 69.8 127.5 65.1667 126 63L130 58.5L139 57.5C141.333 57.8333 146.4 58.5 148 58.5C149.6 58.5 153.333 61.5 155 63C156.5 67.5 159.5 76.8 159.5 78C159.5 79.2 158.5 91.1667 158 97L149.5 111Z" fill="#F4F2F2" stroke="black"/>
<path d="M59 148L61 139V137.5L62.5 130L79 127.5L122.5 123L124.5 127.5L127 133L129.5 142L131 146.5V152L129.5 155C128.167 155.667 125.3 157 124.5 157H119L114.5 155L111.5 152L108.5 150C107.667 149.333 105.8 147.7 105 146.5C104 145 100.5 143 99 143C97.8 143 95.1667 142.333 94 142L87 143L75.5 152L69.5 157H61L54 155V152L59 148Z" fill="#FFF4F4" stroke="black"/>
<path d="M129 93.5L120 91L95.5 93.5L74 100L62 104.5L55 115C54.2 116.2 52.6667 122.5 52 125.5L67.5 132L72 134H81.5H93C97.5 133.333 106.7 132 107.5 132C108.3 132 111.5 130.667 113 130L120 127.5L122 123L120.5 118L120 113.5L122 110.5L124 112L126 116.5L131.5 119L134 116.5L140 112V106L137 102L134 98.5L129 93.5Z" fill="#FF9C9C" stroke="black"/>
<path d="M77.5 20C77.9 19.2 80.3333 9 81.5 4H85.5L83 9L89.5 4L93.3028 6.11268L97 4H100.5L116 10L119.5 12.5L122 15.5V17.5L117 15L128 30L129.5 36.5L122 43L77.5 20Z" fill="#552323"/>
<path d="M77.5 20C77.9 19.2 80.3333 9 81.5 4H85.5L83 9L89.5 4L94 6.5L86.5 10L97 4H100.5L116 10L119.5 12.5L122 15.5V17.5L117 15L128 30L129.5 36.5L122 43L77.5 20Z" stroke="black"/>
<path d="M126 86C127.167 84.3333 129.6 80.7 130 79.5L116 52.5L115 48L110.5 38L107.5 36L105.5 31V18L107.5 4H104.5L88 20.5H77L79 4L70.5 7L62 17L53.5 29.5L48 44H45.5L41.5 55.5L34 73L32.5 78.5L79 105.5L93 103L106 98L118 91.5L122 90L126 86Z" fill="#F0F0F0" stroke="black"/>
<path d="M47 57.5L41.5 55L45 46.5L47 43.5L50 41.5L52.5 36.5C54.8333 35.8333 59.8 34.5 61 34.5C62.2 34.5 67.1667 30.1667 69.5 28L76 25L78.5 21H84L88.5 23.5L92 28L95.5 30.5L101 34.5L106 36.5L111.5 38.5L117 43.5L122.5 46.5L123.5 57.5L128 66.5L130.5 72.5V79.5H123.5L114.5 81V77.5V70.5C114.5 69.3 112.5 64 111.5 61.5L109.5 55L106 50.5L101 52.5L95.5 55L86 57.5L72 59L57.5 57.5H47Z" fill="#F0B3B3" stroke="black"/>
<path d="M84.5 83L80 86.5H72L71 81.5V76L75 75H81L84.5 79V83Z" fill="#2E1E1E" stroke="black"/>
<path d="M67.0649 122.885C67.0137 122.997 66.9448 123.077 66.8581 123.125C66.7714 123.172 66.6798 123.193 66.5834 123.186C66.4933 123.171 66.4074 123.135 66.3257 123.078C66.2426 123.013 66.1868 122.924 66.1583 122.81C66.1235 122.706 66.1033 122.638 66.0978 122.607C66.0713 122.548 66.0486 122.489 66.0298 122.429C66.011 122.369 65.9884 122.309 65.9619 122.25C65.9034 122.102 65.8449 121.954 65.7864 121.806C65.7355 121.656 65.677 121.508 65.6108 121.361C65.4554 120.984 65.2976 120.616 65.1373 120.256C64.9756 119.888 64.8178 119.52 64.6638 119.151C64.5168 118.82 64.3697 118.489 64.2227 118.158C64.0742 117.82 63.9265 117.486 63.7794 117.155C63.7279 117.045 63.6801 116.935 63.6362 116.823C63.5924 116.712 63.5446 116.602 63.493 116.492C63.4666 116.433 63.4394 116.371 63.4115 116.304C63.3822 116.23 63.3659 116.162 63.3625 116.099C63.3543 115.965 63.381 115.849 63.4426 115.751C63.5105 115.643 63.6098 115.578 63.7405 115.554C63.8558 115.533 63.9718 115.56 64.0884 115.634C64.2113 115.699 64.2768 115.799 64.2851 115.932C64.3011 115.977 64.3119 116.015 64.3174 116.045C64.3307 116.075 64.3484 116.107 64.3708 116.143C64.416 116.262 64.4606 116.377 64.5045 116.488C64.5561 116.598 64.6038 116.708 64.6477 116.819C64.7975 117.165 64.9467 117.508 65.0951 117.846C65.2498 118.175 65.4014 118.509 65.5499 118.848C65.7039 119.217 65.8571 119.582 66.0097 119.943C66.17 120.304 66.3272 120.668 66.4812 121.037C66.5104 121.111 66.539 121.182 66.5669 121.248C66.5947 121.314 66.6226 121.381 66.6505 121.447C66.8334 121.009 67.0041 120.57 67.1625 120.128C67.3272 119.678 67.4752 119.222 67.6064 118.762C67.7671 118.201 67.8974 117.626 67.9974 117.036C68.0973 116.447 68.1144 115.86 68.0487 115.276C68.0342 115.152 68.0623 115.044 68.133 114.952C68.2037 114.859 68.2876 114.797 68.3848 114.763C68.4819 114.73 68.5815 114.732 68.6835 114.769C68.7917 114.797 68.8731 114.873 68.9274 114.999C69.147 115.467 69.3525 115.946 69.5441 116.435C69.7434 116.923 69.942 117.407 70.1398 117.888C70.3454 118.367 70.5618 118.84 70.7891 119.307C71.024 119.772 71.2914 120.22 71.5914 120.65C71.7616 120.318 71.9028 119.979 72.015 119.633C72.1258 119.28 72.2024 118.912 72.2448 118.532C72.321 117.899 72.3344 117.269 72.2848 116.643C72.2415 116.008 72.1944 115.373 72.1435 114.739C72.1366 114.614 72.1633 114.498 72.2236 114.391C72.2915 114.284 72.3908 114.218 72.5215 114.195C72.6368 114.174 72.7527 114.201 72.8694 114.275C72.9923 114.34 73.0578 114.439 73.0661 114.573C73.1204 115.269 73.1741 115.962 73.2271 116.651C73.2787 117.333 73.2597 118.019 73.1701 118.71C73.0891 119.272 72.9505 119.802 72.7542 120.297C72.5657 120.792 72.3244 121.28 72.0303 121.762C71.9498 121.888 71.8274 121.957 71.6632 121.971C71.5053 121.976 71.3799 121.919 71.2871 121.801C71.0129 121.469 70.7635 121.121 70.5389 120.757C70.3143 120.393 70.1083 120.021 69.9208 119.642C69.7333 119.263 69.5566 118.878 69.3907 118.487C69.2235 118.089 69.0608 117.694 68.9027 117.301C68.7986 117.868 68.6662 118.432 68.5055 118.993C68.3167 119.662 68.0983 120.321 67.8501 120.969C67.6006 121.609 67.3389 122.248 67.0649 122.885ZM74.7114 121.837C74.5661 121.824 74.4599 121.764 74.393 121.657C74.326 121.55 74.2982 121.44 74.3095 121.326C74.3208 121.213 74.3664 121.114 74.4461 121.028C74.5322 120.933 74.6479 120.892 74.7932 120.906C75.1174 120.942 75.4353 120.945 75.747 120.912C76.0587 120.88 76.3746 120.826 76.6947 120.753C76.4655 120.231 76.3016 119.696 76.203 119.151C76.103 118.597 76.023 118.044 75.9628 117.491C75.909 116.929 75.8513 116.368 75.7898 115.808C75.736 115.246 75.6398 114.691 75.5014 114.145C75.2079 114.19 74.9098 114.232 74.6072 114.271C74.3109 114.3 74.0132 114.322 73.7141 114.337C73.5806 114.345 73.4608 114.319 73.3547 114.259C73.2562 114.197 73.1952 114.101 73.1716 113.97C73.1508 113.855 73.1736 113.74 73.2401 113.624C73.3129 113.5 73.4161 113.434 73.5496 113.426C73.9102 113.4 74.2701 113.371 74.6293 113.338C74.9948 113.296 75.3537 113.239 75.7059 113.167C76.0582 113.096 76.4025 113.002 76.7387 112.885C77.0826 112.768 77.4165 112.616 77.7402 112.431C77.8486 112.371 77.9629 112.367 78.083 112.416C78.2108 112.465 78.3044 112.543 78.3636 112.651C78.4257 112.775 78.4318 112.897 78.3821 113.017C78.3386 113.128 78.2588 113.214 78.1428 113.275C77.6023 113.579 77.0241 113.806 76.4083 113.957C76.553 114.495 76.6523 115.044 76.7061 115.606C76.76 116.168 76.8131 116.726 76.8655 117.28C76.918 117.835 76.9935 118.385 77.0921 118.931C77.1983 119.475 77.3693 120.004 77.6048 120.517C77.8467 120.45 78.0847 120.383 78.3189 120.317C78.553 120.251 78.7879 120.188 79.0234 120.13C79.1681 120.096 79.2834 120.119 79.3693 120.198C79.4614 120.269 79.5179 120.362 79.5387 120.477C79.5596 120.593 79.5406 120.707 79.4817 120.821C79.4306 120.934 79.3327 121.007 79.188 121.041C78.8154 121.132 78.4443 121.231 78.0745 121.337C77.7138 121.45 77.3465 121.548 76.9725 121.631C76.6076 121.721 76.2348 121.789 75.8539 121.834C75.4807 121.877 75.0999 121.878 74.7114 121.837ZM79.038 114.078C79.0198 114.065 79.0017 114.053 78.9835 114.04C78.9731 114.026 78.9588 114.013 78.9406 114C78.8317 113.925 78.7682 113.837 78.7502 113.737C78.7384 113.628 78.7525 113.53 78.7924 113.443C78.8387 113.348 78.9044 113.272 78.9898 113.217C79.0814 113.153 79.1806 113.131 79.2875 113.152C79.4077 113.114 79.5286 113.124 79.6501 113.181C79.778 113.23 79.8564 113.335 79.8856 113.496C80.3624 113.894 80.8147 114.289 81.2426 114.68C81.6705 115.071 82.0725 115.495 82.4486 115.951C82.6209 116.158 82.7831 116.375 82.9352 116.601C83.0935 116.819 83.2449 117.041 83.3893 117.269C83.3324 116.954 83.2877 116.641 83.2552 116.329C83.2304 116.016 83.2081 115.694 83.1882 115.365C83.1534 114.688 83.1154 114.016 83.0743 113.349C83.0394 112.672 82.9648 111.995 82.8503 111.317C82.8239 111.171 82.8506 111.055 82.9304 110.969C83.0164 110.874 83.1171 110.817 83.2324 110.796C83.3478 110.775 83.4585 110.795 83.5646 110.855C83.6771 110.906 83.7465 111.005 83.7729 111.151C83.8901 111.844 83.9637 112.537 83.9936 113.23C84.0299 113.915 84.0668 114.603 84.1044 115.294C84.1284 115.647 84.1595 115.995 84.1975 116.337C84.2341 116.672 84.2875 117.012 84.3577 117.356C84.4251 117.686 84.4918 118.011 84.5578 118.333C84.6315 118.653 84.6905 118.979 84.7348 119.313C84.7479 119.429 84.7268 119.533 84.6715 119.622C84.6225 119.702 84.554 119.762 84.4659 119.802C84.3778 119.842 84.2848 119.854 84.187 119.84C84.0892 119.826 84.0012 119.779 83.9231 119.698C83.6976 119.46 83.497 119.207 83.3213 118.937C83.1441 118.659 82.9753 118.384 82.8149 118.111C82.6559 117.846 82.4952 117.594 82.3326 117.353C82.1687 117.105 81.9901 116.863 81.7969 116.628C81.5422 116.317 81.2749 116.024 80.995 115.749C80.7228 115.472 80.4366 115.207 80.1365 114.951C80.1934 115.266 80.2496 115.578 80.3052 115.885C80.3593 116.185 80.4225 116.491 80.4948 116.804C80.6102 117.354 80.7479 117.897 80.908 118.432C81.0667 118.959 81.2299 119.489 81.3977 120.023C81.4366 120.151 81.4106 120.27 81.3197 120.382C81.235 120.485 81.1388 120.546 81.0312 120.565C80.8928 120.59 80.7775 120.567 80.6854 120.497C80.5918 120.418 80.5256 120.315 80.4866 120.187C80.3112 119.655 80.1441 119.126 79.9854 118.599C79.8253 118.064 79.6876 117.521 79.5723 116.97C79.4694 116.489 79.3749 116.01 79.2889 115.533C79.2091 115.047 79.1255 114.562 79.038 114.078ZM87.456 115.654C86.9661 115.052 86.4816 114.456 86.0022 113.868C85.5292 113.271 85.0446 112.676 84.5484 112.082C84.457 111.972 84.4247 111.859 84.4514 111.743C84.4767 111.619 84.5306 111.522 84.6131 111.451C84.702 111.372 84.8054 111.329 84.9235 111.324C85.0493 111.317 85.1618 111.368 85.2609 111.477C85.706 112.008 86.1397 112.541 86.5618 113.076C86.9902 113.602 87.4193 114.132 87.8492 114.666C88.1274 113.965 88.369 113.258 88.5739 112.546C88.7864 111.833 88.9487 111.105 89.0607 110.362C89.0819 110.216 89.1459 110.109 89.2529 110.042C89.3599 109.975 89.47 109.947 89.5832 109.959C89.7041 109.968 89.8043 110.018 89.8838 110.107C89.9697 110.186 90.002 110.3 89.9809 110.446C89.859 111.31 89.6738 112.153 89.4255 112.976C89.1835 113.79 88.897 114.6 88.5663 115.406C88.9227 115.929 89.2883 116.414 89.663 116.863C90.0454 117.31 90.4432 117.754 90.8563 118.195C90.9554 118.305 90.9923 118.421 90.967 118.545C90.948 118.659 90.8941 118.756 90.8052 118.836C90.715 118.908 90.607 118.947 90.4812 118.954C90.3554 118.961 90.243 118.91 90.1439 118.8C89.7894 118.42 89.4425 118.038 89.1034 117.655C88.7705 117.262 88.4408 116.865 88.1143 116.464L87.6477 117.441C87.5826 117.564 87.5157 117.699 87.4471 117.846C87.377 117.986 87.3115 118.129 87.2506 118.275C87.1973 118.42 87.1562 118.566 87.1274 118.714C87.1063 118.861 87.1082 119.003 87.1332 119.142C87.1609 119.295 87.1356 119.419 87.0573 119.513C86.9775 119.598 86.88 119.652 86.7646 119.673C86.6493 119.693 86.5354 119.678 86.423 119.627C86.3092 119.568 86.2384 119.462 86.2106 119.308C86.1481 118.962 86.1698 118.621 86.2758 118.284C86.388 117.939 86.5197 117.613 86.671 117.308C86.8034 117.03 86.9365 116.756 87.0703 116.486C87.2027 116.208 87.3313 115.93 87.456 115.654ZM95.3742 116.177C95.1091 115.764 94.8997 115.33 94.7458 114.873C94.6588 114.611 94.5756 114.348 94.4962 114.085C94.4232 113.812 94.4008 113.534 94.4291 113.251C94.437 113.075 94.4578 112.905 94.4915 112.74C94.5239 112.567 94.5562 112.395 94.5886 112.222C94.6125 112.091 94.621 111.962 94.6142 111.837C94.615 111.709 94.6229 111.577 94.6377 111.439C94.6646 111.149 94.7369 110.889 94.8546 110.662C94.9708 110.426 95.144 110.221 95.3741 110.044C95.5889 109.87 95.8162 109.722 96.056 109.599C96.2958 109.477 96.5422 109.369 96.7953 109.275C97.0253 109.186 97.2574 109.109 97.4916 109.042C97.7334 108.975 97.9801 108.934 98.2317 108.921C98.3652 108.912 98.4812 108.939 98.5796 109.001C98.6857 109.061 98.7506 109.156 98.7742 109.287C98.795 109.402 98.769 109.522 98.6962 109.647C98.6297 109.762 98.5297 109.823 98.3962 109.832C98.3732 109.836 98.3501 109.84 98.327 109.844C98.3026 109.841 98.2788 109.841 98.2558 109.845C98.0223 109.871 97.7892 109.921 97.5565 109.995C97.33 110.06 97.1101 110.139 96.8969 110.233C96.7731 110.296 96.6494 110.358 96.5256 110.42C96.4005 110.474 96.2813 110.539 96.168 110.615C96.0903 110.669 96.0134 110.726 95.9372 110.788C95.8812 110.83 95.8438 110.864 95.8249 110.891C95.701 111.041 95.6258 111.174 95.5991 111.29C95.5724 111.405 95.5548 111.528 95.5462 111.656C95.544 111.776 95.5424 111.899 95.5416 112.026C95.5407 112.153 95.5308 112.274 95.5118 112.389C95.4781 112.554 95.445 112.722 95.4127 112.895C95.3803 113.068 95.3602 113.242 95.3523 113.418C95.3501 113.538 95.3632 113.654 95.3917 113.768C95.4202 113.882 95.4526 113.995 95.4888 114.108C95.5403 114.305 95.6008 114.508 95.6704 114.718C95.7478 114.926 95.8352 115.125 95.9328 115.314C96.0304 115.503 96.1459 115.68 96.2791 115.847C96.4187 116.004 96.5779 116.138 96.7566 116.249C96.978 116.375 97.2186 116.455 97.4785 116.487C97.737 116.512 97.9921 116.518 98.2436 116.504C98.5595 116.495 98.86 116.444 99.1452 116.353C99.4304 116.262 99.6878 116.104 99.9172 115.88C100.026 115.781 100.139 115.745 100.255 115.772C100.377 115.789 100.474 115.843 100.546 115.933C100.624 116.015 100.667 116.122 100.676 116.255C100.69 116.38 100.643 116.492 100.534 116.591C100.209 116.903 99.8396 117.121 99.4251 117.243C99.0169 117.357 98.5958 117.421 98.1618 117.436C97.8704 117.449 97.5832 117.441 97.3003 117.413C97.0159 117.377 96.7424 117.291 96.4799 117.156C96.0273 116.936 95.6588 116.61 95.3742 116.177ZM101.898 117.023C101.775 117.045 101.669 117.033 101.581 116.985C101.5 116.928 101.44 116.86 101.401 116.779C101.362 116.691 101.345 116.599 101.351 116.503C101.366 116.405 101.405 116.318 101.471 116.243C101.486 115.97 101.454 115.706 101.376 115.45C101.296 115.187 101.218 114.927 101.14 114.671C101.043 114.355 100.975 114.042 100.934 113.732C100.893 113.414 100.866 113.089 100.854 112.758C100.842 112.427 100.834 112.099 100.831 111.774C100.826 111.441 100.814 111.11 100.794 110.78C100.77 110.427 100.739 110.079 100.701 109.737C100.671 109.393 100.632 109.047 100.585 108.698C100.559 108.552 100.589 108.432 100.675 108.337C100.761 108.242 100.861 108.184 100.977 108.163C101.092 108.142 101.203 108.162 101.309 108.222C101.415 108.282 101.477 108.386 101.496 108.534C101.546 108.898 101.588 109.259 101.621 109.619C101.661 109.976 101.696 110.343 101.724 110.719C101.747 111.064 101.757 111.404 101.753 111.738C101.758 112.071 101.768 112.41 101.782 112.757C101.795 113.088 101.829 113.411 101.886 113.727C101.942 114.034 102.018 114.346 102.115 114.662C102.178 114.881 102.237 115.1 102.293 115.32C102.356 115.539 102.393 115.763 102.402 115.991C102.982 115.903 103.564 115.829 104.149 115.771C104.732 115.705 105.315 115.632 105.895 115.551C106.043 115.532 106.16 115.567 106.247 115.654C106.342 115.74 106.4 115.841 106.421 115.956C106.442 116.072 106.422 116.182 106.362 116.288C106.309 116.393 106.209 116.455 106.062 116.474C105.357 116.569 104.657 116.652 103.963 116.722C103.278 116.798 102.59 116.898 101.898 117.023ZM105.87 112.971C105.647 112.218 105.452 111.467 105.285 110.719C105.117 109.964 104.921 109.213 104.699 108.467C104.66 108.339 104.683 108.224 104.768 108.121C104.859 108.01 104.962 107.943 105.077 107.923C105.216 107.898 105.332 107.924 105.425 108.003C105.517 108.073 105.583 108.173 105.622 108.301C105.759 108.752 105.88 109.203 105.985 109.652C106.096 110.092 106.205 110.541 106.312 110.998C106.463 111.662 106.643 112.328 106.851 112.997C106.874 113.08 106.899 113.175 106.926 113.281C106.961 113.386 106.987 113.464 107.005 113.517C107.039 113.622 107.073 113.723 107.107 113.82C107.148 113.916 107.189 114.011 107.23 114.107C107.311 114.291 107.393 114.459 107.476 114.611C107.565 114.753 107.677 114.868 107.812 114.955L107.926 114.994C107.991 114.998 108.046 114.996 108.092 114.988C108.144 114.97 108.218 114.937 108.312 114.888C108.413 114.83 108.497 114.768 108.564 114.7C108.746 114.524 108.892 114.319 109.001 114.085C109.109 113.851 109.197 113.613 109.265 113.371C109.343 113.102 109.405 112.829 109.45 112.551C109.495 112.273 109.524 111.994 109.537 111.714C109.569 111.01 109.511 110.317 109.364 109.637C109.225 108.956 109.053 108.284 108.846 107.623C108.808 107.503 108.831 107.388 108.914 107.277C109.005 107.166 109.105 107.1 109.212 107.081C109.351 107.056 109.467 107.082 109.56 107.161C109.654 107.239 109.719 107.338 109.757 107.459C109.99 108.179 110.179 108.918 110.324 109.678C110.468 110.43 110.509 111.185 110.448 111.942C110.426 112.216 110.393 112.5 110.351 112.793C110.309 113.087 110.246 113.376 110.162 113.661C110.085 113.937 109.984 114.209 109.858 114.478C109.73 114.739 109.574 114.974 109.389 115.182C109.205 115.39 108.99 115.568 108.747 115.715C108.504 115.862 108.243 115.933 107.964 115.928C107.749 115.927 107.545 115.872 107.351 115.764C107.163 115.648 107.003 115.51 106.871 115.351C106.602 115.003 106.398 114.623 106.261 114.211C106.121 113.791 105.991 113.378 105.87 112.971ZM111.813 110.934C111.693 110.971 111.578 110.948 111.468 110.865C111.365 110.78 111.303 110.68 111.282 110.565C111.257 110.427 111.28 110.311 111.351 110.219C111.429 110.126 111.533 110.059 111.66 110.02C111.639 109.508 111.592 109.005 111.519 108.51C111.453 108.014 111.383 107.514 111.308 107.012C111.202 106.999 111.109 106.964 111.027 106.908C110.951 106.842 110.903 106.751 110.883 106.636C110.862 106.521 110.885 106.405 110.951 106.29C111.024 106.166 111.127 106.1 111.261 106.091C111.551 106.071 111.841 106.054 112.133 106.041C112.43 106.019 112.726 106.009 113.02 106.012C113.322 106.013 113.619 106.031 113.911 106.065C114.211 106.098 114.5 106.158 114.777 106.242C114.969 106.295 115.154 106.377 115.333 106.487C115.518 106.589 115.676 106.715 115.807 106.866C115.943 107.008 116.041 107.173 116.098 107.361C116.164 107.548 116.173 107.753 116.126 107.976C116.04 108.38 115.886 108.737 115.665 109.047C115.449 109.348 115.171 109.609 114.829 109.829C114.759 109.882 114.688 109.926 114.615 109.963C114.543 110 114.471 110.041 114.399 110.086C114.526 110.126 114.659 110.185 114.8 110.263C115.11 110.438 115.39 110.649 115.641 110.897C115.891 111.138 116.122 111.402 116.332 111.689C116.449 111.851 116.566 112.016 116.684 112.186C116.809 112.353 116.894 112.537 116.938 112.735C116.99 112.98 116.951 113.205 116.822 113.411C116.699 113.608 116.541 113.771 116.351 113.901C115.84 114.239 115.3 114.48 114.73 114.622C114.17 114.771 113.589 114.872 112.987 114.925C112.897 114.997 112.792 115.036 112.674 115.041C112.558 115.054 112.459 115.017 112.38 114.928C112.304 114.902 112.237 114.862 112.18 114.809C112.121 114.748 112.084 114.672 112.067 114.579C112.057 114.526 112.056 114.474 112.063 114.425C112.076 114.367 112.095 114.316 112.119 114.272C112.068 114.035 112.041 113.798 112.038 113.561C112.033 113.315 112.029 113.07 112.024 112.825C112.022 112.507 111.997 112.194 111.95 111.885C111.908 111.567 111.867 111.253 111.827 110.943L111.813 110.934ZM112.24 106.963C112.307 107.427 112.372 107.895 112.434 108.368C112.502 108.832 112.566 109.297 112.626 109.763C112.913 109.679 113.197 109.584 113.48 109.478C113.768 109.362 114.038 109.226 114.287 109.07C114.388 109.012 114.497 108.933 114.613 108.832C114.738 108.73 114.829 108.642 114.887 108.568C114.976 108.441 115.04 108.335 115.08 108.248C115.127 108.16 115.172 108.033 115.213 107.867C115.202 107.892 115.197 107.885 115.197 107.846C115.206 107.804 115.211 107.768 115.213 107.736C115.212 107.728 115.209 107.712 115.205 107.689C115.207 107.657 115.206 107.63 115.202 107.607C115.165 107.534 115.137 107.487 115.117 107.467C115.105 107.445 115.09 107.428 115.072 107.416C115.071 107.408 115.052 107.392 115.016 107.366C114.987 107.34 114.964 107.324 114.948 107.319C114.902 107.288 114.854 107.261 114.802 107.238C114.733 107.211 114.657 107.185 114.574 107.16C114.496 107.127 114.424 107.104 114.359 107.092C114.012 107.02 113.659 106.976 113.299 106.962C112.947 106.946 112.594 106.946 112.24 106.963ZM112.956 112.644C112.956 112.867 112.954 113.093 112.948 113.325C112.948 113.547 112.969 113.77 113.009 113.992C113.485 113.946 113.951 113.87 114.408 113.764C114.872 113.648 115.311 113.462 115.725 113.204C115.811 113.157 115.895 113.094 115.976 113.016C116.001 112.932 116.003 112.876 115.982 112.848C115.921 112.732 115.854 112.625 115.781 112.527C115.714 112.42 115.634 112.308 115.541 112.19C115.456 112.07 115.369 111.959 115.279 111.856C115.187 111.745 115.089 111.64 114.983 111.54L114.843 111.422L114.673 111.274C114.61 111.23 114.539 111.188 114.46 111.146C114.387 111.096 114.33 111.063 114.287 111.047C114.035 110.925 113.782 110.844 113.528 110.803C113.275 110.761 113.015 110.752 112.75 110.776C112.79 111.087 112.83 111.397 112.87 111.707C112.918 112.016 112.947 112.329 112.956 112.644Z" fill="black"/>
<path d="M31.5 75.5L27.5 77.5L25.5 78.5L25 90V104L30 125.5L40.5 139L52 142L62.5 138L76 110.5V93.5V79.5L73 77.5H62.5H41.5L31.5 75.5Z" fill="#DBCBCB"/>
<path d="M27.5 77.5L31.5 75.5M31.5 75.5L41.5 77.5H62.5H73L76 79.5C76 83.6667 76 92.3 76 93.5C76 94.7 76 105.333 76 110.5L62.5 138L52 142L40.5 139L30 125.5L25 104V90L25.5 78.5L31.5 75.5Z" stroke="black"/>
<path d="M69.5 132L63 137.5L75.5 110V79.5L73 77L79 79.5V105.5L77 114.5L69.5 132Z" fill="#544E4E" stroke="black"/>
<path d="M105 15L107.5 4V19L109.5 29L112.5 31.5V39.5L107.5 37L105 31.5L105.5 24.5L105 15Z" fill="#4A4646" stroke="black"/>
<path d="M133 125L131.5 118.5L140 112L145.5 113L147.5 114.5L145.5 120L142.5 123.5L137.5 125H133Z" fill="#FEEEEE" stroke="black"/>
<path d="M65 71V67.5V65.5L60.5 64H58L55.5 65.5L54 67.5V73H56.5H60.5L62.5 75.5L65 73V71Z" fill="#FBECEC"/>
<path d="M90 72L89 73H88.5V72.5L87.5 72C87.1667 71.8333 86.5 71.4 86.5 71C86.5 70.6 86.1667 70.1667 86 70C85.8333 69.5 85.5 68.4 85.5 68V66.5V65L86.5 63.5C87 63 88 61.9 88 61.5C88 61.1 88.6667 61 89 61C89.8333 60.8333 91.7 60.5 92.5 60.5C93.5 60.5 93.5 60.5 93.5 61C93.5 61.5 95 61.5 95.5 61.5C96 61.5 96.5 62 96.5 62.5V64C96.5 64.5 96 65.5 96.5 66C96.9 66.4 96.3333 67.1667 96 67.5L95 68.5L94.5 69.5L92 70.5L90 72Z" fill="#FBECEC"/>
<path d="M65 71V67.5V65.5L60.5 64H58L55.5 65.5L54 67.5V73H56.5H60.5L62.5 75.5L65 73V71Z" stroke="black"/>
<path d="M90 72L89 73H88.5V72.5L87.5 72C87.1667 71.8333 86.5 71.4 86.5 71C86.5 70.6 86.1667 70.1667 86 70C85.8333 69.5 85.5 68.4 85.5 68V66.5V65L86.5 63.5C87 63 88 61.9 88 61.5C88 61.1 88.6667 61 89 61C89.8333 60.8333 91.7 60.5 92.5 60.5C93.5 60.5 93.5 60.5 93.5 61C93.5 61.5 95 61.5 95.5 61.5C96 61.5 96.5 62 96.5 62.5V64C96.5 64.5 96 65.5 96.5 66C96.9 66.4 96.3333 67.1667 96 67.5L95 68.5L94.5 69.5L92 70.5L90 72Z" stroke="black"/>
<path d="M116 152.5L122 149H127.5L130 150.5" stroke="black"/>
<path d="M56.5 67.5L58 64.5L63 65V67V69L62 71.5L60 72.5H58L57 72L56 70.5L56.5 67.5Z" fill="#172413"/>
<path d="M93 69.5L91 71L90.5 70.5L89 69.5L87.5 67.5C87.1667 67.1667 86.5 66.4 86.5 66V64V62.5C87 62.3333 88.1 62 88.5 62H90.5C91 62 92 63 92.5 63.5C93 64 93.5 65 94 65C94.4 65 94.5 66.6667 94.5 67.5V68.5L93 69.5Z" fill="#172413"/>
<path d="M56.5 67.5L58 64.5L63 65V67V69L62 71.5L60 72.5H58L57 72L56 70.5L56.5 67.5Z" stroke="black"/>
<path d="M93 69.5L91 71L90.5 70.5L89 69.5L87.5 67.5C87.1667 67.1667 86.5 66.4 86.5 66V64V62.5C87 62.3333 88.1 62 88.5 62H90.5C91 62 92 63 92.5 63.5C93 64 93.5 65 94 65C94.4 65 94.5 66.6667 94.5 67.5V68.5L93 69.5Z" stroke="black"/>
<path d="M80.5 86.5L86 88L89.5 88.5L90.5 87L91.5 83.5L90.5 81L88 80L86 82" stroke="black"/>
<path d="M84.17 88.3847L81.7829 91.9385L81.3508 87.6793L84.17 88.3847Z" fill="white" stroke="black"/>
<path d="M43 96L46.5 101.5L49 97L51.5 94.5L57 93L66.5 96V103L63 115L55 121.5L45.5 129.5L44 126L37.5 118.5L32 111L30 103L29.5 95L35 92H40L43 96Z" fill="#A49797" stroke="black"/>
<path d="M174 107.5L166.5 111L186 115H217L226.5 111L220 105.5L211.5 105H198.5H182.5L174 107.5Z" fill="#461212" stroke="black"/>
<path d="M173.5 101L170 110.5L167 114.5C173.333 117 186.4 122.1 188 122.5C189.6 122.9 199.333 122.333 204 122L221.5 113.5L222.5 110.5L221.5 105.5L217.5 104C216.667 103.5 214.9 102.3 214.5 101.5C214.1 100.7 211.667 99.8333 210.5 99.5H206L200 104L199 101C196.5 100.5 191.3 99.4 190.5 99C189.7 98.6 188.167 99.1667 187.5 99.5C186.333 100.667 183.9 103.2 183.5 104C183.1 104.8 179.667 102.333 178 101H173.5Z" fill="#3C1F1F" stroke="black"/>
<path d="M156.5 127L166.5 111L185.5 115H217L226.5 111L236.5 125L222.5 130.5H185.5L156.5 127Z" fill="#F15E5E" stroke="black"/>
<path d="M172.468 104.731C174.285 104.966 176.085 105.276 177.921 105.353C178.175 105.364 178.467 105.471 178.473 105.158C178.479 104.813 178.473 104.468 178.473 104.124C178.473 103.361 178.518 102.602 178.518 101.842" stroke="black" stroke-linecap="round" stroke-linejoin="round"/>
<path d="M177.209 105.679C176.372 106.501 175.306 107.039 174.331 107.678C173.904 107.959 173.407 108.211 173.027 108.559C172.979 108.603 172.925 108.681 173.017 108.704C173.315 108.779 173.577 109.021 173.847 109.161C174.63 109.566 175.469 109.866 176.306 110.139C176.699 110.268 177.126 110.453 177.54 110.508C177.618 110.518 177.679 110.502 177.738 110.445C177.996 110.197 178.154 109.816 178.332 109.512C178.632 109.002 178.905 108.47 179.24 107.982C179.386 107.769 179.502 107.463 179.657 107.27C179.834 107.048 178.938 106.403 178.794 106.291C178.512 106.074 178.223 105.92 177.906 105.77C177.849 105.743 177.821 105.73 177.795 105.679" stroke="black" stroke-linecap="round" stroke-linejoin="round"/>
<path d="M179.963 107.937C181.356 107.992 182.76 108.33 184.142 108.524C184.46 108.569 184.786 108.632 185.11 108.614C185.323 108.602 185.438 108.044 185.481 107.912C185.859 106.759 186.115 105.529 186.369 104.342C186.447 103.981 186.551 103.611 186.597 103.244C186.614 103.109 186.664 103.131 186.504 103.081C186.067 102.941 185.527 102.79 185.065 102.79" stroke="black" stroke-linecap="round" stroke-linejoin="round"/>
<path d="M186.013 105.092C187.227 105.092 188.439 105.094 189.65 105.193C190.484 105.261 191.528 105.459 192.314 105.072C193.731 104.376 193.643 102.728 193.643 101.357C193.643 101.234 193.776 100.534 193.869 100.487" stroke="black" stroke-linecap="round" stroke-linejoin="round"/>
<path d="M191.883 105.499C191.883 107.125 191.883 108.751 191.883 110.378C191.883 110.738 192.196 110.608 192.5 110.546C193.427 110.356 194.35 110.17 195.289 110.044C196.016 109.946 196.784 109.923 197.496 109.733C197.809 109.649 198.006 109.401 198.159 109.126C198.681 108.181 199.047 107.165 199.508 106.191C199.723 105.736 199.939 105.268 200.123 104.799C200.181 104.651 200.235 104.53 200.235 104.37" stroke="black" stroke-linecap="round" stroke-linejoin="round"/>
<path d="M184.252 108.975C184.252 110.679 184.342 112.374 184.342 114.077" stroke="black" stroke-linecap="round" stroke-linejoin="round"/>
<path d="M173.867 109.743C173.688 110.155 173.466 110.544 173.28 110.952C173.209 111.108 173.089 111.271 173.052 111.436C173.014 111.608 172.919 111.73 172.919 111.91" stroke="black" stroke-linecap="round" stroke-linejoin="round"/>
<path d="M191.671 110.731C190.538 111.528 189.43 112.346 188.276 113.115C187.856 113.395 187.479 113.734 187.058 114.004C186.828 114.152 186.638 114.304 186.446 114.495C186.354 114.588 186.226 114.726 186.112 114.784" stroke="black" stroke-linecap="round" stroke-linejoin="round"/>
<path d="M196.658 110.523C197.413 111.646 198.24 112.712 198.97 113.848C199.117 114.077 199.261 114.298 199.412 114.524" stroke="black" stroke-linecap="round" stroke-linejoin="round"/>
<path d="M199.412 107.042C201.164 106.807 202.965 106.792 204.728 106.705C205.534 106.665 206.34 106.586 207.147 106.575C207.195 106.574 207.537 106.53 207.563 106.612C207.597 106.724 207.568 106.889 207.568 107.002C207.568 107.593 207.549 108.185 207.505 108.774C207.397 110.217 207.088 111.636 207.008 113.081C206.976 113.663 206.997 114.252 206.997 114.835" stroke="black" stroke-linecap="round" stroke-linejoin="round"/>
<path d="M205.49 106.419C205.589 105.562 205.967 104.767 206.166 103.928C206.363 103.096 206.48 102.259 206.778 101.454C206.842 101.279 206.961 101.064 206.994 100.883C207.012 100.787 207.076 100.752 207.098 100.675C207.144 100.515 207.309 100.314 207.309 100.159C207.309 100.043 207.425 99.7782 207.516 99.7169" stroke="black" stroke-linecap="round" stroke-linejoin="round"/>
<path d="M207.651 106.71C207.813 106.369 208.022 106.146 208.293 105.887C208.616 105.578 208.905 105.233 209.241 104.939C209.84 104.415 210.519 103.992 211.114 103.462C211.617 103.014 212.118 102.506 212.715 102.181C213.06 101.992 213.184 101.474 213.507 101.312" stroke="black" stroke-linecap="round" stroke-linejoin="round"/>
<path d="M211.674 103.196C211.994 104.549 213.175 105.425 214.028 106.455C214.128 106.577 214.958 107.903 215.066 107.87C215.211 107.825 215.383 107.617 215.488 107.519C215.807 107.22 216.099 106.891 216.382 106.557C216.786 106.08 217.131 105.554 217.604 105.137C217.771 104.99 217.923 104.729 218.113 104.625C218.205 104.575 218.206 104.463 218.294 104.419" stroke="black" stroke-linecap="round" stroke-linejoin="round"/>
<path d="M215.188 108.238C214.755 109.449 214.486 110.685 214.144 111.921C213.962 112.577 213.776 113.195 213.66 113.865C213.608 114.166 213.589 114.593 213.456 114.858" stroke="black" stroke-linecap="round" stroke-linejoin="round"/>
<path d="M214.475 111.7C215.022 111.507 215.602 111.479 216.178 111.446C217.449 111.372 218.721 111.344 219.994 111.344C220.614 111.344 221.246 111.293 221.859 111.293" stroke="black" stroke-linecap="round" stroke-linejoin="round"/>
<path d="M177.647 119.065C177.223 119.618 176.963 120.161 176.685 120.81C176.348 121.596 176.074 122.408 175.734 123.193C175.681 123.314 175.633 123.412 175.633 123.545C175.633 124.125 177.552 123.904 177.848 124.2" stroke="black" stroke-linecap="round" stroke-linejoin="round"/>
<path d="M189.528 121.985C189.528 122.723 189.528 123.461 189.528 124.2" stroke="black" stroke-linecap="round" stroke-linejoin="round"/>
<path d="M190.233 119.669C190.065 119.669 189.897 119.669 189.729 119.669" stroke="black" stroke-linecap="round" stroke-linejoin="round"/>
<path d="M201.812 121.582C202.393 121.582 202.949 121.515 203.523 121.481C203.617 121.476 203.665 121.332 203.769 121.392C203.958 121.5 203.806 122.377 203.781 122.533C203.644 123.378 203.385 124.21 203.143 125.028C203.082 125.233 203.093 125.419 203.355 125.386C204.38 125.258 205.427 124.736 206.443 124.502" stroke="black" stroke-linecap="round" stroke-linejoin="round"/>
<path d="M217.72 119.971C216.558 119.75 215.78 119.94 215.527 121.202C215.405 121.812 215.507 123.023 216.456 122.678C216.717 122.583 217.216 121.821 217.362 121.582C217.498 121.36 217.72 120.888 217.72 120.626C217.72 120.497 218.468 121.155 218.671 121.269C219.101 121.509 219.747 121.683 220.237 121.683" stroke="black" stroke-linecap="round" stroke-linejoin="round"/>
<path d="M87.9856 60.9939C87.4113 61.2209 86.9943 61.5511 86.6045 62.0188C86.5103 62.1318 86.4247 62.3237 86.3677 62.4583C86.3114 62.5915 86.218 62.7031 86.1593 62.8372C86.0222 63.1505 85.886 63.4585 85.752 63.7712C85.6161 64.0883 85.4786 64.399 85.4622 64.7449C85.4469 65.0652 85.4047 65.3856 85.394 65.7073C85.3815 66.0803 85.4281 66.4638 85.4281 66.825" stroke="black" stroke-linecap="round" stroke-linejoin="round"/>
<path d="M87.905 61.2033C88.0372 61.0917 88.1496 60.9915 88.318 60.9522C88.3782 60.9382 88.4436 60.9355 88.5019 60.9177C88.6232 60.8808 88.7747 60.863 88.9015 60.8583C89.1599 60.8488 89.4177 60.7549 89.6814 60.7549C89.8106 60.7549 89.9498 60.7312 90.0761 60.7031C90.1736 60.6815 90.2776 60.672 90.3712 60.638C90.452 60.6086 90.5552 60.614 90.6395 60.5987C90.7664 60.5756 90.8807 60.5599 91.0103 60.5469C91.7601 60.472 92.5107 60.4617 93.2686 60.4617" stroke="black" stroke-linecap="round" stroke-linejoin="round"/>
<path d="M85.3354 65.9459C85.3354 66.3794 85.4217 66.8059 85.4217 67.2394C85.4217 67.4227 85.4562 67.6015 85.4562 67.7827C85.4562 67.8442 85.4541 67.9061 85.4562 67.9676C85.4575 68.0053 85.4581 68.2062 85.4907 68.2224" stroke="black" stroke-linecap="round" stroke-linejoin="round"/>
<path d="M85.6114 64.9629C85.4299 65.2211 85.4195 65.507 85.3565 65.7984C85.3327 65.9085 85.3182 66.0224 85.3182 66.1356C85.3182 66.439 85.3182 66.7425 85.3182 67.0459C85.3182 67.1275 85.3158 67.2095 85.3182 67.2911C85.32 67.3552 85.3502 67.4165 85.3527 67.4847C85.355 67.5486 85.3857 67.6114 85.3872 67.6744C85.3889 67.7466 85.3868 67.8211 85.4082 67.8909C85.4473 68.0178 85.4541 68.1606 85.4868 68.2914C85.5041 68.3605 85.5122 68.4323 85.5424 68.4984C85.5693 68.5573 85.5556 68.6323 85.5807 68.6881C85.6326 68.8034 85.6395 68.9347 85.6669 69.0579C85.7039 69.2242 85.763 69.3827 85.8049 69.5504C85.8713 69.8158 85.9988 70.0739 86.0904 70.3303C86.1358 70.4573 86.181 70.5759 86.2361 70.6982C86.2801 70.7961 86.331 70.9211 86.4047 70.9991C86.4344 71.0306 86.4313 71.0814 86.4737 71.1064C86.5003 71.1221 86.5463 71.1947 86.5637 71.2233C86.6085 71.2966 86.6681 71.3598 86.7151 71.4302" stroke="black" stroke-linecap="round" stroke-linejoin="round"/>
<path d="M93.1052 80.1394V74.301C93.1138 74.3565 93.1257 74.4103 93.1417 74.4615C93.2065 74.6688 93.3243 75.7822 93.3243 75.0418C93.3243 74.6659 93.2513 74.317 93.2513 73.946C93.2513 73.8613 93.1087 73.2596 93.2675 73.4184C93.4022 73.5531 93.5069 73.7169 93.6328 73.8567C93.7501 73.9871 93.9202 74.0125 94.0184 74.1652C94.1122 74.3112 94.2612 74.4445 94.3836 74.567C94.7223 74.9057 95.0141 75.1907 95.4105 75.4964C96.4267 76.2803 97.4326 77.0345 98.3083 77.9803C99.0951 78.83 98.4178 80.0832 98.3651 81.0323C98.3505 81.2952 97.5807 81.7873 97.3423 81.8724C96.7795 82.0735 96.2647 82.1281 95.6621 82.1281C94.9444 82.1281 94.3818 82.0073 93.9047 81.4706C93.5544 81.0765 93.1052 80.7101 93.1052 80.1394Z" fill="#82E1F5"/>
<path d="M93.1052 74.1652C93.1052 76.1566 93.1052 78.148 93.1052 80.1394C93.1052 80.7101 93.5544 81.0765 93.9047 81.4706C94.3818 82.0073 94.9444 82.1281 95.6621 82.1281C96.2647 82.1281 96.7795 82.0735 97.3423 81.8724C97.5807 81.7873 98.3505 81.2952 98.3651 81.0323C98.4178 80.0832 99.0951 78.83 98.3083 77.9803C97.4326 77.0345 96.4267 76.2803 95.4105 75.4964C95.0141 75.1907 94.7223 74.9057 94.3836 74.567C94.2612 74.4445 94.1122 74.3112 94.0184 74.1652C93.9202 74.0125 93.7501 73.9871 93.6328 73.8567C93.5069 73.7169 93.4022 73.5531 93.2675 73.4184C93.1087 73.2596 93.2513 73.8613 93.2513 73.946C93.2513 74.317 93.3243 74.6659 93.3243 75.0418C93.3243 75.7822 93.2065 74.6688 93.1417 74.4615C93.0397 74.1349 93.1052 73.7038 93.1052 73.3616" stroke="black" stroke-linecap="round" stroke-linejoin="round"/>
<path d="M136.384 123.058C136.46 123.545 136.604 124.092 136.851 124.512C136.917 124.624 137.001 124.67 137.071 124.795C137.14 124.919 137.109 125.035 137.192 125.158" stroke="black" stroke-linecap="round" stroke-linejoin="round"/>
<path d="M139.534 121.443C140.044 122.037 140.684 122.38 141.23 122.897C141.458 123.113 141.733 123.176 141.876 123.462" stroke="black" stroke-linecap="round" stroke-linejoin="round"/>
<path d="M142.199 119.101C143.119 119.386 143.97 119.853 144.864 120.151" stroke="black" stroke-linecap="round" stroke-linejoin="round"/>
<path d="M143.007 116.194C143.762 116.446 144.448 116.436 145.232 116.436C145.601 116.436 145.941 116.598 146.318 116.598" stroke="black" stroke-linecap="round" stroke-linejoin="round"/>
<path d="M121.487 156.968C122.026 156.244 122.022 155.433 121.981 154.567C121.958 154.101 121.161 153.461 120.796 153.218" stroke="black" stroke-linecap="round" stroke-linejoin="round"/>
<path d="M126.422 155.981C126.256 155.045 125.974 154.376 125.385 153.657C125.21 153.442 125.017 153.238 124.821 153.042C124.637 152.859 124.256 152.735 124.152 152.527" stroke="black" stroke-linecap="round" stroke-linejoin="round"/>
<path d="M129.284 154.205C129.232 152.896 128.141 151.945 126.915 151.639" stroke="black" stroke-linecap="round" stroke-linejoin="round"/>
<path d="M54.873 152.33C56.2656 151.881 57.8146 151.468 59.2153 151.935" stroke="black" stroke-linecap="round" stroke-linejoin="round"/>
</svg>
