<svg width="246" height="164" viewBox="0 0 246 164" fill="none" xmlns="http://www.w3.org/2000/svg">
<g clip-path="url(#clip0)">
<path d="M95.9198 4.07369C95.9198 5.87889 96.6003 7.6987 96.6529 9.52707C96.6529 10.115 95.392 10.9631 94.8608 11.006C94.4571 11.0385 93.7508 11.4237 93.3538 11.6016C92.8126 11.8442 92.2633 12.0062 91.7043 12.2075C88.8275 13.2438 85.4069 14.5639 83.1309 16.6955C82.1607 17.6042 80.8666 18.1431 79.7911 18.9139C78.9241 19.5352 77.9837 20.1173 77.0419 20.6187C75.2302 21.5831 73.7791 22.9648 72.3581 24.3981C69.3352 27.4469 66.3746 30.9547 64.4974 34.8529C63.0989 37.7571 61.0965 40.8111 61.0965 44.1781C61.0965 45.9174 61.1407 47.9121 60.5467 49.5596C60.0815 50.85 60.1647 52.3335 59.7728 53.6676C59.2963 55.2899 59.2513 57.2633 58.5306 58.8026C57.635 60.7156 56.6662 62.6723 55.3232 64.3279C54.5815 65.2422 53.7179 65.6752 52.8489 66.4641C51.5608 67.6333 50.6665 68.9103 49.8248 70.4386C49.5805 70.882 49.4482 71.6905 49.3767 72.1947C49.2962 72.7631 49 73.3867 49 73.9509V76.0563C49 77.0126 49.7321 76.6928 50.4662 76.8573C51.3914 77.0647 52.1807 77.2475 53.0322 77.6995C53.3855 77.887 53.3987 78.8824 53.3987 79.2605C53.3987 80.4763 53.582 81.6616 53.582 82.8447C53.582 84.0486 54.873 88.8326 56.6061 86.696C56.8373 86.411 58.164 84.2536 58.164 85.4123C58.164 86.2437 58.3006 86.9699 58.6324 87.723C59.0359 88.6388 58.7238 90.1583 59.9357 90.3213C61.4637 90.5268 63.0903 90.9108 64.5788 91.3278C65.7048 91.6433 67.0724 91.58 68.2444 91.7489C72.6455 92.383 77.0917 92.7335 81.5017 93.2277C82.8007 93.3733 84.0845 93.4537 85.3913 93.4537C86.9951 93.4537 88.5232 93.7561 90.1159 93.8645C94.2332 94.1447 98.2768 94.5628 102.406 94.5628H115.154H119.369C120.238 94.5628 121.119 94.8887 121.946 94.9326C122.809 94.9784 123.913 95.1778 124.695 95.5282C125.702 95.9798 127.073 95.8569 128.177 95.8569C128.93 95.8569 129.69 96.1348 130.458 96.2163C131.684 96.3465 132.969 96.2392 134.185 96.4525C136.297 96.823 138.593 96.5963 140.742 96.5963C142.245 96.5963 143.717 96.7812 145.222 96.7812C146.034 96.7812 147.799 97.1367 148.419 97.7055C149.329 98.5399 150.03 99.6154 150.171 100.889C150.324 102.277 151.219 103.204 152.329 103.909C152.7 104.144 153.732 103.88 154.02 103.621C154.606 103.092 155.559 102.969 156.3 102.697C158.894 101.746 161.67 99.9507 163.632 97.9725C164.813 96.7808 166.49 94.9137 166.809 93.2277C166.985 92.2917 166.849 91.2177 166.849 90.27C166.849 89.4953 167.717 89.7565 168.316 89.7565C169.758 89.7565 170.523 89.5776 171.818 88.9246C173.875 87.8874 175.662 86.5909 177.388 85.1247C178.795 83.9298 180.207 82.754 181.512 81.4378C182.688 80.2508 184 79.1804 185.177 77.9254C185.661 77.4098 186.277 76.773 186.562 76.1179C186.754 75.6773 186.644 75.944 186.644 76.2617C186.644 76.9515 186.593 77.6891 187.112 78.213C188.775 79.8901 191.638 76.9881 192.498 75.6147C193.621 73.8217 193.841 71.442 194.382 69.4629C195.472 65.4773 195.476 59.0107 191.409 56.6665C190.338 56.049 189.371 55.1454 188.334 54.4481C187.669 54.0013 187.003 53.7015 186.42 53.113C184.188 50.862 182.534 48.3507 180.595 45.8521C178.829 43.5763 177.607 41.3175 176.278 38.8274C175.345 37.0797 174.522 35.1005 173.447 33.4151C172.352 31.6965 171.054 30.1473 169.598 28.7526C168.585 27.7817 167.941 26.422 167.073 25.3224C166.078 24.0614 165.123 22.8136 163.927 21.7279C161.985 19.9651 160.434 17.8861 158.785 15.8534C157.751 14.5792 156.36 13.7174 155.313 12.4848C152.869 9.60949 148.927 8.88187 145.487 7.57577C141.545 6.07889 137.272 6.38444 133.126 6.38444H120.948H110.399C108.043 6.38444 105.559 4.84442 103.618 3.61154C101.889 2.51354 99.6359 1.36773 97.5693 2.40995C96.817 2.78934 95.9198 3.11401 95.9198 4.07369Z" fill="#FFC195" stroke="black" stroke-linecap="round" stroke-linejoin="round"/>
<path d="M68.4799 146.058C66.7071 146.058 64.8933 145.658 63.1286 145.27C62.5086 145.226 61.8901 145.168 61.3116 145.168C60.1443 145.168 59.1122 144.871 57.9731 144.871C57.2449 144.871 56.6082 144.709 55.9083 144.583C55.0635 144.431 54.0301 144.565 53.2275 144.204C52.6636 143.95 51.6687 144.051 51.0379 143.973C50.1803 143.867 49.472 143.364 48.7151 143.092C47.5798 142.683 47 141.093 47 140.01C47 138.922 47.1499 137.884 47.1499 136.781C47.1499 135.077 47.8504 133.326 47.8992 131.59C47.9362 130.272 48.3487 129.039 48.3487 127.701C48.3487 126.995 48.4986 126.35 48.4986 125.658C48.4986 125.174 48.3341 124.313 48.5735 123.887C48.8057 123.473 48.6895 122.819 48.8316 122.362C49.0186 121.761 49.225 121.07 49.2479 120.435C49.277 119.629 49.5476 118.856 49.5476 118.02C49.5476 117.194 49.6975 116.362 49.6975 115.516C49.6975 114.303 49.7052 113.123 49.839 111.932C49.9981 110.515 50.386 109.259 51.0795 108.092C51.2514 107.803 51.6069 107.38 51.6457 107.054C51.7011 106.588 52.3324 106.246 52.395 105.72C52.4909 104.913 53.7051 104.026 54.0434 103.273C54.4082 102.46 55.0062 101.66 55.4671 100.9C56.1171 99.8276 56.9161 99.05 58.0896 98.4528C59.5168 97.7264 60.9948 96.7263 62.5854 96.3765C64.0127 96.0627 65.4316 95.0432 66.2986 93.9707C66.9543 93.1596 66.4478 92.1434 66.4818 91.3013C66.5111 90.5752 74.3926 91.3591 75.207 91.5979C75.9755 91.8232 77.3598 91.7791 78.1625 91.7791C79.0453 91.7791 79.8673 92.0757 80.7268 92.0757C81.8668 92.0757 82.9971 92.224 84.1486 92.224C84.73 92.224 85.8638 92.2433 86.4132 92.4547C87.1559 92.7406 88.1299 92.9383 88.9275 92.9656C89.8528 92.9971 90.7337 93.2622 91.6583 93.2622C93.1665 93.2622 94.6711 93.8554 96.1541 93.8554H104.396C105.774 93.8554 107.077 93.5588 108.451 93.5588H112.489C114.72 93.5588 116.953 93.8554 119.199 93.8554C120.37 93.8554 122.04 94.3016 123.129 94.7122C123.868 94.9908 124.694 94.9821 125.435 95.2643C126.017 95.4857 126.852 95.3384 127.475 95.3384H132.27H140.879C143.181 95.3384 145.216 95.9372 147.323 96.5331C147.919 96.7017 149.191 97.4203 149.621 97.8925C149.792 98.0811 150.239 98.8018 150.254 99.046C150.276 99.4224 150.199 99.8981 150.553 100.117C150.806 100.273 150.849 100.708 151.003 100.941C151.192 101.228 151.511 101.404 151.669 101.715C151.849 102.073 152.202 102.421 152.202 102.828C152.202 103.698 152.352 104.635 152.352 105.571C152.352 107.545 152.373 109.41 152.793 111.281C153.06 112.47 152.606 113.921 153.068 115.063C153.283 115.596 153.083 116.409 153.217 116.991C153.354 117.583 153.401 118.192 153.401 118.803C153.401 120.924 154 122.807 154 124.933V128.41C154 129.123 153.942 129.789 153.842 130.486C153.738 131.208 153.401 131.917 153.401 132.637C153.401 133.484 153.251 134.36 153.251 135.232C153.251 135.942 153.279 136.745 153.068 137.423C152.782 138.341 152.882 139.813 152.202 140.571C151.841 140.973 151.581 141.493 151.228 141.914C150.848 142.365 150.416 142.832 150.037 143.314C149.68 143.768 149.289 144.194 149.021 144.723C148.824 145.114 148.554 145.721 148.272 146.025C147.756 146.582 147 146.808 146.349 147.17C145.552 147.614 145.006 148.192 144.409 148.867C143.301 150.121 141.532 150.06 140.288 151.018C139.881 151.331 139.014 151.114 139.014 151.842C139.014 152.06 139.131 153.078 138.831 152.995C137.068 152.507 134.764 152.88 132.953 152.88C130.582 152.88 128.227 152.732 125.86 152.732C124.032 152.732 121.992 152.978 120.198 152.583C119.201 152.364 118.21 152.494 117.201 152.418C115.984 152.328 114.758 152.208 113.538 152.105C111.062 151.897 108.588 151.725 106.111 151.512C103.964 151.327 101.782 151.238 99.6508 150.944C97.628 150.664 95.5424 150.142 93.5315 149.757C90.0124 149.083 86.4676 148.331 82.8915 147.986C79.6169 147.67 76.1404 147.354 72.9258 146.684C72.0555 146.503 70.9051 146.355 70.0118 146.355C69.4513 146.355 69.0189 146.058 68.4799 146.058Z" fill="white"/>
<path d="M61.2367 144.871C63.5754 145.317 66.0657 146.058 68.4799 146.058C69.0189 146.058 69.4513 146.355 70.0118 146.355C70.9051 146.355 72.0555 146.503 72.9258 146.684C76.1404 147.354 79.6169 147.67 82.8915 147.986C86.4676 148.331 90.0124 149.083 93.5315 149.757C95.5424 150.142 97.628 150.664 99.6508 150.944C101.782 151.238 103.964 151.327 106.111 151.512C108.588 151.725 111.062 151.897 113.538 152.105C114.758 152.208 115.984 152.328 117.201 152.418C118.21 152.494 119.201 152.364 120.198 152.583C121.992 152.978 124.032 152.732 125.86 152.732C128.227 152.732 130.582 152.88 132.953 152.88C134.764 152.88 137.068 152.507 138.831 152.995C139.131 153.078 139.014 152.06 139.014 151.842C139.014 151.114 139.881 151.331 140.288 151.018C141.532 150.06 143.301 150.121 144.409 148.867C145.006 148.192 145.552 147.614 146.349 147.17C147 146.808 147.756 146.582 148.272 146.025C148.554 145.721 148.824 145.114 149.021 144.723C149.289 144.194 149.68 143.768 150.037 143.314C150.416 142.832 150.848 142.365 151.228 141.914C151.581 141.493 151.841 140.973 152.202 140.571C152.882 139.813 152.782 138.341 153.068 137.423C153.279 136.745 153.251 135.942 153.251 135.232C153.251 134.36 153.401 133.484 153.401 132.637C153.401 131.917 153.738 131.208 153.842 130.486C153.942 129.789 154 129.123 154 128.41C154 127.251 154 126.092 154 124.933C154 122.807 153.401 120.924 153.401 118.803C153.401 118.192 153.354 117.583 153.217 116.991C153.083 116.409 153.283 115.596 153.068 115.063C152.606 113.921 153.06 112.47 152.793 111.281C152.373 109.41 152.352 107.545 152.352 105.571C152.352 104.635 152.202 103.698 152.202 102.828C152.202 102.421 151.849 102.073 151.669 101.715C151.511 101.404 151.192 101.228 151.003 100.941C150.849 100.708 150.806 100.273 150.553 100.117C150.199 99.8981 150.276 99.4224 150.254 99.046C150.239 98.8018 149.792 98.0811 149.621 97.8925C149.191 97.4203 147.919 96.7017 147.323 96.5331C145.216 95.9372 143.181 95.3384 140.879 95.3384C138.009 95.3384 135.14 95.3384 132.27 95.3384C130.672 95.3384 129.073 95.3384 127.475 95.3384C126.852 95.3384 126.017 95.4857 125.435 95.2643C124.694 94.9821 123.868 94.9908 123.129 94.7122C122.04 94.3016 120.37 93.8554 119.199 93.8554C116.953 93.8554 114.72 93.5588 112.489 93.5588C111.143 93.5588 109.797 93.5588 108.451 93.5588C107.077 93.5588 105.774 93.8554 104.396 93.8554C101.649 93.8554 98.9015 93.8554 96.1541 93.8554C94.6711 93.8554 93.1664 93.2622 91.6583 93.2622C90.7337 93.2622 89.8528 92.9971 88.9275 92.9656C88.1299 92.9383 87.1559 92.7406 86.4132 92.4547C85.8638 92.2433 84.73 92.224 84.1486 92.224C82.9971 92.224 81.8668 92.0757 80.7268 92.0757C79.8673 92.0757 79.0453 91.7791 78.1625 91.7791C77.3598 91.7791 75.9755 91.8232 75.207 91.5979C74.3926 91.3591 66.5111 90.5752 66.4818 91.3013C66.4478 92.1434 66.9543 93.1596 66.2986 93.9707C65.4316 95.0432 64.0127 96.0627 62.5854 96.3765C60.9948 96.7263 59.5168 97.7264 58.0896 98.4528C56.9161 99.05 56.1171 99.8276 55.4671 100.9C55.0062 101.66 54.4082 102.46 54.0434 103.273C53.7051 104.026 52.4909 104.913 52.395 105.72C52.3324 106.246 51.7011 106.588 51.6457 107.054C51.6069 107.38 51.2514 107.803 51.0795 108.092C50.386 109.259 49.9981 110.515 49.839 111.932C49.7052 113.123 49.6975 114.303 49.6975 115.516C49.6975 116.362 49.5476 117.194 49.5476 118.02C49.5476 118.856 49.277 119.629 49.2479 120.435C49.225 121.07 49.0186 121.761 48.8316 122.362C48.6895 122.819 48.8057 123.473 48.5735 123.887C48.3341 124.313 48.4986 125.173 48.4986 125.658C48.4986 126.35 48.3487 126.995 48.3487 127.701C48.3487 129.039 47.9362 130.272 47.8992 131.59C47.8504 133.326 47.1499 135.077 47.1499 136.781C47.1499 137.884 47 138.922 47 140.01C47 141.093 47.5798 142.683 48.7151 143.092C49.472 143.364 50.1803 143.867 51.0379 143.973C51.6687 144.051 52.6636 143.95 53.2275 144.204C54.0301 144.565 55.0635 144.431 55.9083 144.583C56.6082 144.709 57.2449 144.871 57.9731 144.871C59.1122 144.871 60.1443 145.168 61.3116 145.168C62.2359 145.168 63.2623 145.316 64.2339 145.316" stroke="black" stroke-linecap="round" stroke-linejoin="round"/>
<path d="M157.121 11.7527C156.461 11.4691 155.584 11.3587 154.779 11.1938C155.628 11.6104 156.48 12.3486 157.026 13.1565C157.867 14.4018 159.184 15.3385 160.042 16.5845C160.676 17.5054 162.273 18.2508 162.521 19.331C162.663 19.9479 163.79 20.6388 164.108 21.2535C164.405 21.829 165.049 22.4141 165.495 22.9421C165.939 23.4681 166.299 24.1249 166.63 24.7324C166.964 25.3472 167.664 25.7838 167.954 26.421C168.244 27.0608 169.099 27.5381 169.467 28.2113C169.68 28.6019 170.089 28.8688 170.37 29.2183C171.353 30.4421 172.277 31.5936 173.197 32.8803C173.894 33.8549 174.721 35.2116 175.141 36.3083C175.356 36.8711 175.737 37.3839 175.981 37.9155C176.252 38.5063 176.465 39.1894 176.738 39.7465C177.246 40.7847 177.99 42.2733 179.049 42.8592C180.129 43.4565 180.952 44.7697 181.697 45.6972C182.302 46.4499 183.054 47.4627 183.462 48.3521C184.052 49.6354 184.456 50 185.963 50C187.281 50 188.768 49.5248 190.019 49.0845C192.267 48.2929 194.525 47.315 195.798 45.1581C196.331 44.2545 196.954 43.5256 197.49 42.5743C197.831 41.9677 198.167 41.2074 198.74 40.7535C199.385 40.2423 199.656 39.3307 200.295 38.831C201.688 37.7414 201.922 35.5673 202.375 34.0297C202.532 33.4992 202.607 32.7913 202.607 32.2394C202.607 31.7 202.965 31.3414 202.985 30.8153C203.019 29.9228 202.985 29.0231 202.985 28.1299C202.985 26.9581 202.82 24.9769 202.323 23.9186C202.072 23.3851 202.161 22.4981 202.05 21.9045C201.962 21.4378 201.744 20.966 201.514 20.5211C200.959 19.4474 200.41 18.744 199.496 17.9577C199.078 17.5981 198.542 17.5718 198.067 17.3678C197.676 17.1992 196.813 17.1678 196.544 16.9507C196.284 16.7408 194.758 16.6761 194.39 16.6761C193.857 16.6761 192.954 16.4688 192.488 16.2183C191.942 15.9248 190.945 15.9353 190.313 15.7606C189.521 15.5414 188.74 15.5775 187.917 15.5775C186.733 15.5775 185.588 15.2507 184.408 15.2113C183.452 15.1793 182.545 14.8701 181.613 14.8451C179.354 14.7843 176.998 14.4968 174.731 14.3059C171.159 14.0052 167.416 14.0399 163.982 13.0548C163.178 12.8242 162.246 13.0277 161.418 12.7903C160.7 12.5844 159.931 12.5849 159.191 12.4546C158.377 12.3115 157.819 12.0531 157.121 11.7527Z" fill="#915C5C"/>
<path d="M154 11C154.968 11.3039 156.239 11.3735 157.121 11.7527C157.819 12.0531 158.377 12.3115 159.191 12.4546C159.931 12.5849 160.7 12.5844 161.418 12.7903C162.246 13.0277 163.178 12.8242 163.982 13.0548C167.416 14.0399 171.159 14.0052 174.731 14.3059C176.998 14.4968 179.354 14.7843 181.613 14.8451C182.545 14.8701 183.452 15.1793 184.408 15.2113C185.588 15.2507 186.733 15.5775 187.917 15.5775C188.74 15.5775 189.521 15.5414 190.313 15.7606C190.945 15.9353 191.942 15.9248 192.488 16.2183C192.954 16.4688 193.857 16.6761 194.39 16.6761C194.758 16.6761 196.284 16.7408 196.544 16.9507C196.813 17.1678 197.676 17.1992 198.067 17.3678C198.542 17.5718 199.078 17.5981 199.496 17.9577C200.41 18.744 200.959 19.4474 201.514 20.5211C201.744 20.966 201.962 21.4378 202.05 21.9045C202.161 22.4981 202.072 23.3851 202.323 23.9186C202.82 24.9769 202.985 26.9581 202.985 28.1299C202.985 29.0231 203.019 29.9228 202.985 30.8153C202.965 31.3414 202.607 31.7 202.607 32.2394C202.607 32.7913 202.532 33.4992 202.375 34.0297C201.922 35.5673 201.688 37.7414 200.295 38.831C199.656 39.3307 199.385 40.2423 198.74 40.7535C198.167 41.2074 197.831 41.9677 197.49 42.5743C196.954 43.5256 196.331 44.2545 195.798 45.1581C194.525 47.315 192.267 48.2929 190.019 49.0845C188.768 49.5248 187.281 50 185.963 50C184.456 50 184.052 49.6354 183.462 48.3521C183.054 47.4627 182.302 46.4499 181.697 45.6972C180.952 44.7697 180.129 43.4565 179.049 42.8592C177.99 42.2733 177.246 40.7847 176.738 39.7465C176.465 39.1894 176.252 38.5063 175.981 37.9155C175.737 37.3839 175.356 36.8711 175.141 36.3083C174.721 35.2116 173.894 33.8549 173.197 32.8803C172.277 31.5936 171.353 30.4421 170.37 29.2183C170.089 28.8688 169.68 28.602 169.467 28.2113C169.099 27.5381 168.244 27.0608 167.954 26.421C167.664 25.7838 166.964 25.3472 166.63 24.7324C166.299 24.1249 165.939 23.4681 165.495 22.9421C165.049 22.4141 164.405 21.829 164.108 21.2535C163.79 20.6388 162.663 19.9479 162.521 19.331C162.273 18.2508 160.676 17.5054 160.042 16.5845C159.184 15.3385 157.867 14.4018 157.026 13.1565C156.476 12.3416 155.613 11.5976 154.757 11.1831" stroke="black" stroke-linecap="round" stroke-linejoin="round"/>
<path d="M38.6399 123.952C41.2641 121.666 43.8667 119.29 46.4618 116.938C46.7261 116.556 46.9457 116.17 46.9835 115.961C47.08 115.427 47.51 114.993 47.7469 114.516C48.0026 114.002 48.1273 113.351 48.4385 112.882C49.546 111.212 50.1215 109.289 51.1777 107.564C51.4766 107.076 51.6417 106.436 52.022 106.011C52.3174 105.681 52.8105 104.779 52.956 104.34C53.1758 103.678 54.0763 104.187 54.5367 104.187C55.3758 104.187 56.3299 104.253 57.1682 104.359C58.1625 104.483 59.8053 104.665 60.7158 105.072C61.3391 105.35 62.6895 105.326 63.1407 105.894C63.3408 106.145 63.7534 106.791 63.949 106.914C64.2681 107.114 64.3766 108.186 64.5148 108.575C66.6454 114.573 66.8589 121.303 66.8589 127.591C66.8589 128.169 67.2248 131.132 66.7781 131.491C66.6551 131.59 66.4867 132.759 66.4099 132.99C66.0517 134.071 65.5765 135.057 65.1615 136.123C64.4001 138.08 63.348 139.882 62.5659 141.812C62.1507 142.836 61.6263 144.007 61.0391 144.945C60.5298 145.758 60.0151 146.763 59.665 147.663C59.255 148.716 58.3228 149.619 58.0035 150.669C57.7206 151.6 57.0796 152.461 56.8359 153.441C56.6939 154.012 56.3635 154.513 56.1982 155.067C56.058 155.536 56.0313 156.071 55.83 156.52C55.4213 157.433 55.6299 158.306 55.5336 159.274C55.3936 160.682 55.3868 162.396 54.7343 163.671C54.4389 164.249 53.6057 163.913 53.1177 163.798C52.149 163.569 51.1485 163.25 50.2078 162.949C47.6124 162.119 45.0424 161.391 42.5288 160.267C41.8238 159.952 41.0516 159.882 40.3464 159.527C39.8277 159.266 39.2991 158.923 38.7297 158.796C37.9459 158.621 37.1271 158.177 36.3407 158.146C35.8926 158.128 36.1906 155.414 36.224 155.139C36.4499 153.277 36.4665 151.439 36.4665 149.568C36.4665 148.363 34.2032 148.185 34.2032 146.85V144.656C34.2032 144.106 34.3688 142.882 34.787 142.462C37.2105 140.025 39.3588 137.338 41.2535 134.408C42.1971 132.948 43.3847 131.567 44.1903 130.029C44.6796 129.094 45.2313 128.135 45.8429 127.257C46.5037 126.308 47.522 124.977 47.9086 123.889C47.9508 123.77 48.0154 122.94 47.9086 123.239C47.7229 123.757 47.3892 124.185 47.1362 124.665C46.5838 125.714 45.7933 126.606 45.286 127.672C44.8874 128.51 44.1594 129.35 43.5489 130.055L43.5167 130.092C42.8947 130.81 42.5008 131.686 41.963 132.467C41.2725 133.469 40.3597 134.326 39.7716 135.401C38.6533 137.445 37.0592 139.336 35.5953 141.135C35.0395 141.818 34.9214 141.873 34.3649 141.234C33.7711 140.552 33.4447 139.763 33.0357 138.968C32.057 137.064 30 134.872 30 132.638C30 132.171 30.5915 131.928 30.934 131.618C31.4787 131.125 32.1141 130.811 32.6584 130.263C33.238 129.681 33.5954 128.852 34.2032 128.241C34.744 127.697 35.225 127.058 35.8198 126.579C36.8412 125.758 37.6536 124.811 38.6399 123.952Z" fill="#FFF8F8"/>
<path d="M47.6212 115.889C44.6417 118.58 41.6551 121.325 38.6399 123.952C37.6536 124.811 36.8412 125.758 35.8198 126.579C35.225 127.058 34.744 127.697 34.2032 128.241C33.5954 128.852 33.238 129.681 32.6584 130.263C32.1141 130.811 31.4787 131.125 30.934 131.618C30.5915 131.928 30 132.171 30 132.638C30 134.872 32.057 137.064 33.0357 138.968C33.4447 139.763 33.7711 140.552 34.3649 141.234C34.9214 141.873 35.0395 141.818 35.5953 141.135C37.0592 139.336 38.6533 137.445 39.7716 135.401C40.3597 134.326 41.2725 133.469 41.963 132.467C42.5008 131.686 42.8947 130.81 43.5167 130.092C44.1337 129.38 44.8804 128.525 45.286 127.672C45.7933 126.606 46.5838 125.714 47.1362 124.665C47.3892 124.185 47.7229 123.757 47.9086 123.239C48.0154 122.94 47.9508 123.77 47.9086 123.889C47.522 124.977 46.5037 126.308 45.8429 127.257C45.2313 128.135 44.6796 129.094 44.1903 130.029C43.3847 131.567 42.1971 132.948 41.2535 134.408C39.3588 137.338 37.2105 140.025 34.787 142.462C34.3688 142.882 34.2032 144.106 34.2032 144.656C34.2032 145.387 34.2032 146.119 34.2032 146.85C34.2032 148.185 36.4665 148.363 36.4665 149.568C36.4665 151.439 36.4499 153.277 36.224 155.139C36.1906 155.414 35.8926 158.128 36.3407 158.146C37.1271 158.177 37.9459 158.621 38.7297 158.796C39.2991 158.923 39.8277 159.266 40.3464 159.527C41.0516 159.882 41.8238 159.952 42.5288 160.267C45.0424 161.391 47.6124 162.119 50.2078 162.949C51.1485 163.25 52.149 163.569 53.1177 163.798C53.6057 163.913 54.4389 164.249 54.7343 163.671C55.3868 162.396 55.3936 160.682 55.5336 159.274C55.6299 158.306 55.4213 157.433 55.83 156.52C56.0313 156.071 56.058 155.536 56.1982 155.067C56.3635 154.513 56.6939 154.012 56.8359 153.441C57.0796 152.461 57.7206 151.6 58.0035 150.669C58.3228 149.619 59.255 148.716 59.665 147.663C60.0151 146.763 60.5298 145.758 61.0391 144.945C61.6263 144.007 62.1507 142.836 62.5659 141.812C63.348 139.882 64.4001 138.08 65.1615 136.123C65.5765 135.057 66.0517 134.071 66.4099 132.99C66.4867 132.759 66.6551 131.59 66.7781 131.491C67.2248 131.132 66.8589 128.169 66.8589 127.591C66.8589 121.303 66.6454 114.573 64.5148 108.575C64.3766 108.186 64.2681 107.114 63.949 106.914C63.7534 106.791 63.3407 106.145 63.1407 105.894C62.6895 105.326 61.3391 105.35 60.7158 105.072C59.8053 104.665 58.1625 104.483 57.1682 104.359C56.3299 104.253 55.3758 104.187 54.5367 104.187C54.0763 104.187 53.1758 103.678 52.956 104.34C52.8105 104.779 52.3174 105.681 52.022 106.011C51.6417 106.436 51.4766 107.076 51.1777 107.564C50.1215 109.289 49.546 111.212 48.4385 112.882C48.1273 113.351 48.0026 114.002 47.7469 114.516C47.51 114.993 47.08 115.427 46.9835 115.961C46.8978 116.435 45.8744 117.823 45.5196 118.002" stroke="black" stroke-linecap="round" stroke-linejoin="round"/>
<path d="M63.4646 34.9273C64.4469 33.9434 65.3678 32.8019 66.1899 31.6004C66.1866 31.6198 66.1839 31.6394 66.1818 31.6592C66.08 32.6279 65.3746 33.8579 65.0505 34.7958C64.5822 36.1509 63.982 37.4524 63.4545 38.8025C63.0586 39.816 62.3636 41.0369 62.3636 42.1313C62.3636 44.2385 61.4545 46.3841 61.4545 48.5562C61.4545 49.963 61.2515 51.1407 60.9495 52.5022C60.6304 53.9406 60.8792 55.5135 60.7172 56.9743C60.4326 59.5397 58.1091 61.2157 56.4444 62.8832C55.9564 63.372 54.9533 64.1365 54.7273 64.8157C54.6653 65.0019 53.9623 65.9407 53.8182 66.04C53.4713 66.2789 53.3463 66.9453 53.0909 67.3148C52.4444 68.2502 51.5907 68.9944 50.3636 68.9944C49.9302 68.9944 49.4974 69.0338 49.0808 68.9034C47.8828 68.5284 47.2009 67.6225 46.1818 67.0315C45.5331 66.6554 44.7613 65.3246 44.5051 64.583C44.0676 63.3172 44 62.3297 44 60.981C44 59.754 44.0364 58.7761 44.4646 57.6117C45.0214 56.0981 46.1127 55.0891 46.8081 53.6961C47.7405 51.8282 49.1817 50.1448 50.6869 48.6371C53.7146 45.6043 56.0672 41.9729 59.0909 38.9441C60.5006 37.5321 62.0582 36.3361 63.4646 34.9273Z" fill="#905C5C"/>
<path d="M68 28.5631C66.8432 30.8145 65.2561 33.1328 63.4646 34.9273C62.0582 36.3361 60.5006 37.5321 59.0909 38.9441C56.0672 41.9729 53.7146 45.6043 50.6869 48.6371C49.1817 50.1448 47.7405 51.8282 46.8081 53.6961C46.1127 55.0891 45.0214 56.0981 44.4646 57.6117C44.0364 58.7761 44 59.754 44 60.981C44 62.3297 44.0676 63.3172 44.5051 64.583C44.7613 65.3246 45.5331 66.6554 46.1818 67.0315C47.2009 67.6225 47.8828 68.5284 49.0808 68.9034C49.4974 69.0338 49.9302 68.9944 50.3636 68.9944C51.5907 68.9944 52.4444 68.2502 53.0909 67.3148C53.3463 66.9453 53.4713 66.2789 53.8182 66.04C53.9623 65.9407 54.6653 65.0019 54.7273 64.8157C54.9533 64.1365 55.9564 63.372 56.4444 62.8832C58.1091 61.2157 60.4326 59.5397 60.7172 56.9743C60.8792 55.5135 60.6304 53.9406 60.9495 52.5022C61.2515 51.1407 61.4545 49.963 61.4545 48.5562C61.4545 46.3841 62.3636 44.2385 62.3636 42.1313C62.3636 41.0369 63.0586 39.816 63.4545 38.8025C63.982 37.4524 64.5822 36.1509 65.0505 34.7958C65.3746 33.8579 66.08 32.6279 66.1818 31.6592C66.2385 31.1202 66.7629 30.7147 66.9091 30.2022C67.0808 29.6004 67.4695 28.8365 67.899 28.381C68.4661 27.7795 69.4538 27.1795 69.899 26.4788C70.2733 25.8897 71.147 24.9276 71.7273 24.4755C72.1185 24.1707 72.7383 23.4215 73.1919 23.2917C73.734 23.1366 74.5275 22.5756 74.9091 22.0978C75.2246 21.7027 76.0233 21.518 76.404 21.1366C76.8463 20.6936 77.6126 20.263 78.1818 19.9629C79.5018 19.267 80.7711 18.6155 82 18" stroke="black" stroke-linecap="round" stroke-linejoin="round"/>
<path d="M51.5069 86.3254C52.166 85.6656 52.9951 84.7864 53.9171 84.4605C54.271 84.889 54.7455 85.2913 55.1037 85.6708C55.3904 85.9747 55.6032 86.3494 55.8153 86.7104C56.011 87.0435 56.4654 87.2386 56.7482 87.4901C57.1385 87.8374 57.6083 88.1047 58.0272 88.395C58.2612 88.5571 58.5228 88.7807 58.7389 88.9629C58.905 89.1029 59.1729 89.1199 59.3255 89.2421C59.6448 89.4978 60.1111 89.7255 60.5372 89.7426C60.7197 89.7499 60.8569 89.9159 61.095 89.9159C61.343 89.9159 61.6383 89.9492 61.874 90.0218C62.47 90.2053 63.0504 90.3261 63.6916 90.349C64.422 90.3752 65.0716 90.7412 65.7881 90.7822C66.1247 90.8015 68 91.1029 68 91.3886C68 91.7312 67.6284 92.2673 67.3749 92.4956C66.9014 92.9222 66.5739 93.5887 66.0285 93.9877C65.7873 94.1641 65.5741 94.3579 65.365 94.5556C65.0875 94.8179 64.6848 94.8934 64.4321 95.2005C64.1158 95.585 63.565 95.8478 63.1723 96.1535C62.6103 96.591 62.1038 97.063 61.5086 97.453C60.4353 98.1562 59.6489 99.1285 58.6523 99.898C57.6076 100.705 56.5783 101.564 55.498 102.324C55.0681 102.626 54.7265 102.947 54.3295 103.286C53.971 103.592 53.5686 103.809 53.2668 104.182C52.6766 104.911 52.0995 105.636 51.5069 106.357C50.8114 107.204 50.5091 108.255 49.8913 109.149C49.8225 109.248 49.368 110.066 49.2181 109.996C48.9344 109.862 48.7458 109.586 48.5064 109.409C47.5802 108.722 47.0545 107.696 46.5542 106.675C46.0272 105.599 45.451 104.451 45.2559 103.257C44.8077 100.516 44.94 97.5972 45.7175 94.9599C45.9032 94.3302 46.1402 93.7941 46.4484 93.208C46.6727 92.7815 47.0418 92.3282 47.2081 91.8892C47.6352 90.7622 48.1916 89.625 48.9392 88.6549C49.6337 87.7538 50.6988 87.1343 51.5069 86.3254Z" fill="#E39163"/>
<path d="M54.2381 84.3713C53.1876 84.5816 52.2417 85.5899 51.5069 86.3254C50.6988 87.1343 49.6337 87.7538 48.9392 88.6549C48.1916 89.625 47.6352 90.7622 47.2081 91.8892C47.0418 92.3282 46.6727 92.7815 46.4484 93.208C46.1402 93.7941 45.9032 94.3302 45.7175 94.9599C44.94 97.5972 44.8077 100.516 45.2559 103.257C45.451 104.451 46.0272 105.599 46.5542 106.675C47.0545 107.696 47.5802 108.722 48.5064 109.409C48.7458 109.586 48.9344 109.862 49.2181 109.996C49.368 110.066 49.8225 109.248 49.8913 109.149C50.5091 108.255 50.8114 107.204 51.5069 106.357C52.0995 105.636 52.6766 104.911 53.2668 104.182C53.5686 103.809 53.971 103.592 54.3295 103.286C54.7265 102.947 55.0681 102.626 55.498 102.324C56.5783 101.564 57.6076 100.705 58.6523 99.898C59.6489 99.1285 60.4353 98.1562 61.5086 97.453C62.1038 97.063 62.6103 96.591 63.1723 96.1535C63.565 95.8478 64.1158 95.585 64.4321 95.2005C64.6848 94.8934 65.0875 94.8179 65.365 94.5556C65.5741 94.3579 65.7873 94.1641 66.0285 93.9877C66.5739 93.5887 66.9014 92.9222 67.3749 92.4956C67.6284 92.2673 68 91.7312 68 91.3886C68 91.1029 66.1247 90.8015 65.7881 90.7822C65.0716 90.7412 64.422 90.3752 63.6916 90.349C63.0504 90.3261 62.47 90.2053 61.874 90.0218C61.6383 89.9492 61.343 89.9159 61.095 89.9159C60.8569 89.9159 60.7197 89.7499 60.5372 89.7426C60.1111 89.7255 59.6448 89.4978 59.3255 89.2421C59.1729 89.1199 58.905 89.1029 58.7389 88.9629C58.5228 88.7807 58.2612 88.5571 58.0272 88.395C57.6083 88.1047 57.1385 87.8374 56.7482 87.4901C56.4654 87.2386 56.011 87.0435 55.8153 86.7104C55.6032 86.3494 55.3904 85.9747 55.1037 85.6708C54.6266 85.1652 53.9431 84.6194 53.613 84.0248C53.1481 83.1871 53.2861 82.1928 53.2861 81.2525C53.2861 80.8482 53.2861 80.4439 53.2861 80.0396C53.2861 79.6486 53.5457 79.3991 53.5457 79" stroke="black" stroke-linecap="round" stroke-linejoin="round"/>
<path d="M57.5476 85C57.4365 85.6733 57.1942 86.4387 57.1706 87.1261C57.1672 87.2241 57.2833 87.4458 57.1957 87.4189C56.9738 87.3507 56.924 86.7214 57.1329 86.6216C57.8059 86.3 58 87.4614 58 88" stroke="black" stroke-linecap="round" stroke-linejoin="round"/>
<path d="M48.3997 110.486C48.382 111.153 48.1948 111.717 48.0759 112.36C47.9706 112.928 47.9916 113.607 48.039 114.183C48.1112 115.06 48.5141 115.922 48.8425 116.726C49.0955 117.346 49.5981 118.17 50.1133 118.575C50.7126 119.046 51.4959 119.053 52.2368 118.939C53.376 118.765 54.4644 118.154 55.1883 117.218C55.6696 116.596 56 115.769 56 114.971C56 114.622 55.957 114.509 55.8196 114.225C55.6532 113.881 55.4389 113.579 55.2621 113.233C55.0482 112.814 54.7015 112.416 54.3807 112.084C54.2442 111.943 54.1685 111.809 54.0077 111.69C53.8295 111.558 53.5947 111.539 53.4338 111.384C53.1887 111.149 52.8243 111.024 52.495 110.944C52.0679 110.84 51.7196 110.603 51.2939 110.503C50.9722 110.427 50.2076 109.835 49.8755 110.045C49.5053 110.279 49.5003 111.416 49.3918 111.817C49.2388 112.382 49.0315 112.809 48.6949 113.292C48.3124 113.842 49.1047 111.99 49.4615 111.423C49.8222 110.849 49.7291 112.032 49.7279 112.198C49.7196 113.375 49.6372 114.529 49.3959 115.679C49.2792 116.235 49.0111 117.917 49.1499 117.366C49.3077 116.741 49.7681 116.154 50.0231 115.565C50.2872 114.954 50.5253 114.276 50.5396 113.598C50.5557 112.831 49.4565 113.744 49.2606 113.996C48.8771 114.488 48.7372 114.98 48.7687 115.599C48.7762 115.746 48.9129 115.751 49.0269 115.751C49.3173 115.751 49.3559 115.494 49.4328 115.238C49.568 114.789 49.7103 114.274 49.7279 113.801C49.7358 113.589 49.7291 113.76 49.7279 113.869C49.723 114.32 49.6911 114.768 49.6541 115.217C49.6007 115.866 49.3292 116.896 50.2403 116.896C51.0718 116.896 51.2923 115.448 51.4087 114.793C51.4361 114.638 51.4041 115.516 51.38 115.671C51.2976 116.201 51.1299 116.656 51.1299 117.201C51.1299 117.535 51.4475 118.911 51.9252 118.1C52.0313 117.92 52.3877 116.587 51.9375 117.053C51.7885 117.207 51.6543 117.372 51.6464 117.6C51.6356 117.914 51.8875 117.817 52.1466 117.812C52.9255 117.794 53.4947 117.198 53.9708 116.62C54.1343 116.422 54.206 116.203 54.2865 115.963C54.3828 115.675 54.3831 116.129 54.3602 116.226C54.232 116.768 53.5034 117.473 52.9705 117.502C52.0874 117.55 51.0847 117.455 50.2772 117.048C50.0858 116.952 50.226 116.875 50.3715 116.909C50.7692 117 51.084 117.249 51.4989 117.316C52.3151 117.447 52.7912 116.755 53.2534 116.15C53.5495 115.762 53.8379 115.6 54.2701 115.404C54.7283 115.195 54.954 114.943 54.967 115.641C54.9707 115.841 54.967 116.042 54.967 116.243C54.967 116.57 54.9408 115.975 54.9301 115.9C54.8661 115.45 54.8983 115.071 54.6554 114.666C54.1963 113.9 53.5939 113.474 52.8271 113.08C52.3303 112.825 51.6032 112.393 51.0192 112.393C50.8431 112.393 50.5056 112.246 50.4494 112.071C50.3881 111.881 50.2599 111.096 50.5806 111.096C50.9209 111.096 51.3999 111.394 51.6956 111.571C52.1762 111.858 52.711 112.02 53.196 112.271C53.4719 112.413 53.7289 112.53 54.0077 112.682C54.2231 112.799 54.3766 113.016 54.3766 113.271C54.3766 113.737 54.0118 113.788 53.6551 113.996C53.3682 114.164 53.1359 114.349 52.7943 114.373C52.1545 114.419 51.8583 113.904 51.4538 113.466C51.2193 113.212 50.9689 112.975 50.6954 112.767C50.6259 112.714 50.3986 112.638 50.4412 112.716C50.7499 113.277 51.265 113.706 51.63 114.225C52.0117 114.768 52.1991 115.432 52.5278 116.01C52.5826 116.106 52.8905 116.855 53.0115 116.535C53.1355 116.208 53.2123 115.855 53.3272 115.522C53.4563 115.148 53.4875 115.026 53.2698 115.429C53.1665 115.62 53.0574 115.798 52.9787 116.001C52.8734 116.274 53.2339 115.477 53.3723 115.221C53.415 115.142 53.561 114.647 53.565 114.742C53.5716 114.9 53.5565 115.059 53.565 115.217C53.5725 115.357 53.7918 115.28 53.8642 115.247C54.45 114.974 53.6174 115.825 53.4953 115.938C53.0682 116.333 52.7574 116.804 52.3843 117.201C52.163 117.437 51.7465 117.836 51.4251 117.884C51.2718 117.906 51.1096 117.862 50.9577 117.888C50.808 117.914 51.2549 117.954 51.4005 117.998C51.7184 118.095 52.0309 118.201 52.3597 118.253C52.4084 118.26 52.6552 118.317 52.6754 118.223C52.7012 118.103 52.7067 117.964 52.5688 117.964C52.2859 117.964 52.0031 117.964 51.7202 117.964" stroke="black" stroke-linecap="round" stroke-linejoin="round"/>
<line x1="136.727" y1="130.984" x2="154.981" y2="114.134" stroke="black" stroke-width="0.25"/>
<line x1="136.727" y1="136.601" x2="154.981" y2="119.751" stroke="black" stroke-width="0.25"/>
<line x1="138.132" y1="140.813" x2="156.386" y2="123.963" stroke="black" stroke-width="0.25"/>
<line x1="138.132" y1="147.834" x2="156.386" y2="130.984" stroke="black" stroke-width="0.25"/>
<line x1="136.727" y1="126.772" x2="154.981" y2="109.922" stroke="black" stroke-width="0.25"/>
<path d="M187.15 79.546C187.976 80.3736 188.775 81.162 189.529 81.9913C190.295 82.8325 191.015 83.7156 191.674 84.7241C192.475 85.9502 193.402 87.4824 193.964 88.7462C194.35 89.6146 195.26 90.3581 195.748 91.2117C196.169 91.9484 196.338 92.8407 196.684 93.59C197.044 94.3702 197.001 95.2369 197.253 96.0431C197.487 96.7901 197.947 97.4232 198.164 98.1724C198.622 99.7489 199.994 100.916 200.492 102.431C201.071 104.191 202.069 105.778 202.542 107.586C203.046 109.516 204.046 111.224 204.49 113.19C204.963 115.283 204.195 117.658 205.173 119.69C206.36 122.155 206.402 125.075 207.159 127.759C208.256 131.643 207.956 135.734 207.956 139.762C207.956 143.353 208.677 150.454 204.262 151.791C201.962 152.488 199.338 153.086 196.899 153.086C193.982 153.086 191.084 154.16 188.245 154.668C186.989 154.892 185.777 155.502 184.45 155.552C183.248 155.597 182.25 156 181.085 156C177.23 156 173.459 155.552 169.648 155.552C166.299 155.552 163.102 154.655 159.792 154.655C155.078 154.655 150.391 154.431 145.674 154.431C143.426 154.431 141.023 154.332 138.728 154.207C137.541 154.142 138.001 152.295 138.728 151.916C139.746 151.385 140.778 150.753 141.916 150.222C143.216 149.616 144.361 149.025 145.56 148.267C146.663 147.569 148.031 146.22 148.52 145.017C148.943 143.976 149.932 143.362 150.557 142.44C151.358 141.258 151.501 140.483 151.721 139.078C152.127 136.479 152.619 133.953 152.619 131.295V127.31C152.619 126.159 153.042 124.099 152.569 123.052C152.181 122.193 152.111 122.027 153.302 121.943C154.133 121.885 154.862 121.707 155.706 121.707C157.287 121.707 158.79 121.034 160.374 121.034C162.274 121.034 164.4 120.39 166.283 120.125C167.856 119.904 169.52 118.982 170.951 118.332C173.75 117.061 176.7 115.931 179.668 115.033C180.641 114.738 182.599 114.206 183.362 113.538C184.16 112.84 185.168 111.83 186.095 111.347C188.076 110.314 187.148 107.802 186.541 106.161L186.525 106.117C185.513 103.379 183.943 100.365 182.122 98.0603C180.546 96.0658 179.259 92.8652 176.986 91.4981C176.558 91.2409 175.956 90.534 175.569 90.1533C175.254 89.8436 174.846 89.6909 174.531 89.3812C174.082 88.9393 172.187 88.2324 172.71 87.8621C173.129 87.5647 173.767 87.1947 174.127 86.841C174.405 86.5665 174.942 86.4544 175.164 86.181C175.679 85.5476 176.826 85.3457 177.454 84.6245C178.561 83.353 180.646 82.777 181.54 81.2375C181.886 80.6417 182.97 79.9415 183.59 79.6188C184.156 79.3239 185.115 78.1023 185.96 78.3366C186.066 78.366 186.171 78.4183 186.272 78.4981C186.61 78.7641 186.887 79.139 187.15 79.546Z" fill="#4C4599"/>
<path d="M185.639 78C187.87 80.3598 189.977 82.126 191.674 84.7241C192.475 85.9502 193.402 87.4824 193.964 88.7462C194.35 89.6146 195.26 90.3581 195.748 91.2117C196.169 91.9484 196.338 92.8407 196.684 93.59C197.044 94.3702 197.001 95.2369 197.253 96.0431C197.487 96.7901 197.947 97.4232 198.164 98.1724C198.622 99.7489 199.994 100.916 200.492 102.431C201.071 104.191 202.069 105.778 202.542 107.586C203.046 109.516 204.046 111.224 204.49 113.19C204.963 115.283 204.195 117.658 205.173 119.69C206.36 122.155 206.402 125.075 207.159 127.759C208.256 131.643 207.956 135.734 207.956 139.762C207.956 143.353 208.677 150.454 204.262 151.791C201.962 152.488 199.338 153.086 196.899 153.086C193.982 153.086 191.084 154.16 188.245 154.668C186.989 154.892 185.777 155.502 184.45 155.552C183.248 155.597 182.25 156 181.085 156C177.23 156 173.459 155.552 169.648 155.552C166.299 155.552 163.102 154.655 159.792 154.655C155.078 154.655 150.391 154.431 145.674 154.431C143.426 154.431 141.023 154.332 138.728 154.207C137.541 154.142 138.001 152.295 138.728 151.916C139.746 151.385 140.778 150.753 141.916 150.222C143.216 149.616 144.361 149.025 145.56 148.267C146.663 147.569 148.031 146.22 148.52 145.017C148.943 143.976 149.932 143.362 150.557 142.44C151.358 141.258 151.501 140.483 151.721 139.078C152.127 136.479 152.619 133.953 152.619 131.295C152.619 129.967 152.619 128.639 152.619 127.31C152.619 126.159 153.042 124.099 152.569 123.052C152.181 122.193 152.111 122.027 153.302 121.943C154.133 121.885 154.862 121.707 155.706 121.707C157.287 121.707 158.79 121.034 160.374 121.034C162.274 121.034 164.4 120.39 166.283 120.125C167.856 119.904 169.52 118.982 170.951 118.332C173.75 117.061 176.7 115.931 179.668 115.033C180.641 114.738 182.599 114.206 183.362 113.538C184.16 112.84 185.168 111.83 186.095 111.347C188.094 110.305 187.131 107.757 186.525 106.117C185.513 103.379 183.943 100.365 182.122 98.0603C180.546 96.0658 179.259 92.8652 176.986 91.4981C176.558 91.2409 175.956 90.534 175.569 90.1533C175.254 89.8436 174.846 89.6909 174.531 89.3812C174.082 88.9393 172.187 88.2324 172.71 87.8621C173.129 87.5647 173.767 87.1947 174.127 86.841C174.405 86.5665 174.942 86.4544 175.164 86.181C175.679 85.5476 176.826 85.3457 177.454 84.6245C178.561 83.353 180.646 82.777 181.54 81.2375C181.886 80.6417 182.97 79.9415 183.59 79.6188C184.227 79.287 185.362 77.7815 186.272 78.4981C187.541 79.4976 187.956 82.0345 189.966 82.0345" stroke="black" stroke-linecap="round" stroke-linejoin="round"/>
<path d="M146.378 121C143.488 121 141.175 120.754 138.333 119.957C138.138 119.796 138.021 119.537 138.021 119.059C138.021 118.068 137.915 116.958 138.176 116.057C138.455 115.092 138.453 114.052 139.578 113.559C140.648 113.089 141.613 112.463 142.737 112.067C144.092 111.589 145.203 110.531 146.506 110.036C146.995 109.85 147.679 109.528 148.017 109.11C148.154 108.941 148.826 108.258 148.927 108.23C149.38 108.102 149.665 107.371 149.983 107.016C150.369 106.588 150.927 106.059 151.212 105.551C151.683 104.715 152.486 104.132 152.969 103.368C153.432 102.637 155.047 102.296 155.846 102.235C157.192 102.133 159.095 101.423 160.234 100.708C162.6 99.221 164.878 97.4437 166.443 95.0817C167.256 93.8544 167.136 92.9926 167.025 91.6846C166.973 91.068 166.37 90.6402 166.37 90.0221C166.37 89.3411 167.087 89.5592 167.599 89.4469C169.717 88.9822 171.576 88 173.826 88C175.977 88 176.948 90.8505 178.168 92.2059C178.987 93.1155 179.384 94.2145 180.298 95.1176C181.356 96.1622 182.186 97.6116 183.33 98.5147C183.807 98.8914 184.099 99.3793 184.686 99.6111C185.051 99.7553 185.73 100.49 185.87 100.869C186.132 101.58 186.271 102.362 186.562 103.044C186.677 103.314 186.603 103.709 186.78 103.934C186.948 104.147 187.147 104.383 187.181 104.662C187.227 105.051 187.836 105.232 187.836 105.551C187.836 106.264 188 107.063 188 107.825L188 107.87C188 108.653 188.001 111.034 187.253 111.456C186.26 112.016 185.413 112.819 184.304 113.316C182.897 113.948 181.364 114.363 179.971 115.051C178.315 115.868 176.209 116.324 174.399 116.758C172.394 117.24 170.42 118.003 168.345 118.259C166.5 118.487 164.394 118.972 162.601 119.463C161.316 119.816 159.708 119.971 158.377 120.029C157.227 120.08 156.1 120.353 154.936 120.353C154.107 120.353 153.416 120.51 152.605 120.641C151.849 120.763 151.073 120.64 150.311 120.757C149.024 120.956 147.682 121 146.378 121Z" fill="#E39163"/>
<path d="M138.021 119.868C141.007 120.736 143.383 121 146.378 121C147.682 121 149.024 120.956 150.311 120.757C151.073 120.64 151.849 120.763 152.605 120.641C153.416 120.51 154.107 120.353 154.936 120.353C156.1 120.353 157.227 120.08 158.377 120.029C159.708 119.971 161.316 119.816 162.601 119.463C164.394 118.972 166.5 118.487 168.345 118.259C170.42 118.003 172.394 117.24 174.399 116.758C176.209 116.324 178.315 115.868 179.971 115.051C181.364 114.363 182.897 113.948 184.304 113.316C185.413 112.819 186.26 112.016 187.253 111.456C188.016 111.026 188 108.557 188 107.825C188 107.063 187.836 106.264 187.836 105.551C187.836 105.232 187.227 105.051 187.181 104.662C187.147 104.383 186.948 104.147 186.78 103.934C186.603 103.709 186.677 103.314 186.562 103.044C186.271 102.362 186.132 101.58 185.87 100.869C185.73 100.49 185.051 99.7553 184.686 99.6111C184.099 99.3793 183.807 98.8914 183.33 98.5147C182.186 97.6116 181.356 96.1622 180.298 95.1176C179.384 94.2145 178.987 93.1155 178.168 92.2059C176.948 90.8505 175.977 88 173.826 88C171.576 88 169.717 88.9822 167.599 89.4469C167.087 89.5592 166.37 89.3411 166.37 90.0221C166.37 90.6402 166.973 91.068 167.025 91.6846C167.136 92.9926 167.256 93.8544 166.443 95.0817C164.878 97.4437 162.6 99.221 160.234 100.708C159.095 101.423 157.192 102.133 155.846 102.235C155.047 102.296 153.432 102.637 152.969 103.368C152.486 104.132 151.683 104.715 151.212 105.551C150.927 106.059 150.369 106.588 149.983 107.016C149.665 107.371 149.38 108.102 148.927 108.23C148.826 108.258 148.154 108.941 148.017 109.11C147.679 109.528 146.995 109.85 146.506 110.036C145.203 110.531 144.092 111.589 142.737 112.067C141.613 112.463 140.648 113.089 139.578 113.559C138.453 114.052 138.455 115.092 138.176 116.057C137.915 116.958 138.021 118.068 138.021 119.059C138.021 120.35 138.872 120.045 139.824 120.515" stroke="black" stroke-linecap="round" stroke-linejoin="round"/>
<path d="M134.483 109C135.422 110.414 136.297 111.904 137.263 113.293C137.408 113.502 137.627 113.567 137.752 113.8C137.88 114.039 138.149 114.185 138.279 114.4C138.375 114.559 138.467 114.85 138.562 114.973C138.859 115.357 138.653 116.573 138.653 117.04C138.653 117.833 138.537 118.597 138.537 119.38C138.537 119.802 137.31 120.04 136.973 120.04C136.757 120.04 136.272 120.296 136.047 120.4C135.751 120.536 135.467 120.704 135.178 120.853C134.469 121.221 133.89 121.77 133.209 122.173C132.637 122.512 131.832 123.244 131.183 123.393C130.746 123.494 130.344 124 129.909 124C129.352 124 129.365 122.62 129.388 122.2C129.409 121.804 130.456 121.243 130.777 121.093C130.982 120.998 131.89 120.503 131.813 120.227C131.688 119.773 129.88 119.8 129.51 119.8C128.774 119.8 128.039 119.8 127.303 119.8C126.999 119.8 126.911 118.603 127.097 118.507C127.609 118.241 128.778 118.48 129.388 118.48C129.754 118.48 130.121 118.48 130.488 118.48C130.988 118.48 130.777 117.289 130.777 116.973C130.777 116.73 130.836 116.383 130.771 116.147C130.692 115.859 129.865 115.968 129.645 115.96C129.237 115.944 128.822 115.795 128.461 115.627C128.194 115.502 127.816 115.576 127.535 115.453C127.142 115.282 126.953 113.92 127.483 113.92C128.908 113.92 130.365 113.92 131.82 113.92C132.447 113.92 132.771 113.923 133.004 113.227C133.248 112.497 133.209 111.821 133.209 111.047C133.209 110.504 133.209 109.962 133.209 109.42C133.209 108.964 134.456 108.963 134.483 109.48C134.507 109.927 134.537 110.388 134.303 110.773C134.128 111.062 134.033 111.399 134.02 111.733C134.001 112.25 133.991 112.974 133.898 113.507C133.647 114.934 132.025 114.76 130.919 114.76C130.331 114.76 129.744 114.76 129.156 114.76C128.912 114.76 128.18 114.732 128.423 114.76C128.897 114.815 129.375 114.903 129.845 115C130.969 115.233 132.389 116.541 131.414 117.753C130.608 118.756 131.053 119.839 131.009 121.027C130.99 121.537 130.561 122.017 130.404 122.467C130.246 122.923 129.98 123.4 130.623 122.893C131.366 122.308 132.145 121.886 132.984 121.48C133.996 120.991 134.954 120.397 135.867 119.747C135.975 119.669 136.807 119.151 136.536 119.52C135.881 120.41 134.531 120.428 133.557 120.547C133.281 120.58 132.676 120.779 132.399 120.613C131.912 120.321 131.936 119.218 131.936 118.72C131.936 117.663 132.399 116.7 132.399 115.653C132.399 115.385 132.515 114.701 132.515 115.393C132.515 116.14 132.515 116.887 132.515 117.633C132.515 118.013 132.515 118.393 132.515 118.773C132.515 118.953 132.435 119.893 132.566 119.427C132.971 117.98 133.137 116.52 133.3 115.027C133.333 114.717 133.325 113.782 133.325 114.093C133.325 114.467 133.325 114.84 133.325 115.213C133.325 116.485 133.334 117.718 133.036 118.953C132.996 119.118 132.838 119.734 133.158 119.673C134.105 119.495 134.332 117.359 134.419 116.627C134.559 115.442 134.483 114.221 134.483 113.027C134.483 112.323 134.459 112.793 134.342 113.08C134.223 113.372 134.252 114.344 134.252 114.027C134.252 113.202 134.222 112.371 134.252 111.547C134.262 111.271 134.937 112.698 135.005 113.02C135.212 114.008 135.389 115.117 135.873 116.013C136.427 117.038 136.301 116.168 136.214 115.4C136.096 114.361 135.829 113.307 135.757 112.267C135.747 112.12 135.41 111.411 135.41 111.693C135.41 112.339 135.839 112.627 136.015 113.173C136.272 113.974 136.705 114.763 137.199 115.42C137.486 115.803 137.61 116.63 137.61 117.107C137.61 117.892 137.448 118.048 136.915 118.6C136.682 118.841 135.658 120.645 135.642 119.507C135.627 118.502 135.968 117.573 135.989 116.587C135.989 116.58 136.032 116.083 136.079 116.253C136.227 116.79 135.58 117.673 135.358 118.113C135.165 118.498 134.902 118.929 134.837 119.367C134.825 119.451 134.767 119.664 134.721 119.593C134.475 119.211 134.808 117.748 134.889 117.28C134.91 117.155 134.948 116.679 134.953 116.713C135.004 117.029 135.109 117.342 135.236 117.633C135.411 118.037 135.717 118.161 135.899 118.48C136.434 119.423 137.263 116.853 137.263 117.787C137.263 118.094 137.147 118.682 137.289 118.96C137.387 119.152 138.248 119.671 138.299 119.307C138.43 118.356 138.074 117.431 138.074 116.5C138.074 116.311 138.104 115.657 138.369 116.107C138.629 116.546 138.787 118.603 139 117.28" stroke="black" stroke-linecap="round" stroke-linejoin="round"/>
<path d="M53 104.284C55.4334 104.377 57.8781 105.599 60.2481 106.21C61.4531 106.52 62.723 106.706 63.9557 106.852C64.6523 106.934 65.2977 107.231 65.9932 107.333C69.1021 107.791 72.1097 107.916 75.2454 107.975C79.2641 108.052 83.1886 109.181 87.1781 109.643C91.3062 110.121 95.4329 110.376 99.5366 111.025C102.561 111.503 105.576 112.06 108.613 112.505C111.107 112.87 113.539 113.966 116.029 114.199C117.726 114.358 119.534 114.265 121.206 114.627C123.558 115.135 125.958 115.358 128.37 115.358C129.542 115.358 130.607 115.839 131.794 115.839C133.295 115.839 134.757 116 136.262 116C137.039 116 138.514 116.015 139.009 115.198C139.338 114.654 140.052 113.984 140.479 113.503C140.844 113.091 141.318 112.857 141.681 112.469C142.088 112.034 142.531 111.968 142.967 111.586C143.489 111.13 143.933 110.628 144.462 110.151C145.646 109.081 146.663 107.952 147.76 106.781C148.455 106.038 148.979 105.229 149.681 104.48C150.098 104.035 150.738 103.559 151 103" stroke="black" stroke-linecap="round" stroke-linejoin="round"/>
<path d="M135 117C135 119.706 135.727 122.373 135.727 125.082C135.727 126.304 135.982 127.495 136.172 128.705C136.371 129.975 136.262 131.225 136.535 132.492C137.02 134.74 136.587 137.059 136.96 139.311C137.155 140.492 137.404 141.661 137.535 142.836C137.62 143.589 138.068 144.283 138.091 145.033C138.109 145.635 138.455 146.14 138.455 146.721C138.455 147.641 138.605 148.587 138.636 149.525C138.677 150.746 139 151.778 139 153" stroke="black" stroke-linecap="round" stroke-linejoin="round"/>
<line x1="65.2153" y1="111.294" x2="135.423" y2="119.719" stroke="black" stroke-width="0.25"/>
<line x1="65.2153" y1="114.102" x2="135.423" y2="122.527" stroke="black" stroke-width="0.25"/>
<line x1="66.6196" y1="118.314" x2="136.827" y2="126.739" stroke="black" stroke-width="0.25"/>
<line x1="66.6196" y1="122.527" x2="136.827" y2="130.952" stroke="black" stroke-width="0.25"/>
<line x1="66.6196" y1="125.335" x2="136.827" y2="133.76" stroke="black" stroke-width="0.25"/>
<line x1="66.6196" y1="129.548" x2="136.827" y2="137.973" stroke="black" stroke-width="0.25"/>
<line x1="66.6196" y1="132.356" x2="136.827" y2="140.781" stroke="black" stroke-width="0.25"/>
<line x1="65.2148" y1="135.164" x2="138.231" y2="143.589" stroke="black" stroke-width="0.25"/>
<line x1="63.8104" y1="139.377" x2="138.231" y2="147.802" stroke="black" stroke-width="0.25"/>
<line x1="62.4061" y1="143.589" x2="138.23" y2="152.014" stroke="black" stroke-width="0.25"/>
<path d="M131 45C132.384 46.0811 133.746 47.4132 135.463 47.7834C136.062 47.9126 136.652 48.0035 137.258 48.1021C138.376 48.2841 139.531 48.2343 140.656 48.3926C142.451 48.645 144.28 48.6269 146.097 48.6269C147.034 48.6269 147.971 48.6269 148.908 48.6269C149.729 48.6269 150.494 48.7211 151.303 48.7909C153.045 48.9412 155.293 48.3579 155.792 50.7777C155.962 51.6035 156.069 52.7103 155.948 53.5611C155.687 55.3942 153.885 55.7571 152.511 56.1805C151.81 56.3965 150.968 56.4576 150.242 56.5554C149.794 56.6158 149.361 56.7193 148.908 56.7663C148.277 56.8317 147.642 56.7599 147.018 56.8928C146.204 57.0662 145.324 56.9771 144.497 56.9771C143.87 56.9771 143.253 57.0099 142.638 56.874C141.501 56.6233 140.399 56.3014 139.291 55.9462C138.864 55.8092 138.468 55.5908 138.04 55.4589C137.751 55.3698 137.314 55.1662 137.058 54.9903C134.854 53.4781 135.146 50.2893 135.146 47.7834" stroke="black" stroke-linecap="round" stroke-linejoin="round"/>
<path d="M93 50C92.6414 50.5488 92.1446 51.1902 91.6287 51.6187C91.2122 51.9646 90.9032 52.4179 90.4925 52.7779C89.8715 53.3224 89.3272 53.9635 88.4988 54.1905C88.2559 54.257 88.0947 54.4248 87.8675 54.5125C87.6028 54.6147 87.313 54.6447 87.0448 54.753C86.3701 55.0252 85.6329 54.9505 84.9639 55.178C84.3953 55.3714 83.7056 55.3573 83.1095 55.4871C82.4302 55.6351 81.7737 55.7187 81.0896 55.8135C79.8629 55.9833 78.5971 56.1987 77.3675 56.2643C76.7338 56.2981 75.9861 56.359 75.3868 56.5691C75.0094 56.7015 74.5322 56.7533 74.194 56.9727C73.3452 57.5235 72 57.8674 72 59.1152C72 60.0492 72.6518 60.7896 73.3147 61.4208C74.3045 62.3634 75.8772 62.8133 77.2108 62.9107C78.5415 63.0079 79.8906 63.0144 81.2289 62.9837C81.7844 62.9709 82.3436 62.6956 82.8918 62.5973C83.4792 62.4919 84.0655 62.3571 84.6549 62.2495C85.2389 62.1428 85.8478 62.19 86.4353 62.1164C87.1042 62.0326 87.636 61.8033 88.2463 61.5325C89.2152 61.1024 90.1003 60.3193 90.3358 59.2741C90.5011 58.5404 90.4925 57.7687 90.4925 57.0157C90.4925 55.8872 90.3803 54.7435 89.3955 54.096" stroke="black" stroke-linecap="round" stroke-linejoin="round"/>
<path d="M110.368 63.0641C110.125 63.3011 109.885 63.5471 109.651 63.7941C109.54 63.7159 109.432 63.6325 109.333 63.5711C108.899 63.3022 108.453 63.0628 108.046 62.737C107.322 62.1568 106.567 61.5946 105.794 61.0949C105.366 60.8184 104.938 60.4763 104.541 60.1483C104.108 59.79 103.621 59.5201 103.185 59.1626C102.617 58.6974 101.827 58.2325 102.034 57.3342C102.104 57.0279 102.131 56.7999 102.276 56.5045C102.523 55.9996 102.831 55.558 103.115 55.0855C103.306 54.7669 103.584 54.5243 103.814 54.2428C104.226 53.7388 104.642 53.2902 105.167 52.9235C105.641 52.5922 106.151 52.194 106.691 51.9985C107.194 51.8168 107.716 51.6256 108.204 51.4028C109.343 50.8829 110.664 51.015 111.871 51.015C112.832 51.015 113.816 51.2376 114.728 51.5522C115.95 51.9737 117.231 52.3898 118.277 53.2203C118.665 53.5289 119.075 53.7973 119.458 54.115C119.643 54.2687 119.992 54.6397 119.999 54.9144C120.011 55.3927 119.878 55.7475 119.568 56.0842C119.395 56.2712 119.184 56.4107 119.008 56.5911C118.64 56.9694 118.223 57.3402 117.813 57.6656C117.26 58.1049 116.704 58.5231 116.131 58.9308C115.629 59.2874 115.186 59.7307 114.668 60.0616C114.275 60.3128 113.859 60.5184 113.489 60.8112C112.892 61.2839 112.266 61.7181 111.653 62.1673C111.226 62.4803 110.755 62.6858 110.368 63.0641Z" fill="#4E1717"/>
<path d="M109.641 63.805C109.878 63.5544 110.122 63.3046 110.368 63.0641C110.755 62.6858 111.226 62.4803 111.653 62.1673C112.266 61.7181 112.892 61.2839 113.489 60.8112C113.859 60.5184 114.275 60.3128 114.668 60.0616C115.186 59.7307 115.629 59.2874 116.131 58.9308C116.704 58.5231 117.26 58.1049 117.813 57.6656C118.223 57.3402 118.64 56.9694 119.008 56.5911C119.184 56.4107 119.395 56.2712 119.568 56.0842C119.878 55.7475 120.011 55.3927 119.999 54.9144C119.992 54.6397 119.643 54.2687 119.458 54.115C119.075 53.7973 118.665 53.5289 118.277 53.2203C117.231 52.3898 115.95 51.9737 114.728 51.5522C113.816 51.2376 112.832 51.015 111.871 51.015C110.664 51.015 109.343 50.8829 108.204 51.4028C107.716 51.6256 107.194 51.8168 106.691 51.9985C106.151 52.194 105.641 52.5922 105.167 52.9235C104.642 53.2902 104.226 53.7388 103.814 54.2428C103.584 54.5243 103.306 54.7669 103.115 55.0855C102.831 55.558 102.523 55.9996 102.276 56.5045C102.131 56.7999 102.104 57.0279 102.034 57.3342C101.827 58.2325 102.617 58.6974 103.185 59.1626C103.621 59.5201 104.108 59.79 104.541 60.1483C104.938 60.4763 105.366 60.8184 105.794 61.0949C106.567 61.5946 107.322 62.1568 108.046 62.737C108.453 63.0628 108.899 63.3022 109.333 63.5711C109.545 63.7026 109.798 63.9353 110.036 64" stroke="black" stroke-linecap="round" stroke-linejoin="round"/>
<path d="M109 64C109 64.9294 109 65.8455 109 66.7725C109 67.2349 109 67.5635 109 68" stroke="black" stroke-linecap="round" stroke-linejoin="round"/>
<path d="M110 68C110.755 68.6255 111.608 69.0634 112.402 69.6156C112.679 69.8083 112.881 70.0838 113.129 70.3183C113.402 70.5767 113.718 70.8139 114.025 71.019C114.479 71.3228 115.055 71.3803 115.49 71.7097C115.643 71.8254 115.835 71.9064 116 72" stroke="black" stroke-linecap="round" stroke-linejoin="round"/>
<path d="M110.005 69C109.931 70.5515 110.729 71.7376 110.897 73.2096C110.927 73.4771 111 73.7181 111 74" stroke="black" stroke-linecap="round" stroke-linejoin="round"/>
<path d="M92 45C92.9247 44.1643 94.1058 43.3438 94.8198 42.287C94.8907 42.1821 94.9222 42.08 95 42" stroke="black" stroke-linecap="round" stroke-linejoin="round"/>
<path d="M122 38C122.028 39.1794 122.84 39.7739 123.852 40.4356C124.789 41.048 125.843 41.8082 127 42" stroke="black" stroke-linecap="round" stroke-linejoin="round"/>
<path d="M142.802 60.8456C142.787 60.8082 142.773 60.7709 142.759 60.7337C142.751 60.7175 142.742 60.7015 142.734 60.6855C142.608 60.4423 142.368 60.2634 142.231 60.0101C142.038 59.6553 142.011 59.4865 142.011 59.0646C142.011 58.6242 141.878 57.6237 142.539 57.6237C143.165 57.6237 143.865 57.4436 144.542 57.4436C145.08 57.4436 145.603 57.2635 146.149 57.2635C146.806 57.2635 147.589 57.1472 148.211 56.9533C148.731 56.7915 149.343 56.8648 149.877 56.7432C150.475 56.6071 151.112 56.4516 151.724 56.368C152.245 56.2969 152.749 56.0225 153.288 56.0027C153.706 55.9875 153.808 56.0305 154.104 56.2729C154.339 56.4657 154.356 57.1364 154.412 57.4136C154.536 58.0327 154.43 58.6356 154.505 59.2497C154.604 60.0633 154.808 60.8616 154.92 61.6761C155.046 62.5922 155.173 63.5595 155.516 64.4228C156.045 65.7534 156.563 66.3924 157.622 67.3095C158.672 68.219 158.599 69.7107 158.15 70.9066C157.979 71.361 157.871 71.8359 157.627 72.2724C157.209 73.0178 156.971 73.5041 157.055 74.3687C157.124 75.0691 157.553 75.7627 158.018 76.2648C158.566 76.8574 158.936 77.5232 159.249 78.266C159.495 78.8489 159.831 79.3747 160.085 79.952C160.448 80.7789 161.094 81.5551 160.988 82.4885C160.902 83.2518 160.566 83.8384 160.089 84.4146C159.889 84.6577 159.659 84.8718 159.425 85.085C159.152 85.3331 158.883 85.8491 158.545 85.9706C158.288 86.0633 157.167 86.1486 157.06 86.3958C156.923 86.7107 157.333 87.3574 157.47 87.6115C157.671 87.9805 158.256 88.1258 158.545 88.422C158.94 88.8257 159.497 88.9159 159.884 89.3426C160.436 89.9511 160.568 90.6042 160.568 91.3938C160.568 91.9631 160.303 93.8181 159.65 93.9853C159.339 94.0647 158.763 93.7997 158.457 93.7152C158.203 93.6447 157.966 93.5737 157.705 93.5101C157.227 93.3934 155.857 93.5528 155.819 92.8347C155.733 91.1971 156.565 89.6406 155.951 88.0068C155.811 87.6338 155.558 87.1382 155.223 86.8911C154.758 86.5487 154.201 86.3877 153.752 86.0306C152.956 85.3969 152.917 84.0006 152.917 83.0138C152.917 82.2613 152.597 81.5137 152.565 80.7475C152.542 80.1935 152.38 79.6461 152.164 79.1415C151.834 78.3681 150.898 78.2482 150.581 77.4555C150.367 76.9201 150.349 76.2272 150.195 75.6744C149.796 74.2456 149.874 72.7449 149.702 71.2818C149.563 70.1079 149.4 68.9788 148.803 67.9599C148.429 67.3218 148.198 66.48 147.679 65.9487C147.501 65.7669 147.333 65.5786 147.17 65.3869C146.682 64.8142 146.24 64.2121 145.736 63.6691C145.473 63.5843 145.205 63.5114 145.001 63.4072C144.241 63.0179 143.6 62.177 143.129 61.395C142.99 61.212 142.876 61.0255 142.802 60.8456Z" fill="#65B9DD"/>
<path d="M142.539 58.4342C142.539 59.3058 142.476 60.0466 142.802 60.8456C143.067 61.4923 143.857 62.2245 144.429 62.5717C145.816 63.4131 146.567 64.8103 147.679 65.9487C148.198 66.48 148.429 67.3218 148.803 67.9599C149.4 68.9788 149.563 70.1079 149.702 71.2818C149.874 72.7449 149.796 74.2456 150.195 75.6744C150.349 76.2272 150.367 76.9201 150.581 77.4555C150.898 78.2482 151.834 78.3681 152.164 79.1415C152.38 79.6461 152.542 80.1935 152.565 80.7475C152.597 81.5137 152.917 82.2613 152.917 83.0138C152.917 84.0006 152.956 85.3969 153.752 86.0306C154.201 86.3877 154.758 86.5487 155.223 86.8911C155.558 87.1382 155.811 87.6338 155.951 88.0068C156.565 89.6406 155.733 91.1971 155.819 92.8347C155.857 93.5528 157.227 93.3934 157.705 93.5101C157.966 93.5737 158.203 93.6447 158.457 93.7152C158.763 93.7997 159.339 94.0647 159.65 93.9853C160.303 93.8181 160.568 91.9631 160.568 91.3938C160.568 90.6042 160.436 89.9511 159.884 89.3426C159.497 88.9159 158.94 88.8257 158.545 88.422C158.256 88.1258 157.671 87.9805 157.47 87.6115C157.333 87.3574 156.923 86.7107 157.06 86.3958C157.167 86.1486 158.288 86.0633 158.545 85.9706C158.883 85.8491 159.152 85.3331 159.425 85.085C159.659 84.8718 159.889 84.6577 160.089 84.4146C160.566 83.8384 160.902 83.2518 160.988 82.4885C161.094 81.5551 160.448 80.7789 160.085 79.952C159.831 79.3747 159.495 78.8489 159.249 78.266C158.936 77.5232 158.566 76.8574 158.018 76.2648C157.553 75.7627 157.124 75.0691 157.055 74.3687C156.971 73.5041 157.209 73.0178 157.627 72.2724C157.871 71.8359 157.979 71.361 158.15 70.9066C158.599 69.7107 158.672 68.219 157.622 67.3095C156.563 66.3924 156.045 65.7534 155.516 64.4228C155.173 63.5595 155.046 62.5922 154.92 61.6761C154.808 60.8616 154.604 60.0633 154.505 59.2497C154.43 58.6356 154.536 58.0327 154.412 57.4136C154.356 57.1364 154.339 56.4657 154.104 56.2729C153.808 56.0305 153.706 55.9875 153.288 56.0027C152.749 56.0225 152.245 56.2969 151.724 56.368C151.112 56.4516 150.475 56.6071 149.877 56.7432C149.343 56.8648 148.731 56.7915 148.211 56.9533C147.589 57.1472 146.806 57.2635 146.149 57.2635C145.603 57.2635 145.08 57.4436 144.542 57.4436C143.865 57.4436 143.165 57.6237 142.539 57.6237C141.878 57.6237 142.011 58.6242 142.011 59.0646C142.011 59.4865 142.038 59.6553 142.231 60.0101C142.368 60.2634 142.608 60.4423 142.734 60.6855C143.206 61.5985 144 62.8946 145.001 63.4072C145.459 63.6418 146.244 63.7175 146.565 64.1276C146.837 64.4759 147.2 65.1934 147.2 65.6385" stroke="black" stroke-linecap="round" stroke-linejoin="round"/>
<path d="M77.0591 71.0392C77.0591 70.4095 77.0123 69.7843 77.0069 69.1563C76.9804 68.6938 76.9537 68.2304 76.9537 67.7573C76.9537 67.5098 76.9651 67.2585 76.9537 67.0114C76.9481 66.8918 76.8482 66.813 76.8482 66.6832V66.3848V65.1317C76.8482 64.8376 76.7533 64.2928 76.98 64.0875C77.1975 63.8906 77.6776 64.0875 77.9293 64.0875C78.1291 64.0875 78.3692 64.1112 78.565 64.1604C78.8566 64.2338 79.238 64.1774 79.5113 64.2964C80.0868 64.5468 80.8307 64.4455 81.4391 64.4455H82.567C82.8998 64.4455 83.2012 64.2934 83.5338 64.2665C83.8109 64.2441 84.0654 64.0699 84.3395 64.0312C84.5091 64.0072 84.6928 64.0278 84.8639 64.0278C86.1498 64.0278 85.7369 66.1599 85.7077 67.0843C85.6696 68.2914 85.4577 69.7007 85.9069 70.8303C85.982 71.0191 86.0132 71.2058 86.1003 71.3939C86.1807 71.5676 86.3092 71.6986 86.3903 71.8746C86.6545 72.4475 86.6102 73.1313 86.6042 73.7542C86.5968 74.5218 86.5383 75.2847 86.446 76.0416C86.3907 76.4956 86.4298 77.0058 86.2878 77.4405C86.1767 77.7808 86.0905 78.1393 85.9597 78.4682C85.8711 78.6909 85.7435 78.9723 85.7106 79.2141C85.6436 79.707 85.4844 80.1461 85.3386 80.6163C85.2165 81.0099 85.1804 81.3067 85.1804 81.7236C85.1804 82.6277 85.6619 83.1674 86.0769 83.8717C86.3192 84.283 86.6403 84.6294 86.8796 85.0452C87.1456 85.5074 87.5734 85.816 87.8669 86.2519C88.045 86.5164 88.0074 87.1037 87.9636 87.4254C87.9083 87.8325 87.8801 88.4272 87.6267 88.7581C87.3327 89.1419 86.7813 89.2493 86.446 89.5669C86.2152 89.7856 85.9336 89.8818 85.652 89.988C85.3126 90.116 84.9981 90.3215 84.653 90.4289C84.1106 90.5976 83.5739 90.5814 83.0182 90.5814C82.6447 90.5814 82.2301 90.7195 81.8551 90.7902C81.3718 90.8813 80.8304 90.9268 80.3404 90.9394C80.0092 90.9479 79.6932 91.0177 79.3531 90.9957C78.1902 90.9205 77.7934 89.9066 77.6509 88.778C77.4988 87.5727 77.0417 86.4878 76.7954 85.3038C76.7399 85.0365 76.7071 84.7705 76.687 84.4982C76.6609 84.1438 76.4603 83.7962 76.3238 83.4872C75.993 82.7387 75.8817 82.0584 76.1509 81.2462C76.3703 80.5841 76.7543 79.9935 77.0328 79.3632C77.305 78.7471 77.7518 78.3126 78.0787 77.7455C78.3474 77.2793 78.6939 76.9448 78.6939 76.3465C78.6939 75.6166 78.7285 74.7847 78.442 74.1122C78.1156 73.3462 77.6524 72.6569 77.1763 72.0105C77.0401 71.8255 77.0591 71.2588 77.0591 71.0392Z" fill="#65B9DD"/>
<path d="M77.0591 65.0422C77.0089 66.3766 77.0064 67.7053 77.0064 69.0402C77.0064 69.7072 77.0591 70.3707 77.0591 71.0392C77.0591 71.2588 77.0401 71.8255 77.1763 72.0105C77.6524 72.6569 78.1156 73.3462 78.442 74.1122C78.7285 74.7847 78.6939 75.6166 78.6939 76.3465C78.6939 76.9448 78.3474 77.2793 78.0787 77.7455C77.7518 78.3126 77.305 78.7471 77.0328 79.3632C76.7543 79.9935 76.3703 80.5841 76.1509 81.2462C75.8817 82.0584 75.993 82.7387 76.3238 83.4872C76.4603 83.7962 76.6609 84.1438 76.687 84.4982C76.7071 84.7705 76.7399 85.0365 76.7954 85.3038C77.0417 86.4878 77.4988 87.5727 77.6509 88.778C77.7934 89.9066 78.1902 90.9205 79.3531 90.9957C79.6932 91.0177 80.0092 90.9479 80.3404 90.9394C80.8304 90.9268 81.3718 90.8813 81.8551 90.7902C82.2301 90.7195 82.6447 90.5814 83.0182 90.5814C83.5739 90.5814 84.1106 90.5976 84.653 90.4289C84.9981 90.3215 85.3126 90.116 85.652 89.988C85.9336 89.8818 86.2152 89.7856 86.446 89.567C86.7813 89.2493 87.3327 89.1419 87.6267 88.7581C87.8801 88.4272 87.9083 87.8325 87.9636 87.4254C88.0074 87.1037 88.045 86.5164 87.8669 86.2519C87.5734 85.816 87.1456 85.5074 86.8796 85.0452C86.6403 84.6294 86.3192 84.283 86.0769 83.8717C85.6619 83.1674 85.1804 82.6277 85.1804 81.7236C85.1804 81.3067 85.2165 81.0099 85.3386 80.6163C85.4844 80.1461 85.6436 79.707 85.7106 79.2141C85.7435 78.9723 85.8711 78.6909 85.9597 78.4682C86.0905 78.1393 86.1767 77.7808 86.2878 77.4405C86.4298 77.0058 86.3907 76.4956 86.446 76.0416C86.5383 75.2847 86.5968 74.5218 86.6042 73.7542C86.6102 73.1313 86.6545 72.4475 86.3903 71.8746C86.3092 71.6986 86.1807 71.5676 86.1003 71.3939C86.0132 71.2058 85.982 71.0191 85.9069 70.8303C85.4577 69.7007 85.6696 68.2914 85.7077 67.0843C85.7369 66.1599 86.1498 64.0278 84.8639 64.0278C84.6928 64.0278 84.5091 64.0072 84.3395 64.0312C84.0654 64.0699 83.8109 64.2441 83.5338 64.2665C83.2012 64.2934 82.8998 64.4455 82.567 64.4455C82.1911 64.4455 81.8151 64.4455 81.4391 64.4455C80.8307 64.4455 80.0868 64.5468 79.5113 64.2964C79.238 64.1774 78.8566 64.2338 78.565 64.1604C78.3692 64.1112 78.1291 64.0875 77.9293 64.0875C77.6776 64.0875 77.1975 63.8906 76.98 64.0875C76.7533 64.2928 76.8482 64.8376 76.8482 65.1317C76.8482 65.5494 76.8482 65.9671 76.8482 66.3848C76.8482 66.4843 76.8482 66.5837 76.8482 66.6832C76.8482 66.813 76.9481 66.8918 76.9537 67.0114C76.9651 67.2585 76.9537 67.5098 76.9537 67.7573C76.9537 68.6975 77.0591 69.5992 77.0591 70.532" stroke="black" stroke-linecap="round" stroke-linejoin="round"/>
<path d="M83.5238 57.2201C83.1154 57.5189 82.6244 57.8136 82.455 58.3727C82.3721 58.6465 82.3332 58.9687 82.2963 59.2562C82.2318 59.7593 82.0952 60.2821 82.0952 60.797C82.0952 61.1256 82.0427 61.5251 82.119 61.8426C82.1905 62.1397 82.2986 62.3342 82.418 62.5824C82.4798 62.7109 82.5373 62.8177 82.6429 62.9126C82.7664 63.0237 82.7021 63.0323 82.6296 62.9187C82.0443 62.0007 82 60.5694 82 59.4763C82 58.1244 82.8972 57.2124 84 57" stroke="black" stroke-linecap="round" stroke-linejoin="round"/>
<path d="M143.109 57C142.705 54.2494 143.413 51.8945 145.402 50.12C145.612 49.9329 145.806 49.7602 146.044 49.6163C146.24 49.4973 146.66 49.4221 146.804 49.2963C146.987 49.1374 147.216 49.3036 147.413 49.1896C147.652 49.0515 147.68 49 148 49" stroke="black" stroke-linecap="round" stroke-linejoin="round"/>
<path d="M87.1248 62C87.0164 60.6848 86.5894 58.1885 88.3388 58.119C88.531 58.1114 88.8362 58.0537 89.0142 58.14C89.226 58.2428 89.3147 58.4325 89.5528 58.5187C89.6788 58.5643 89.8357 58.8796 89.8357 58.7606C89.8357 58.5317 89.8106 58.3033 89.6532 58.14C89.442 57.921 88.9553 58.0244 88.6811 58.0244C88.21 58.0244 87.8848 58.4738 87.5766 58.829C87.5022 58.9147 87.3705 59.2113 87.3895 59.1865C87.7791 58.6816 88.4428 58.4786 89.0005 58.403C89.6379 58.3166 90 58.2856 90 59.1603C90 59.6382 89.9179 60.1502 89.9179 60.5801" stroke="black" stroke-linecap="round" stroke-linejoin="round"/>
<path d="M150.271 56C149.793 54.1192 149.887 52.41 151.044 51.3166C151.51 50.876 152.445 51.0238 152.976 51.0238C153.483 51.0238 153.883 51.7726 153.932 52.5687C153.969 53.1735 154.085 54.5005 153.89 55.0487C153.885 55.0627 153.911 53.3744 153.608 53.0078C152.933 52.191 152.545 51.7556 151.681 51.7556" stroke="black" stroke-linecap="round" stroke-linejoin="round"/>
<path d="M92.7102 18.9394C91.5976 20.7442 89.3868 23.3787 89.0081 25.5627C88.8864 26.2648 90.1683 25.4157 90.2587 25.3668C91.2768 24.8162 92.2247 24.1758 93.255 23.639C94.3944 23.0455 94.3578 24.6476 94.4808 25.5627C94.6502 26.8234 96.3643 24.9916 96.7218 24.6527C97.5089 23.9066 98.4835 22.2568 99.7305 22.2568C100.869 22.2568 100.891 23.1735 101.452 23.9155C101.533 24.0236 102.591 25.9279 102.838 25.6318C103.425 24.9297 103.04 23.1057 103.68 22.5102C104.287 21.9459 105.33 23.2358 105.637 23.4893C105.996 23.7869 107.088 24.7721 107.296 24.1919C107.458 23.7387 107.566 20.9931 108.138 21.0128C108.9 21.039 109.819 21.6014 110.49 21.8882C111.789 22.4433 113.019 23.0253 114.403 23.3856C115.761 23.7394 114.506 21.3625 114.328 20.8515C114.123 20.2596 113.662 19.814 113.437 19.2389C113.27 18.8122 115.594 19.5049 115.901 19.5499C116.828 19.6861 118.511 20.0848 119.405 19.5614C121.509 18.3291 117.446 15.3447 116.334 15" stroke="black" stroke-linecap="round" stroke-linejoin="round"/>
<path d="M73.2846 58.2669C73.2874 58.2636 73.2903 58.2602 73.2932 58.2569C73.3085 58.2294 73.3256 58.2026 73.3448 58.1767C73.6513 57.7638 74.1598 57.5632 74.6391 57.4023C74.6971 57.3828 74.7547 57.3639 74.8114 57.3453L74.8141 57.3444C75.6593 57.0671 76.5691 57.05 77.4326 56.8435C77.9464 56.7206 78.4723 56.6448 78.9895 56.5283C79.6756 56.3738 80.3713 56.2477 81.0691 56.1566C81.5372 56.0956 81.9831 56.0004 82.4549 56.0004C82.5298 56.0004 82.9881 55.9899 82.9981 56.0732C83.0175 56.2354 82.8856 56.4296 82.8011 56.558C82.6135 56.8428 82.3769 57.0962 82.1745 57.3714C81.7117 58.0004 81.7422 58.7607 81.7422 59.4964C81.7422 59.7721 81.8121 60.0392 81.816 60.3152C81.8209 60.6544 81.816 60.9941 81.816 61.3333C81.816 61.5127 81.799 61.7015 81.8297 61.8787C81.8623 62.0665 81.9205 62.249 81.9501 62.4363C81.9651 62.5313 82.0404 62.9557 81.8653 62.9803C81.6067 63.0167 81.2976 62.9941 81.039 62.9803C80.6962 62.9621 80.3598 62.9382 80.0238 62.8712C79.7292 62.8125 79.3778 62.7923 79.0771 62.7878C78.6839 62.7818 78.3061 62.6593 77.9156 62.6437C77.4361 62.6244 76.9609 62.5209 76.4859 62.4592C76.0559 62.4032 75.6471 62.2963 75.2355 62.1629C74.4822 61.9187 73.6625 61.5742 73.3817 60.7758C73.3342 60.6407 73.2447 60.5189 73.2216 60.3772C73.1978 60.2308 73.1528 60.0818 73.1108 59.9395C73.0339 59.6788 73 59.4459 73 59.1759C73 58.8895 73.0921 58.4908 73.2846 58.2669Z" fill="#F2EBEB"/>
<path d="M76.2506 56.8246C75.4005 57.1376 74.4619 57.3867 73.6882 57.8818C73.5189 57.99 73.4108 58.1201 73.2846 58.2669C73.0921 58.4908 73 58.8895 73 59.1759C73 59.4459 73.0339 59.6788 73.1108 59.9395C73.1528 60.0818 73.1978 60.2308 73.2216 60.3772C73.2447 60.5189 73.3342 60.6407 73.3817 60.7758C73.6625 61.5742 74.4822 61.9187 75.2355 62.1629C75.6471 62.2963 76.0559 62.4032 76.4859 62.4592C76.9609 62.5209 77.4361 62.6244 77.9156 62.6437C78.3061 62.6593 78.6839 62.7818 79.0771 62.7878C79.3778 62.7923 79.7292 62.8125 80.0238 62.8712C80.3598 62.9382 80.6962 62.9621 81.039 62.9803C81.2976 62.9941 81.6067 63.0167 81.8653 62.9803C82.0404 62.9557 81.9651 62.5313 81.9501 62.4363C81.9205 62.249 81.8623 62.0665 81.8297 61.8787C81.799 61.7015 81.816 61.5127 81.816 61.3333C81.816 60.9941 81.8209 60.6544 81.816 60.3152C81.8121 60.0392 81.7422 59.7721 81.7422 59.4964C81.7422 58.7607 81.7117 58.0004 82.1745 57.3714C82.3769 57.0962 82.6135 56.8428 82.8011 56.558C82.8856 56.4296 83.0175 56.2354 82.9981 56.0732C82.9881 55.9899 82.5298 56.0004 82.4549 56.0004C81.9831 56.0004 81.5372 56.0956 81.0691 56.1566C80.3713 56.2477 79.6756 56.3738 78.9895 56.5283C78.4723 56.6448 77.9464 56.7206 77.4326 56.8435C76.5691 57.05 75.6593 57.0671 74.8141 57.3444C74.2879 57.5171 73.689 57.713 73.3448 58.1767C73.1807 58.3977 73.1754 58.6867 73.0246 58.9093" stroke="black" stroke-linecap="round" stroke-linejoin="round"/>
<path d="M82.2123 59.1919C82.2996 58.9353 82.4516 58.7027 82.5882 58.4658C82.6353 58.3603 82.6895 58.2567 82.7471 58.1609C82.7747 58.115 82.8031 58.0708 82.8319 58.029C83.1146 57.6187 83.215 57.0781 83.556 56.6952C83.9008 56.3081 84.4698 56.2839 84.9157 56.0781C85.0263 56.0271 85.1598 56.0261 85.277 55.9934C85.4832 55.9359 85.6928 55.8933 85.902 55.8482C86.3086 55.7607 86.7132 55.6498 87.1212 55.5753C87.6927 55.4709 88.2426 55.2452 88.7968 55.0751C89.2534 54.935 89.8254 54.982 90.202 55.2916C90.3425 55.4071 90.4999 55.6304 90.5887 55.7891C90.7106 56.0066 90.8452 56.2132 90.938 56.4465C91.039 56.7 90.9862 57.0304 90.9862 57.3003C90.9862 57.6173 90.9493 57.8029 90.7212 58.0384C90.638 58.1243 90.5229 58.3164 90.396 58.3274C90.2509 58.3401 90.098 58.3278 89.9557 58.2992C89.8159 58.2711 89.6961 58.1897 89.5569 58.1607C89.3359 58.1148 89.131 58.111 88.9025 58.111C88.2822 58.111 87.5292 58.1524 87.1935 58.7657C87.0414 59.0434 86.8932 59.3678 86.808 59.6733C86.7631 59.8344 86.728 60.0393 86.7224 60.2057C86.7141 60.4535 86.6484 60.7084 86.6207 60.9559C86.6011 61.1307 86.537 61.3013 86.5056 61.4749C86.4756 61.6404 86.4885 61.8117 86.4333 61.9723C86.3875 62.1059 86.4217 62.2547 86.337 62.3757C86.264 62.4798 86.1462 62.4927 86.0479 62.5585C85.6627 62.8165 85.1353 62.8376 84.6935 62.9081C84.4914 62.9403 84.3189 62.9995 84.1114 62.9995C83.8449 62.9995 83.5868 63.0097 83.3271 62.9377C83.0748 62.8676 82.8506 62.8125 82.662 62.623C82.5823 62.543 82.5675 62.4289 82.5014 62.3515C82.3353 62.1568 82.3339 61.8359 82.2177 61.6107C82.1499 61.4793 82.0902 61.3324 82.049 61.1898C81.9895 60.984 82.0009 60.7821 82.0009 60.5687C82.0009 60.0975 82.0603 59.6388 82.2123 59.1919Z" fill="#6169B4"/>
<path d="M83.9521 56.2717C83.5572 56.6232 83.2125 56.9276 83.0287 57.4441C82.9426 57.686 82.8531 57.9213 82.749 58.1567C82.5936 58.5079 82.337 58.8254 82.2123 59.1919C82.0603 59.6388 82.0009 60.0975 82.0009 60.5687C82.0009 60.7821 81.9895 60.984 82.049 61.1898C82.0902 61.3324 82.1499 61.4793 82.2177 61.6107C82.3339 61.8359 82.3353 62.1568 82.5014 62.3515C82.5675 62.4289 82.5823 62.543 82.662 62.623C82.8506 62.8125 83.0748 62.8676 83.3271 62.9377C83.5868 63.0097 83.8449 62.9995 84.1114 62.9995C84.3189 62.9995 84.4914 62.9403 84.6935 62.9081C85.1353 62.8376 85.6627 62.8165 86.0479 62.5585C86.1462 62.4927 86.264 62.4798 86.337 62.3757C86.4217 62.2547 86.3875 62.1059 86.4333 61.9723C86.4885 61.8117 86.4756 61.6404 86.5056 61.4749C86.537 61.3013 86.6011 61.1307 86.6207 60.9559C86.6484 60.7084 86.7141 60.4535 86.7224 60.2057C86.728 60.0393 86.7631 59.8344 86.808 59.6733C86.8932 59.3678 87.0414 59.0434 87.1935 58.7657C87.5292 58.1524 88.2822 58.111 88.9025 58.111C89.131 58.111 89.3359 58.1148 89.5569 58.1607C89.6961 58.1897 89.8159 58.2711 89.9557 58.2992C90.098 58.3278 90.2509 58.3401 90.396 58.3274C90.5229 58.3164 90.638 58.1243 90.7212 58.0384C90.9493 57.8029 90.9862 57.6173 90.9862 57.3003C90.9862 57.0304 91.039 56.7 90.938 56.4465C90.8452 56.2132 90.7106 56.0066 90.5887 55.7891C90.4999 55.6304 90.3425 55.4071 90.202 55.2916C89.8254 54.982 89.2534 54.935 88.7968 55.0751C88.2426 55.2452 87.6927 55.4709 87.1212 55.5753C86.7132 55.6498 86.3086 55.7607 85.902 55.8482C85.6928 55.8933 85.4832 55.9359 85.277 55.9934C85.1598 56.0261 85.0263 56.0271 84.9157 56.0781C84.4698 56.2839 83.9008 56.3081 83.556 56.6952C83.215 57.0781 83.1146 57.6187 82.8319 58.029C82.6735 58.2589 82.5266 58.5616 82.4586 58.8316C82.4173 58.9955 82.347 59.1511 82.314 59.317C82.3 59.3874 82.2418 59.4431 82.2418 59.5146" stroke="black" stroke-linecap="round" stroke-linejoin="round"/>
<path d="M134.469 49.4751C134.508 49.0731 134.483 48.6022 134.631 48.2115C134.708 48.2221 134.787 48.2162 134.865 48.2284C135.217 48.2828 135.577 48.2972 135.934 48.2972C136.82 48.2972 137.719 48.2575 138.603 48.3165C138.925 48.338 139.261 48.3467 139.585 48.3467C139.94 48.3467 140.291 48.3937 140.645 48.3963C141.204 48.4004 141.755 48.4592 142.311 48.4981C143.75 48.5988 145.17 48.9412 146.615 48.9412C147.042 48.9412 147.497 48.9046 147.911 49.0155C148.101 49.0666 147.942 49.1553 147.847 49.226C147.642 49.3783 147.363 49.492 147.133 49.6099C146.838 49.7612 146.568 49.9328 146.283 50.0915C145.706 50.412 145.132 50.7913 144.736 51.2996C144.598 51.4779 144.45 51.6742 144.335 51.8665C144.205 52.0866 144.029 52.2758 143.913 52.5022C143.721 52.8803 143.503 53.2411 143.343 53.6333C143.186 54.0177 143.166 54.4238 143.083 54.8222C143.008 55.177 142.996 55.5515 142.9 55.9009C142.878 55.9807 142.885 56 142.792 56H142.382C142.021 56 141.659 55.9848 141.3 55.9505C140.827 55.9051 140.369 55.7589 139.898 55.7042C139.453 55.6525 139.077 55.4694 138.657 55.3505C138.372 55.2699 138.098 55.1698 137.826 55.0588C137.564 54.9518 137.294 54.8967 137.023 54.8111C136.331 54.5922 135.578 54.3442 135.294 53.6842C135.037 53.0885 134.879 52.4642 134.681 51.85C134.515 51.3334 134.436 50.8214 134.436 50.2841C134.436 50.0137 134.443 49.7443 134.469 49.4751Z" fill="white"/>
<path d="M134.735 48C134.471 48.4222 134.516 48.9973 134.469 49.4751C134.443 49.7443 134.436 50.0137 134.436 50.2841C134.436 50.8214 134.515 51.3334 134.681 51.85C134.879 52.4642 135.037 53.0885 135.294 53.6842C135.578 54.3442 136.331 54.5922 137.023 54.8111C137.294 54.8967 137.564 54.9518 137.826 55.0588C138.098 55.1698 138.372 55.2699 138.657 55.3505C139.077 55.4694 139.453 55.6525 139.898 55.7042C140.369 55.7589 140.827 55.9051 141.3 55.9505C141.659 55.9848 142.021 56 142.382 56C142.519 56 142.655 56 142.792 56C142.885 56 142.878 55.9807 142.9 55.9009C142.996 55.5515 143.008 55.177 143.083 54.8222C143.166 54.4238 143.186 54.0177 143.343 53.6333C143.503 53.2411 143.721 52.8803 143.913 52.5022C144.029 52.2758 144.205 52.0866 144.335 51.8665C144.45 51.6742 144.598 51.4779 144.736 51.2996C145.132 50.7913 145.706 50.412 146.283 50.0915C146.568 49.9328 146.838 49.7612 147.133 49.6099C147.363 49.492 147.642 49.3783 147.847 49.226C147.942 49.1553 148.101 49.0666 147.911 49.0155C147.497 48.9046 147.042 48.9412 146.615 48.9412C145.17 48.9412 143.75 48.5988 142.311 48.4981C141.755 48.4592 141.204 48.4004 140.645 48.3963C140.291 48.3937 139.94 48.3467 139.585 48.3467C139.261 48.3467 138.925 48.338 138.603 48.3165C137.719 48.2575 136.82 48.2972 135.934 48.2972C135.577 48.2972 135.217 48.2828 134.865 48.2284C134.753 48.211 134.641 48.2305 134.533 48.1858C134.352 48.1111 134.237 48.5714 134.209 48.644C134.072 49.0017 134 49.3257 134 49.698C134 49.9107 134.127 50.0826 134.192 50.28C134.225 50.3792 134.305 50.4616 134.339 50.5635C134.37 50.6568 134.379 50.7538 134.402 50.8483C134.434 50.978 134.426 51.1279 134.49 51.2446" stroke="black" stroke-linecap="round" stroke-linejoin="round"/>
<path d="M144.417 51.286C144.627 50.9372 144.88 50.6429 145.152 50.3719C145.18 50.3144 145.208 50.2567 145.24 50.2046C145.313 50.0901 145.393 49.9943 145.481 49.898C145.929 49.4054 146.437 48.926 147.014 48.6599C147.07 48.6341 147.126 48.6068 147.183 48.5791C147.449 48.4496 147.725 48.3103 148.005 48.2567C148.507 48.1608 149.013 48.0949 149.52 48.0451C149.905 48.0072 150.289 48.0151 150.675 48.0151C151.135 48.0151 151.61 47.9727 152.067 48.0301C152.379 48.0692 152.695 48.0586 153.004 48.1367C153.183 48.182 153.362 48.2029 153.542 48.2384C153.678 48.2651 153.802 48.3358 153.935 48.375C154.669 48.5915 155.083 49.1927 155.398 49.9646C155.593 50.4409 155.752 50.9378 155.921 51.4276C156.037 51.7631 155.997 52.2605 155.976 52.6173C155.951 53.0513 155.736 53.4134 155.572 53.7887C155.426 54.1228 155.229 54.4303 154.96 54.6418C154.767 54.794 154.412 54.5382 154.261 54.4152C154.041 54.2358 153.845 53.9925 153.658 53.767C153.543 53.6279 153.467 53.4507 153.378 53.2872C153.242 53.0373 153.049 52.8035 152.844 52.634C152.571 52.4084 152.357 52.1896 152.042 52.0408C151.879 51.9641 151.598 51.9782 151.426 52.0108C150.749 52.139 150.549 52.9327 150.256 53.5504C150.053 53.9769 149.82 54.445 149.747 54.9284C149.694 55.2827 149.6 55.6259 149.531 55.9765C149.506 56.1055 149.508 56.361 149.453 56.4714C149.339 56.7018 149.007 56.7484 148.806 56.7747C148.305 56.8404 147.799 56.8237 147.306 56.953C147.06 57.0175 146.788 56.983 146.537 56.983H145.571C144.89 56.983 144.182 57.0483 143.508 56.923C142.904 56.8105 142.959 55.9548 143.07 55.4283C143.135 55.1251 143.175 54.8227 143.248 54.5219C143.355 54.088 143.465 53.6528 143.568 53.2172C143.742 52.4794 144.047 51.8995 144.417 51.286Z" fill="#6169B4"/>
<path d="M147.815 48.0451C147.169 48.5854 146.531 49.1373 145.896 49.6947C145.354 50.1706 144.81 50.6327 144.417 51.286C144.047 51.8995 143.742 52.4794 143.568 53.2172C143.465 53.6528 143.355 54.088 143.248 54.5219C143.175 54.8227 143.135 55.1251 143.07 55.4283C142.959 55.9548 142.904 56.8105 143.508 56.923C144.182 57.0483 144.89 56.983 145.571 56.983C145.893 56.983 146.215 56.983 146.537 56.983C146.788 56.983 147.06 57.0175 147.306 56.953C147.799 56.8237 148.305 56.8404 148.806 56.7747C149.007 56.7484 149.339 56.7018 149.453 56.4714C149.508 56.361 149.506 56.1055 149.531 55.9765C149.6 55.6259 149.694 55.2827 149.747 54.9284C149.82 54.445 150.053 53.9769 150.256 53.5504C150.549 52.9327 150.749 52.139 151.426 52.0108C151.598 51.9782 151.879 51.9641 152.042 52.0408C152.357 52.1896 152.571 52.4084 152.844 52.634C153.049 52.8035 153.242 53.0373 153.378 53.2872C153.467 53.4507 153.543 53.6279 153.658 53.767C153.845 53.9925 154.041 54.2358 154.261 54.4152C154.412 54.5382 154.767 54.794 154.96 54.6418C155.229 54.4303 155.426 54.1228 155.572 53.7887C155.736 53.4134 155.951 53.0513 155.976 52.6173C155.997 52.2605 156.037 51.7631 155.921 51.4276C155.752 50.9378 155.593 50.4409 155.398 49.9646C155.083 49.1927 154.669 48.5915 153.935 48.375C153.802 48.3358 153.678 48.2651 153.542 48.2384C153.362 48.2029 153.183 48.182 153.004 48.1367C152.695 48.0586 152.379 48.0692 152.067 48.0301C151.61 47.9727 151.135 48.0151 150.675 48.0151C150.289 48.0151 149.905 48.0072 149.52 48.0451C149.013 48.0949 148.507 48.1608 148.005 48.2567C147.665 48.3218 147.332 48.5129 147.014 48.6599C146.437 48.926 145.929 49.4054 145.481 49.898C145.393 49.9943 145.313 50.0901 145.24 50.2046C145.169 50.3184 145.123 50.4589 145.043 50.5645C144.951 50.6859 144.849 50.8707 144.788 51.0144" stroke="black" stroke-linecap="round" stroke-linejoin="round"/>
<path d="M87.1946 59.7018C87.1419 60.1071 87.1336 60.5856 87.0118 60.9869C86.9917 61.0533 87.0011 60.8491 87.0118 60.7811C87.038 60.6153 87.0864 60.4548 87.1086 60.2872C87.1231 60.1776 87.1564 59.7918 87.157 59.7933C87.2551 60.0343 87.2588 60.292 87.3882 60.525C87.4254 60.5921 87.4602 60.802 87.5065 60.6348C87.5946 60.3163 87.6301 59.9569 87.6301 59.6286C87.6301 59.4537 87.6807 59.4364 87.7645 59.2994C87.8192 59.21 88.1803 59.1422 88.2592 59.2353C88.3003 59.284 88.3531 59.3613 88.3559 59.4228C88.3563 59.432 88.3514 59.5633 88.3667 59.56C88.4549 59.5413 88.5656 59.1351 88.6839 59.0615C88.7563 59.0165 88.9056 58.9537 88.9473 59.0524C89.037 59.2644 88.985 59.5297 88.985 59.7521C88.985 59.8996 89.0194 60.0918 88.9742 60.2369C88.868 60.5782 88.4711 60.8939 88.0871 60.9686C87.8863 61.0077 88.3815 60.8658 88.4635 60.8131C88.5911 60.7311 88.7109 60.6392 88.8398 60.5662" stroke="black" stroke-linecap="round" stroke-linejoin="round"/>
<path d="M151 55C150.429 55 150.246 55 150 55" stroke="black" stroke-linecap="round" stroke-linejoin="round"/>
<path d="M150.724 54C150.742 54.1388 150.679 54.8917 151.046 54.585C151.111 54.5305 151.208 54.3007 151.323 54.3007C151.571 54.3007 151.901 54.761 152.155 54.8366C152.301 54.88 152.799 55.0836 152.933 55.0556C153.082 55.0245 152.946 54.6846 152.879 54.634C152.808 54.5801 152.287 54.1521 152.258 54.3007C152.185 54.6744 152.295 55.1489 152.057 55.4967C151.737 55.964 150.632 56 150 56" stroke="black" stroke-linecap="round" stroke-linejoin="round"/>
<path d="M187 111C187.565 117.513 187.003 111.015 187.467 116.441C187.502 116.859 187.475 117.875 187.7 118.39C187.796 118.609 187.76 118.833 187.844 119.051C187.973 119.382 188 119.649 188 120" stroke="black" stroke-linecap="round" stroke-linejoin="round"/>
<path d="M186 112C185.658 113.901 185.564 116.252 185 118" stroke="black" stroke-linecap="round" stroke-linejoin="round"/>
</g>
<defs>
<clipPath id="clip0">
<rect width="246" height="164" fill="white"/>
</clipPath>
</defs>
</svg>
