<svg width="256" height="256" viewBox="0 0 256 256" fill="none" xmlns="http://www.w3.org/2000/svg">
<path d="M168.827 105.143L123.806 50.2859C101.014 22.5138 64.0609 22.5138 41.2688 50.2858C18.4767 78.0578 18.4767 123.085 41.2689 150.857L86.2894 205.714C109.082 233.486 146.035 233.486 168.827 205.714C191.619 177.942 191.619 132.915 168.827 105.143Z" fill="#F38888"/>
<path d="M169.278 205.561L214.376 151.286C237.364 123.62 237.638 78.5395 214.987 50.5961C192.337 22.6527 155.339 22.428 132.351 50.0943L87.2534 104.369C64.2651 132.035 63.9913 177.116 86.6419 205.059C109.292 233.003 146.29 233.227 169.278 205.561Z" fill="#FCACAC"/>
<path d="M188 112C195.732 112 202 105.732 202 98.0001C202 90.2681 195.732 84.0001 188 84.0001C180.268 84.0001 174 90.2681 174 98.0001C174 105.732 180.268 112 188 112Z" fill="white"/>
<path d="M210 84.0001C213.314 84.0001 216 81.3138 216 78.0001C216 74.6864 213.314 72.0001 210 72.0001C206.686 72.0001 204 74.6864 204 78.0001C204 81.3138 206.686 84.0001 210 84.0001Z" fill="white"/>
</svg>
