<svg width="256" height="256" viewBox="0 0 256 256" fill="none" xmlns="http://www.w3.org/2000/svg">
<g clip-path="url(#clip0)">
<rect width="256" height="256" fill="white"/>
<path d="M22.7598 22.2598L28.6484 7.40625H32.5684L23.5156 28.7285C22.9062 30.0879 22.3379 31.0547 21.8105 31.6289C21.2832 32.1914 20.6621 32.625 19.9473 32.9297C19.2441 33.2227 18.3594 33.3691 17.293 33.3691C16.3672 33.3691 15.7754 33.3164 15.5176 33.2109L15.623 30.5391L17.2227 30.6094C18.4531 30.6094 19.3672 30.0176 19.9648 28.834L20.4043 27.9199L21.0723 26.3555L12.3535 7.40625H16.1328L22.7598 22.2598ZM13.9707 75V49.4062H22.3379C25.1152 49.4062 27.2012 49.9805 28.5957 51.1289C30.002 52.2773 30.7051 53.9766 30.7051 56.2266C30.7051 57.4219 30.3652 58.4824 29.6855 59.4082C29.0059 60.3223 28.0801 61.0312 26.9082 61.5352C28.291 61.9219 29.3809 62.6602 30.1777 63.75C30.9863 64.8281 31.3906 66.1172 31.3906 67.6172C31.3906 69.9141 30.6465 71.7188 29.1582 73.0312C27.6699 74.3438 25.5664 75 22.8477 75H13.9707ZM17.3457 63.0293V72.2402H22.918C24.4883 72.2402 25.7246 71.8359 26.627 71.0273C27.541 70.207 27.998 69.082 27.998 67.6523C27.998 64.5703 26.3223 63.0293 22.9707 63.0293H17.3457ZM17.3457 60.3223H22.4434C23.9199 60.3223 25.0977 59.9531 25.9766 59.2148C26.8672 58.4766 27.3125 57.4746 27.3125 56.209C27.3125 54.8027 26.9023 53.7832 26.082 53.1504C25.2617 52.5059 24.0137 52.1836 22.3379 52.1836H17.3457V60.3223ZM50.5332 68.3203H39.8105L37.4023 75H33.9219L43.6953 49.4062H46.6484L56.4395 75H52.9766L50.5332 68.3203ZM40.8301 65.543H49.5312L45.1719 53.5723L40.8301 65.543ZM78.5 66.8789C78.1836 69.5859 77.1816 71.6777 75.4941 73.1543C73.8184 74.6191 71.5859 75.3516 68.7969 75.3516C65.7734 75.3516 63.3477 74.2676 61.5195 72.0996C59.7031 69.9316 58.7949 67.0312 58.7949 63.3984V60.9375C58.7949 58.5586 59.2168 56.4668 60.0605 54.6621C60.916 52.8574 62.123 51.4746 63.6816 50.5137C65.2402 49.541 67.0449 49.0547 69.0957 49.0547C71.8145 49.0547 73.9941 49.8164 75.6348 51.3398C77.2754 52.8516 78.2305 54.9492 78.5 57.6328H75.1074C74.8145 55.5938 74.1758 54.1172 73.1914 53.2031C72.2188 52.2891 70.8535 51.832 69.0957 51.832C66.9395 51.832 65.2461 52.6289 64.0156 54.2227C62.7969 55.8164 62.1875 58.084 62.1875 61.0254V63.5039C62.1875 66.2812 62.7676 68.4902 63.9277 70.1309C65.0879 71.7715 66.7109 72.5918 68.7969 72.5918C70.6719 72.5918 72.1074 72.1699 73.1035 71.3262C74.1113 70.4707 74.7793 68.9883 75.1074 66.8789H78.5Z" fill="black"/>
<path d="M185.354 76.387L180.152 78.8597L171.003 59.6115L149.847 69.6673L158.996 88.9156L153.794 91.3883L134.177 50.1173L139.379 47.6446L147.676 65.1009L168.832 55.0451L160.535 37.5888L165.737 35.116L185.354 76.387ZM219.701 60.0611L196.638 71.0236L177.021 29.7526L200.084 18.7901L202.254 23.3565L184.393 31.8463L190.52 44.7362L207.341 36.741L209.484 41.2496L192.663 49.2448L199.669 63.9845L217.53 55.4947L219.701 60.0611ZM241.82 49.5474L236.618 52.0202L219.171 15.3156L206.281 21.4425L204.111 16.8761L235.035 2.17701L237.205 6.74341L224.373 12.8428L241.82 49.5474Z" fill="black"/>
<path d="M15.9375 101.562C15.9375 100.312 15.75 99.375 15.375 98.75C15.0417 98.125 14.5208 97.7292 13.8125 97.5625C13.0625 97.3958 12.4792 97.2292 12.0625 97.0625C11.6875 96.8958 11.5 96.6042 11.5 96.1875C11.5 95.4375 12.0417 95.0625 13.125 95.0625H18.625C19.875 95.0625 20.5 95.7292 20.5 97.0625V107.438C21.5 107.271 22.4167 106.542 23.25 105.25C24.0833 103.958 24.875 102.604 25.625 101.188C26.375 99.6875 27.2083 98.3125 28.125 97.0625C29.0417 95.8125 30.2292 95.125 31.6875 95C33.8958 94.7917 35.5625 95.4167 36.6875 96.875C37.8542 98.3333 38.4375 99.9375 38.4375 101.688H34.125C34.125 100.979 33.9375 100.396 33.5625 99.9375C33.2292 99.4792 32.75 99.25 32.125 99.25C31.5417 99.25 31 99.7083 30.5 100.625C30 101.542 29.4792 102.604 28.9375 103.812C28.3542 104.979 27.6875 106.104 26.9375 107.188C26.1875 108.271 25.25 109.021 24.125 109.438L38 125.938H32.5625L20.5 110.812V125.938H15.9375V101.562ZM41.25 110.312C41.25 105.521 42.4583 101.646 44.875 98.6875C47.3333 95.7292 50.6875 94.25 54.9375 94.25C59.1875 94.25 62.5208 95.7292 64.9375 98.6875C67.3958 101.646 68.625 105.521 68.625 110.312C68.625 115.104 67.3958 118.979 64.9375 121.938C62.5208 124.896 59.1875 126.375 54.9375 126.375C50.6875 126.375 47.3333 124.896 44.875 121.938C42.4583 118.979 41.25 115.104 41.25 110.312ZM46.25 110.312C46.25 114.562 47.0625 117.771 48.6875 119.938C50.3542 122.104 52.4375 123.188 54.9375 123.188C57.4375 123.188 59.5 122.104 61.125 119.938C62.7917 117.771 63.625 114.562 63.625 110.312C63.625 106.062 62.7917 102.854 61.125 100.688C59.5 98.5208 57.4375 97.4375 54.9375 97.4375C52.4375 97.4375 50.3542 98.5208 48.6875 100.688C47.0625 102.854 46.25 106.062 46.25 110.312ZM95.4375 101.312C95.4375 101.562 95.3333 101.771 95.125 101.938C94.9583 102.062 94.7292 102.104 94.4375 102.062C94.1458 102.062 93.9375 102 93.8125 101.875C93.7292 101.708 93.6458 101.479 93.5625 101.188C93.4792 100.271 93.2083 99.5208 92.75 98.9375C92.2917 98.3542 91.4167 98.0625 90.125 98.0625H85.6875V125.812H81.0625V98.0625H75.9375C74.8125 98.0625 74.0417 98.3125 73.625 98.8125C73.25 99.2708 73 100.062 72.875 101.188C72.8333 101.479 72.7292 101.708 72.5625 101.875C72.4375 102 72.1875 102.062 71.8125 102.062C71.5208 102.104 71.3125 102.062 71.1875 101.938C71.0625 101.771 71 101.562 71 101.312L71.125 95.0625H95.3125L95.4375 101.312ZM118.438 121.5C118.062 122.583 116.958 123.667 115.125 124.75C113.292 125.833 111.104 126.375 108.562 126.375C106.021 126.375 103.896 125.625 102.188 124.125C100.479 122.583 99.625 120.542 99.625 118C99.625 114.583 101.146 111.896 104.188 109.938C107.229 107.938 111.271 106.938 116.312 106.938H118.438V105.125C118.438 102.667 117.812 100.771 116.562 99.4375C115.312 98.1042 113.604 97.4375 111.438 97.4375C109.562 97.4375 108 97.9167 106.75 98.875C105.542 99.7917 104.938 101.062 104.938 102.688H100C100 100.229 101.062 98.2083 103.188 96.625C105.354 95.0417 108.167 94.25 111.625 94.25C115.208 94.25 118 95.1875 120 97.0625C122 98.9375 123 101.562 123 104.938V125.938H118.438V121.5ZM118.438 110.312C113.604 110.188 110.021 110.771 107.688 112.062C105.354 113.354 104.188 115.125 104.188 117.375C104.188 119.25 104.729 120.625 105.812 121.5C106.896 122.333 108.167 122.75 109.625 122.75C111.75 122.75 113.75 121.979 115.625 120.438C117.5 118.896 118.438 116.938 118.438 114.562V110.312Z" fill="black"/>
<path d="M52.152 192H46.392V170.688H22.968V192H17.208V146.304H22.968V165.632H46.392V146.304H52.152V192ZM93.7015 174.784C93.7015 180.459 92.2508 184.853 89.3495 187.968C86.4908 191.083 82.6082 192.64 77.7015 192.64C74.6722 192.64 71.9628 191.957 69.5735 190.592C67.2268 189.184 65.3708 187.157 64.0055 184.512C62.6402 181.824 61.9575 178.581 61.9575 174.784C61.9575 169.109 63.3655 164.736 66.1815 161.664C69.0402 158.592 72.9442 157.056 77.8935 157.056C80.9655 157.056 83.6962 157.76 86.0855 159.168C88.4748 160.533 90.3308 162.539 91.6535 165.184C93.0188 167.787 93.7015 170.987 93.7015 174.784ZM67.7815 174.784C67.7815 178.837 68.5708 182.059 70.1495 184.448C71.7708 186.795 74.3308 187.968 77.8295 187.968C81.2855 187.968 83.8242 186.795 85.4455 184.448C87.0668 182.059 87.8775 178.837 87.8775 174.784C87.8775 170.731 87.0668 167.552 85.4455 165.248C83.8242 162.944 81.2642 161.792 77.7655 161.792C74.2668 161.792 71.7282 162.944 70.1495 165.248C68.5708 167.552 67.7815 170.731 67.7815 174.784Z" fill="black"/>
<path d="M169.746 192H150.594V157.728H169.746V161.52H154.914V172.224H168.882V175.968H154.914V188.208H169.746V192ZM187.009 192.48C184.705 192.48 182.673 192.016 180.913 191.088C179.153 190.16 177.761 188.72 176.737 186.768C175.745 184.816 175.249 182.32 175.249 179.28C175.249 176.112 175.761 173.536 176.785 171.552C177.841 169.568 179.281 168.112 181.105 167.184C182.929 166.256 184.993 165.792 187.297 165.792C188.577 165.792 189.825 165.936 191.041 166.224C192.289 166.48 193.297 166.8 194.065 167.184L192.769 170.688C192.001 170.4 191.105 170.128 190.081 169.872C189.057 169.616 188.097 169.488 187.201 169.488C182.145 169.488 179.617 172.736 179.617 179.232C179.617 182.336 180.225 184.72 181.441 186.384C182.689 188.016 184.529 188.832 186.961 188.832C188.337 188.832 189.569 188.688 190.657 188.4C191.745 188.112 192.737 187.76 193.633 187.344V191.088C192.769 191.536 191.809 191.872 190.753 192.096C189.729 192.352 188.481 192.48 187.009 192.48ZM217.512 169.824H209.112V192H204.936V169.824H196.632V166.272H217.512V169.824ZM226.804 176.832H234.436C241.124 176.832 244.468 179.264 244.468 184.128C244.468 186.528 243.652 188.448 242.02 189.888C240.388 191.296 237.796 192 234.244 192H222.58V166.272H226.804V176.832ZM240.244 184.368C240.244 182.8 239.684 181.744 238.564 181.2C237.476 180.624 235.94 180.336 233.956 180.336H226.804V188.592H234.052C235.844 188.592 237.316 188.272 238.468 187.632C239.652 186.992 240.244 185.904 240.244 184.368ZM57.1266 224.544C57.1266 218.912 57.9746 214.528 59.6706 211.392C61.3666 208.256 64.1026 206.272 67.8786 205.44C69.9586 204.992 71.9906 204.592 73.9746 204.24C75.9586 203.888 77.8146 203.568 79.5426 203.28L80.2626 206.976C79.1426 207.168 77.8786 207.376 76.4706 207.6C75.0626 207.824 73.6706 208.064 72.2946 208.32C70.9186 208.576 69.7346 208.8 68.7426 208.992C66.6626 209.44 65.0146 210.528 63.7986 212.256C62.5826 213.984 61.8946 216.64 61.7346 220.224H62.0226C62.4706 219.616 63.0786 218.992 63.8466 218.352C64.6466 217.712 65.5906 217.168 66.6786 216.72C67.7986 216.272 69.0626 216.048 70.4706 216.048C73.7986 216.048 76.3106 217.12 78.0066 219.264C79.7026 221.408 80.5506 224.192 80.5506 227.616C80.5506 230.496 80.0546 232.896 79.0626 234.816C78.0706 236.704 76.6786 238.128 74.8866 239.088C73.1266 240.016 71.0946 240.48 68.7906 240.48C65.2386 240.48 62.4066 239.12 60.2946 236.4C58.1826 233.68 57.1266 229.728 57.1266 224.544ZM69.1266 236.976C71.2066 236.976 72.8866 236.304 74.1666 234.96C75.4466 233.616 76.0866 231.312 76.0866 228.048C76.0866 225.424 75.5906 223.36 74.5986 221.856C73.6386 220.32 72.0386 219.552 69.7986 219.552C68.3586 219.552 67.0626 219.872 65.9106 220.512C64.7906 221.12 63.8306 221.824 63.0306 222.624C62.2626 223.424 61.7346 224.096 61.4466 224.64C61.4466 226.208 61.5586 227.728 61.7826 229.2C62.0066 230.672 62.3906 232 62.9346 233.184C63.5106 234.336 64.2946 235.264 65.2866 235.968C66.3106 236.64 67.5906 236.976 69.1266 236.976ZM83.173 214.272H87.685L93.253 228.912C93.733 230.224 94.165 231.456 94.549 232.608C94.933 233.76 95.221 234.864 95.413 235.92H95.605C95.797 235.12 96.101 234.08 96.517 232.8C96.933 231.488 97.365 230.176 97.813 228.864L103.045 214.272H107.605L96.517 243.552C95.589 245.984 94.421 247.92 93.013 249.36C91.605 250.8 89.653 251.52 87.157 251.52C86.389 251.52 85.717 251.472 85.141 251.376C84.565 251.312 84.069 251.232 83.653 251.136V247.776C84.005 247.84 84.421 247.904 84.901 247.968C85.413 248.032 85.941 248.064 86.485 248.064C87.957 248.064 89.141 247.648 90.037 246.816C90.933 245.984 91.653 244.88 92.197 243.504L93.541 240.096L83.173 214.272ZM121.994 240.48C119.69 240.48 117.658 240.016 115.898 239.088C114.138 238.16 112.746 236.72 111.722 234.768C110.73 232.816 110.234 230.32 110.234 227.28C110.234 224.112 110.746 221.536 111.77 219.552C112.826 217.568 114.266 216.112 116.09 215.184C117.914 214.256 119.978 213.792 122.282 213.792C123.562 213.792 124.81 213.936 126.026 214.224C127.274 214.48 128.282 214.8 129.05 215.184L127.754 218.688C126.986 218.4 126.09 218.128 125.066 217.872C124.042 217.616 123.082 217.488 122.186 217.488C117.13 217.488 114.602 220.736 114.602 227.232C114.602 230.336 115.21 232.72 116.426 234.384C117.674 236.016 119.514 236.832 121.946 236.832C123.322 236.832 124.554 236.688 125.642 236.4C126.73 236.112 127.722 235.76 128.618 235.344V239.088C127.754 239.536 126.794 239.872 125.738 240.096C124.714 240.352 123.466 240.48 121.994 240.48ZM152.496 217.824H144.096V240H139.92V217.824H131.616V214.272H152.496V217.824ZM167.032 213.792C169.208 213.792 171.096 214.272 172.696 215.232C174.296 216.192 175.512 217.552 176.344 219.312C177.208 221.04 177.64 223.072 177.64 225.408V227.952H160.024C160.088 230.864 160.824 233.088 162.232 234.624C163.672 236.128 165.672 236.88 168.232 236.88C169.864 236.88 171.304 236.736 172.552 236.448C173.832 236.128 175.144 235.68 176.488 235.104V238.8C175.176 239.376 173.88 239.792 172.6 240.048C171.32 240.336 169.8 240.48 168.04 240.48C165.576 240.48 163.416 239.984 161.56 238.992C159.704 238 158.248 236.528 157.192 234.576C156.168 232.624 155.656 230.208 155.656 227.328C155.656 224.512 156.12 222.096 157.048 220.08C158.008 218.064 159.336 216.512 161.032 215.424C162.76 214.336 164.76 213.792 167.032 213.792ZM166.984 217.248C164.968 217.248 163.368 217.904 162.184 219.216C161.032 220.496 160.344 222.288 160.12 224.592H173.224C173.192 222.416 172.68 220.656 171.688 219.312C170.696 217.936 169.128 217.248 166.984 217.248ZM196.429 213.792C199.597 213.792 202.141 214.896 204.061 217.104C206.013 219.312 206.989 222.64 206.989 227.088C206.989 231.472 206.013 234.8 204.061 237.072C202.141 239.344 199.581 240.48 196.381 240.48C194.397 240.48 192.749 240.112 191.437 239.376C190.157 238.64 189.149 237.76 188.413 236.736H188.125C188.157 237.28 188.205 237.968 188.269 238.8C188.365 239.632 188.413 240.352 188.413 240.96V251.52H184.189V214.272H187.645L188.221 217.776H188.413C189.181 216.656 190.189 215.712 191.437 214.944C192.685 214.176 194.349 213.792 196.429 213.792ZM195.661 217.344C193.037 217.344 191.181 218.08 190.093 219.552C189.005 221.024 188.445 223.264 188.413 226.272V227.088C188.413 230.256 188.925 232.704 189.949 234.432C191.005 236.128 192.941 236.976 195.757 236.976C197.293 236.976 198.573 236.56 199.597 235.728C200.621 234.864 201.373 233.68 201.853 232.176C202.365 230.672 202.621 228.96 202.621 227.04C202.621 224.096 202.045 221.744 200.893 219.984C199.773 218.224 198.029 217.344 195.661 217.344ZM213.721 240V214.272H217.945V224.832H224.617C227.945 224.832 230.409 225.44 232.009 226.656C233.609 227.872 234.409 229.696 234.409 232.128C234.409 234.528 233.625 236.448 232.057 237.888C230.489 239.296 227.945 240 224.425 240H213.721ZM238.681 240V214.272H242.905V240H238.681ZM217.945 236.592H224.041C225.865 236.592 227.353 236.288 228.505 235.68C229.657 235.04 230.233 233.936 230.233 232.368C230.233 230.8 229.689 229.744 228.601 229.2C227.545 228.624 226.041 228.336 224.089 228.336H217.945V236.592Z" fill="black"/>
</g>
<defs>
<clipPath id="clip0">
<rect width="256" height="256" fill="white"/>
</clipPath>
</defs>
</svg>
